<svg width="41" height="40" viewBox="0 0 41 40" fill="none" xmlns="http://www.w3.org/2000/svg">
<path d="M32.47 27.6854C32.4979 27.4667 32.5118 27.2406 32.5118 27C32.5118 26.7667 32.4979 26.5333 32.4631 26.3146L33.8761 25.1625C34.0014 25.0604 34.0362 24.8635 33.9596 24.7177L32.6232 22.2969C32.5396 22.1365 32.3656 22.0854 32.2125 22.1365L30.5488 22.8365C30.2008 22.5594 29.8319 22.326 29.4212 22.151L29.1706 20.299C29.1427 20.124 29.0035 20 28.8365 20H26.1635C25.9965 20 25.8642 20.124 25.8364 20.299L25.5858 22.151C25.1751 22.326 24.7992 22.5667 24.4581 22.8365L22.7945 22.1365C22.6414 22.0781 22.4673 22.1365 22.3838 22.2969L21.0543 24.7177C20.9708 24.8708 20.9986 25.0604 21.1378 25.1625L22.5509 26.3146C22.5161 26.5333 22.4882 26.774 22.4882 27C22.4882 27.226 22.5021 27.4667 22.5369 27.6854L21.1239 28.8375C20.9986 28.9396 20.9638 29.1365 21.0404 29.2823L22.3768 31.7031C22.4604 31.8635 22.6344 31.9146 22.7875 31.8635L24.4512 31.1635C24.7992 31.4406 25.1681 31.674 25.5788 31.849L25.8294 33.701C25.8642 33.876 25.9965 34 26.1635 34H28.8365C29.0035 34 29.1427 33.876 29.1636 33.701L29.4142 31.849C29.8249 31.674 30.2008 31.4406 30.5419 31.1635L32.2055 31.8635C32.3586 31.9219 32.5327 31.8635 32.6162 31.7031L33.9527 29.2823C34.0362 29.1219 34.0014 28.9396 33.8691 28.8375L32.47 27.6854ZM27.5 29.625C26.1218 29.625 24.9941 28.4437 24.9941 27C24.9941 25.5563 26.1218 24.375 27.5 24.375C28.8782 24.375 30.0059 25.5563 30.0059 27C30.0059 28.4437 28.8782 29.625 27.5 29.625Z" stroke="#1D1D1D" stroke-width="1.2"/>
<path d="M35.7054 12.0385C35.729 11.8667 35.7407 11.6891 35.7407 11.5C35.7407 11.3167 35.729 11.1333 35.6995 10.9615L36.8952 10.0562C37.0012 9.97604 37.0306 9.82135 36.9658 9.70677L35.835 7.80469C35.7643 7.67865 35.617 7.63854 35.4875 7.67865L34.0798 8.22865C33.7853 8.01094 33.4731 7.8276 33.1256 7.6901L32.9136 6.2349C32.89 6.0974 32.7722 6 32.6309 6H30.3691C30.2278 6 30.1159 6.0974 30.0923 6.2349L29.8803 7.6901C29.5328 7.8276 29.2147 8.01667 28.9261 8.22865L27.5184 7.67865C27.3888 7.63281 27.2416 7.67865 27.1709 7.80469L26.0459 9.70677C25.9753 9.82708 25.9988 9.97604 26.1166 10.0562L27.3123 10.9615C27.2828 11.1333 27.2593 11.3224 27.2593 11.5C27.2593 11.6776 27.271 11.8667 27.3005 12.0385L26.1048 12.9437C25.9988 13.024 25.9694 13.1786 26.0342 13.2932L27.165 15.1953C27.2357 15.3214 27.383 15.3615 27.5125 15.3214L28.9202 14.7714C29.2147 14.9891 29.5269 15.1724 29.8744 15.3099L30.0864 16.7651C30.1159 16.9026 30.2278 17 30.3691 17H32.6309C32.7722 17 32.89 16.9026 32.9077 16.7651L33.1197 15.3099C33.4672 15.1724 33.7853 14.9891 34.0739 14.7714L35.4816 15.3214C35.6112 15.3672 35.7584 15.3214 35.8291 15.1953L36.9599 13.2932C37.0306 13.1672 37.0012 13.024 36.8893 12.9437L35.7054 12.0385ZM31.5 13.5625C30.3338 13.5625 29.3796 12.6344 29.3796 11.5C29.3796 10.3656 30.3338 9.4375 31.5 9.4375C32.6662 9.4375 33.6204 10.3656 33.6204 11.5C33.6204 12.6344 32.6662 13.5625 31.5 13.5625Z" stroke="#1D1D1D" stroke-width="1.2"/>
<path d="M18.4643 10.8642L18.612 11.1667L18.9472 11.1984L21.8011 11.4676L22.1009 15.7756L19.3161 16.3212L18.9706 16.3888L18.8612 16.7235C18.6579 17.3449 18.3772 17.9373 18.0086 18.4848L17.8171 18.7693L17.965 19.0787L19.2212 21.7053L15.7012 24.0299L13.7788 21.8433L13.5523 21.5857L13.2155 21.6501C12.5704 21.7735 11.9236 21.7942 11.255 21.7422L10.9079 21.7152L10.7122 22.0031L9.11699 24.3501L5.27287 22.3828L6.16358 19.6427L6.27217 19.3086L6.03402 19.0504C5.82414 18.8228 5.61522 18.5451 5.43054 18.2655C5.25875 18.0053 5.10179 17.6956 4.96441 17.3899L4.82045 17.0695L4.47058 17.0382L1.60068 16.7814L1.29158 12.4798L4.07635 11.9342L4.41674 11.8675L4.52882 11.5393C4.74141 10.9166 5.01792 10.3141 5.38383 9.77059L5.57536 9.48607L5.42738 9.17666L4.17124 6.5501L7.69123 4.22553L9.61363 6.41211L9.84009 6.66969L10.177 6.60525C10.822 6.48187 11.4688 6.46122 12.1375 6.51323L12.4845 6.54023L12.6802 6.25232L14.2754 3.90533L18.1196 5.87258L17.2288 8.61273L17.1203 8.94678L17.3584 9.20499C17.5685 9.43283 17.7711 9.70105 17.9619 9.98991C18.1584 10.2874 18.3234 10.5757 18.4643 10.8642ZM5.25988 22.4228C5.25987 22.4228 5.25987 22.4228 5.25986 22.4228L5.25988 22.4228ZM18.1326 5.83255L18.1325 5.8327C18.1326 5.83258 18.1326 5.83247 18.1326 5.83235L18.1326 5.83255ZM7.81236 16.6926C9.24576 18.8631 12.1661 19.5112 14.3145 18.0924C16.4628 16.6737 17.0135 13.7334 15.5801 11.5628C14.1467 9.39231 11.2263 8.74423 9.07795 10.163C6.92961 11.5817 6.37897 14.522 7.81236 16.6926Z" stroke="#1D1D1D" stroke-width="1.2"/>
</svg>
