<svg width="41" height="41" viewBox="0 0 41 41" fill="none" xmlns="http://www.w3.org/2000/svg">
<path d="M32.7387 25.752L32.5662 26.1443L32.8165 26.4921L35.8535 30.7114L35.8603 30.7209L35.8674 30.7302C35.8994 30.7718 35.9073 30.8099 35.9043 30.845C35.9012 30.8808 35.884 30.9367 35.8251 30.998L30.207 36.3827L30.2002 36.3892L30.1936 36.3958C30.1462 36.4436 30.0972 36.4613 30.0514 36.4641C30.0041 36.467 29.9491 36.4541 29.8973 36.4187L25.7805 33.2043L25.442 32.94L25.0427 33.0982C23.9292 33.5394 22.7597 33.8408 21.544 33.9679L21.1149 34.0128L20.938 34.4062L18.8008 39.1589L18.8007 39.1589L18.7958 39.1702C18.7732 39.2228 18.7383 39.2546 18.6995 39.2724C18.6595 39.2908 18.6058 39.2985 18.5432 39.2804L11.0376 37.1095C10.9789 37.0925 10.9408 37.0611 10.9145 37.0207C10.8884 36.9806 10.8662 36.9182 10.8692 36.8338L11.5949 31.7038L11.6553 31.2767L11.3164 31.0097C10.3595 30.2557 9.54883 29.3821 8.81785 28.4007L8.56418 28.0602L8.14163 28.1025L2.9631 28.6211C2.88866 28.6191 2.82691 28.5962 2.78569 28.5671C2.7465 28.5396 2.71906 28.5032 2.70624 28.4454L2.70421 28.4363L2.70195 28.4272L0.825654 20.8745C0.817703 20.8336 0.822977 20.7766 0.852336 20.7192C0.882553 20.6601 0.922851 20.63 0.951114 20.6187L0.951352 20.6187L5.81087 18.6833L6.22649 18.5178L6.27832 18.0734C6.34384 17.5118 6.48054 16.8985 6.64754 16.3211C6.80622 15.7726 7.05123 15.1931 7.30982 14.6536L7.50319 14.2502L7.24011 13.8884L4.16404 9.65773L4.15287 9.64237L4.14094 9.6276C4.11287 9.59284 4.10587 9.56128 4.10923 9.52753C4.11309 9.48887 4.13354 9.43334 4.1883 9.38004C4.18851 9.37984 4.18871 9.37964 4.18892 9.37944L9.79434 3.98255L9.80049 3.97664L9.80649 3.97059C9.85394 3.92277 9.90291 3.90509 9.94871 3.90229C9.99603 3.89941 10.051 3.91226 10.1028 3.94769L14.2196 7.16207L14.5531 7.42247L14.9484 7.27168C16.069 6.84427 17.2464 6.52501 18.4561 6.39851L18.8852 6.35364L19.0621 5.96017L21.1946 1.21803C21.2293 1.14865 21.2749 1.1116 21.313 1.09373C21.3505 1.07614 21.3973 1.0688 21.4569 1.08604L28.9625 3.25695C29.0743 3.28927 29.1456 3.38735 29.1334 3.51458L28.4052 8.66256L28.3448 9.08973L28.6837 9.35673C29.6406 10.1107 30.4513 10.9843 31.1822 11.9657L31.4359 12.3062L31.8585 12.2639L37.037 11.7453C37.1114 11.7473 37.1732 11.7702 37.2144 11.7993C37.2536 11.8269 37.281 11.8633 37.2939 11.921L37.2959 11.9302L37.2982 11.9393L39.1744 19.4919C39.1824 19.5328 39.1771 19.5898 39.1478 19.6472C39.1175 19.7063 39.0772 19.7364 39.049 19.7477L39.0487 19.7478L34.1892 21.6831L33.7736 21.8486L33.7218 22.293C33.6562 22.8551 33.525 23.449 33.3526 24.0453C33.1749 24.6596 32.9719 25.2218 32.7387 25.752Z" stroke="#1D1D1D" stroke-width="1.5"/>
<path d="M20 29.25C14.9142 29.25 10.75 25.0858 10.75 20C10.75 14.9142 14.9142 10.75 20 10.75C25.0858 10.75 29.25 14.9142 29.25 20C29.25 25.0858 25.0858 29.25 20 29.25Z" stroke="#1D1D1D" stroke-width="1.5"/>
<path d="M16 25.3906L16 19.4587" stroke="#1D1D1D" stroke-width="1.5" stroke-linecap="round"/>
<path d="M18.9773 23.6602V21.1885" stroke="#1D1D1D" stroke-width="1.5" stroke-linecap="round"/>
<path d="M21.9546 26.1289L21.9546 18.714" stroke="#1D1D1D" stroke-width="1.5" stroke-linecap="round"/>
<path d="M24.9319 23.6602V21.1885" stroke="#1D1D1D" stroke-width="1.5" stroke-linecap="round"/>
<path d="M21.5 16.5L37.5 3.5" stroke="white" stroke-width="3" stroke-linecap="round" stroke-linejoin="round"/>
<path d="M11 19.5L17 14.5L21.5 16.5L37.5 3.5" stroke="#1D1D1D" stroke-width="1.5" stroke-linecap="round" stroke-linejoin="round"/>
<path d="M32.5 3L37.5 3.5L37 8" stroke="#1D1D1D" stroke-width="1.5" stroke-linecap="round" stroke-linejoin="round"/>
</svg>
