<svg width="34" height="36" viewBox="0 0 34 36" fill="none" xmlns="http://www.w3.org/2000/svg">
<path d="M1.21423 1V35H32.7857" stroke="#1D1D1D" stroke-width="1.54044" stroke-linecap="round"/>
<path d="M10.492 25.2857C10.492 24.8603 10.1472 24.5155 9.7218 24.5155C9.29642 24.5155 8.95158 24.8603 8.95158 25.2857H10.492ZM10.492 35V25.2857H8.95158V35H10.492Z" fill="#1D1D1D"/>
<path d="M17.7854 13.1429C17.7854 12.7175 17.4405 12.3726 17.0151 12.3726C16.5898 12.3726 16.2449 12.7175 16.2449 13.1429L17.7854 13.1429ZM17.7854 35L17.7854 13.1429L16.2449 13.1429L16.2449 35L17.7854 35Z" fill="#1D1D1D"/>
<path d="M25.0559 7.07142C25.0559 6.64604 24.711 6.3012 24.2856 6.3012C23.8603 6.3012 23.5154 6.64604 23.5154 7.07142L25.0559 7.07142ZM25.0559 35L25.0559 7.07142L23.5154 7.07142L23.5154 35L25.0559 35Z" fill="#1D1D1D"/>
</svg>
