<svg width="40" height="40" viewBox="0 0 40 40" fill="none" xmlns="http://www.w3.org/2000/svg">
<circle cx="17.6094" cy="17.6074" r="8.4625" stroke="#1D1D1D" stroke-width="1.2"/>
<path d="M35.4243 33.2635C35.5368 33.151 35.6 32.9984 35.6 32.8392C35.6 32.6801 35.5368 32.5275 35.4243 32.415L27.7963 24.7871C31.1754 19.9821 30.7174 13.3026 26.4214 9.00665C21.6125 4.19778 13.8156 4.19778 9.0067 9.00665C4.19777 13.8155 4.19777 21.6122 9.0067 26.4211C13.3026 30.7169 19.9819 31.175 24.7869 27.7963L32.4149 35.4243C32.6492 35.6586 33.0291 35.6586 33.2635 35.4243L35.4243 33.2635Z" stroke="#1D1D1D" stroke-width="1.2" stroke-linejoin="round"/>
<path d="M14.4555 19.2904C14.4555 18.959 14.1868 18.6904 13.8555 18.6904C13.5241 18.6904 13.2555 18.959 13.2555 19.2904H14.4555ZM14.4555 25.332V19.2904H13.2555V25.332H14.4555Z" fill="#1D1D1D"/>
<path d="M18.0805 15.668C18.0805 15.3366 17.8118 15.068 17.4805 15.068C17.1491 15.068 16.8805 15.3366 16.8805 15.668L18.0805 15.668ZM18.0805 26.543L18.0805 15.668L16.8805 15.668L16.8805 26.543L18.0805 26.543Z" fill="#1D1D1D"/>
<path d="M21.7055 13.2487C21.7055 12.9173 21.4368 12.6487 21.1055 12.6487C20.7741 12.6487 20.5055 12.9173 20.5055 13.2487L21.7055 13.2487ZM21.7055 25.332L21.7055 13.2487L20.5055 13.2487L20.5055 25.332L21.7055 25.332Z" fill="#1D1D1D"/>
</svg>
