<svg width="40" height="40" viewBox="0 0 40 40" fill="none" xmlns="http://www.w3.org/2000/svg">
<path d="M16.5195 22.5L26.7568 12.2623" stroke="#1D1D1D" stroke-width="1.5"/>
<path d="M29.3112 4.6458C29.459 4.49796 29.6832 4.45772 29.8732 4.54491C30.0632 4.63209 30.179 4.8283 30.1633 5.03679L29.8534 9.16499L33.9816 8.85504C34.19 8.83939 34.3863 8.9551 34.4734 9.14512C34.5606 9.33515 34.5204 9.55935 34.3725 9.70719L32.1619 11.9178C32.0784 12.0013 31.9681 12.0526 31.8505 12.0625L27.0942 12.4644C26.9475 12.4768 26.8027 12.4239 26.6986 12.3198C26.5944 12.2156 26.5415 12.0709 26.5539 11.9241L26.9559 7.16788C26.9658 7.05024 27.017 6.93992 27.1005 6.85643L29.3112 4.6458Z" stroke="#1D1D1D" stroke-linejoin="round"/>
<circle cx="15.5" cy="23.5" r="11.75" stroke="#1D1D1D" stroke-width="1.5"/>
<circle cx="15.5" cy="23.5" r="6.75" stroke="#1D1D1D" stroke-width="1.5"/>
<circle cx="15.5" cy="23.5" r="1.75" stroke="#1D1D1D" stroke-width="1.5"/>
</svg>
