<svg width="20" height="14" viewBox="0 0 20 14" fill="none" xmlns="http://www.w3.org/2000/svg">
<path d="M19.1008 2.19003C18.9934 1.76655 18.7818 1.38005 18.4872 1.0692C18.1925 0.758348 17.8251 0.534054 17.4217 0.418761C15.9399 -1.85873e-07 9.99915 0 9.99915 0C9.99915 0 4.05835 -1.85873e-07 2.57655 0.418761C2.17319 0.534054 1.8058 0.758348 1.51114 1.0692C1.21648 1.38005 1.00488 1.76655 0.897519 2.19003C0.623637 3.7817 0.490732 5.3965 0.500502 7.01381C0.490732 8.63112 0.623637 10.2459 0.897519 11.8376C1.00568 12.2578 1.21809 12.6405 1.51316 12.9468C1.80822 13.253 2.17542 13.472 2.5774 13.5812C4.0592 14 10 14 10 14C10 14 15.9408 14 17.4226 13.5812C17.8246 13.472 18.1918 13.253 18.4868 12.9468C18.7819 12.6405 18.9943 12.2578 19.1025 11.8376C19.3764 10.2459 19.5093 8.63112 19.4995 7.01381C19.5093 5.3965 19.3764 3.7817 19.1025 2.19003H19.1008ZM8.05657 9.97454V4.05308L13.0223 7.01381L8.05657 9.97454Z" fill="white"/>
</svg>
