<svg width="16" height="16" viewBox="0 0 16 16" fill="none" xmlns="http://www.w3.org/2000/svg">
<path d="M3.87087 16H0.763902V5.31844H3.87087V16ZM2.31521 3.86068C1.95778 3.86233 1.60792 3.75075 1.30986 3.54006C1.0118 3.32937 0.778926 3.02902 0.640676 2.67699C0.502425 2.32496 0.465008 1.93705 0.533156 1.56231C0.601303 1.18756 0.771955 0.842816 1.02354 0.571648C1.27512 0.300481 1.59633 0.115071 1.94656 0.0388597C2.2968 -0.0373516 2.66033 -0.000941948 2.99119 0.143485C3.32205 0.287913 3.60538 0.533872 3.80538 0.850267C4.00537 1.16666 4.11303 1.53929 4.11476 1.92103C4.11523 2.43255 3.92632 2.92353 3.5892 3.28689C3.25209 3.65025 2.79414 3.8565 2.31521 3.86068ZM15.4983 16H12.3974V10.8016C12.3974 9.56241 12.3739 7.97255 10.7825 7.97255C9.16761 7.97255 8.92023 9.3196 8.92023 10.7122V16H5.81675V5.31844H8.79568V6.77527H8.83923C9.13716 6.23071 9.56785 5.78269 10.0854 5.47896C10.6029 5.17522 11.188 5.02714 11.7781 5.05051C14.9216 5.05051 15.5 7.26181 15.5 10.1336V16H15.4983Z" fill="white"/>
</svg>
