<svg width="22" height="14" viewBox="0 0 22 14" fill="none" xmlns="http://www.w3.org/2000/svg">
<path d="M9.45034 9.0018L9.32194 4.31931C9.32194 4.17378 9.2021 4.0625 9.06513 4.0625C8.91961 4.0625 8.80832 4.17378 8.80832 4.31931L8.68848 9.0018L8.80832 11.2532C8.80832 11.3987 8.92817 11.51 9.06513 11.51C9.21066 11.51 9.32194 11.3987 9.32194 11.2532L9.45034 9.0018Z" fill="white"/>
<path d="M8.52674 9.00038L8.38122 4.13813C8.38122 4.00116 8.26994 3.89844 8.14153 3.89844C8.01313 3.89844 7.90184 4.00116 7.90184 4.13813L7.77344 8.99182L7.90184 11.2603C7.90184 11.3973 8.01313 11.5 8.14153 11.5C8.26994 11.5 8.38122 11.3973 8.38122 11.2603L8.52674 9.00038Z" fill="white"/>
<path d="M6.53103 4.1742C6.52247 4.06291 6.43687 3.96875 6.32558 3.96875C6.2143 3.96875 6.12869 4.05435 6.12013 4.1742L5.97461 8.99365L6.12013 11.2964C6.12013 11.4077 6.2143 11.4933 6.32558 11.4933C6.43687 11.4933 6.52247 11.4077 6.53103 11.2878L6.70224 8.98509L6.53103 4.1742Z" fill="white"/>
<path d="M7.45612 4.01163C7.45612 3.89179 7.3534 3.78906 7.23356 3.78906C7.11371 3.78906 7.01099 3.88323 7.01099 4.01163L6.87402 8.99373L7.01099 11.2793C7.01099 11.3992 7.11371 11.5019 7.23356 11.5019C7.3534 11.5019 7.44756 11.4077 7.45612 11.2793L7.61021 8.99373L7.45612 4.01163Z" fill="white"/>
<path d="M2.79014 11.4423C2.85862 11.4423 2.90998 11.3909 2.91854 11.3139L3.14111 8.99404L2.91854 6.59715C2.90998 6.52867 2.85862 6.46875 2.79014 6.46875C2.72165 6.46875 2.67029 6.52011 2.66173 6.59715L2.46484 8.99404L2.66173 11.3139C2.66173 11.3909 2.72165 11.4423 2.79014 11.4423Z" fill="white"/>
<path d="M10.3833 9.00294L10.2634 3.43874C10.2634 3.34458 10.212 3.25897 10.135 3.20761C10.0922 3.18193 10.0408 3.15625 9.98092 3.15625C9.92956 3.15625 9.87819 3.17337 9.82683 3.19905C9.74979 3.25041 9.69843 3.33602 9.69843 3.43018V3.48154L9.5957 8.99438L9.69843 11.2286V11.2372C9.69843 11.2971 9.72411 11.357 9.76691 11.3998C9.81827 11.4598 9.89531 11.5026 9.98092 11.5026C10.058 11.5026 10.1264 11.4683 10.1778 11.4255C10.2292 11.3741 10.2634 11.3057 10.2634 11.2286L10.272 11.0061L10.3833 9.00294Z" fill="white"/>
<path d="M3.80871 6.77053C3.80015 6.68492 3.74023 6.625 3.66318 6.625C3.58614 6.625 3.51766 6.68492 3.51766 6.77053L3.33789 8.99621L3.51766 11.3332C3.52622 11.4188 3.58614 11.4787 3.66318 11.4787C3.74023 11.4787 3.80871 11.4188 3.80871 11.3332L4.01416 8.99621L3.80871 6.77053Z" fill="white"/>
<path d="M4.54577 5.21094C4.46016 5.21094 4.38312 5.27942 4.38312 5.37358L4.21191 8.9946L4.38312 11.3316C4.39168 11.4257 4.46016 11.4942 4.54577 11.4942C4.63137 11.4942 4.70841 11.4257 4.70841 11.3316L4.9053 8.9946L4.70841 5.37358C4.70841 5.28798 4.63137 5.21094 4.54577 5.21094Z" fill="white"/>
<path d="M5.60766 11.3306L5.78743 9.00222L5.60766 4.55086C5.5991 4.44814 5.52206 4.37109 5.41933 4.37109C5.31661 4.37109 5.23957 4.44814 5.23101 4.55086L5.06836 9.00222L5.23101 11.3306C5.23101 11.4334 5.31661 11.5104 5.41933 11.5104C5.52206 11.519 5.5991 11.4334 5.60766 11.3306Z" fill="white"/>
<path d="M11.0599 2.67561C11.0171 2.64993 10.9657 2.63281 10.9058 2.63281C10.8373 2.63281 10.7688 2.65849 10.7175 2.7013C10.649 2.75266 10.6062 2.83826 10.6062 2.93242V2.96666L10.4863 9.01024L10.5463 10.1231L10.6062 11.2102C10.6062 11.3729 10.7431 11.5013 10.9058 11.5013C11.0684 11.5013 11.1968 11.3643 11.2054 11.2017L11.3338 9.00168L11.2054 2.93242C11.1968 2.82114 11.1455 2.72698 11.0599 2.67561Z" fill="white"/>
<path d="M0.248249 10.2766C0.291051 10.2766 0.325292 10.2424 0.333852 10.191L0.522179 8.99257L0.333852 7.77701C0.325292 7.72565 0.291051 7.69141 0.248249 7.69141C0.205447 7.69141 0.162646 7.72565 0.162646 7.77701L0 8.99257L0.162646 10.191C0.162646 10.2424 0.205447 10.2766 0.248249 10.2766Z" fill="white"/>
<path d="M1.06208 11.0036C1.10488 11.0036 1.14768 10.9694 1.15624 10.918L1.40449 8.99198L1.15624 7.0231C1.14768 6.97174 1.11344 6.9375 1.06208 6.9375C1.01928 6.9375 0.976474 6.97174 0.967914 7.0231L0.753906 8.99198L0.967914 10.918C0.976474 10.9694 1.01072 11.0036 1.06208 11.0036Z" fill="white"/>
<path d="M1.91732 11.3578C1.97724 11.3578 2.02004 11.315 2.0286 11.2465L2.25973 8.99512L2.0286 6.65816C2.02004 6.59824 1.97724 6.54688 1.91732 6.54688C1.8574 6.54688 1.81459 6.58968 1.80603 6.65816L1.60059 8.99512L1.80603 11.2465C1.81459 11.3064 1.8574 11.3578 1.91732 11.3578Z" fill="white"/>
<path d="M19.2185 6.12607C18.8504 6.12607 18.4995 6.20311 18.1742 6.33152C17.9602 3.90895 15.9228 2 13.4403 2C12.8325 2 12.2419 2.11984 11.7197 2.32529C11.5143 2.40233 11.4629 2.48794 11.4629 2.64202V11.1938C11.4629 11.3564 11.5913 11.4848 11.7539 11.5019H19.2271C20.7166 11.5019 21.9236 10.3121 21.9236 8.82257C21.915 7.33307 20.708 6.12607 19.2185 6.12607Z" fill="white"/>
</svg>
