<svg width="63" height="63" viewBox="0 0 63 63" fill="none" xmlns="http://www.w3.org/2000/svg">
<path d="M0 31.5C0 14.103 14.103 0 31.5 0C48.897 0 63 14.103 63 31.5C63 48.897 48.897 63 31.5 63C14.103 63 0 48.897 0 31.5Z" fill="#F7F7F7"/>
<g clip-path="url(#clip0_1414_52748)">
<path d="M10.6708 32.6235L10.129 31.2647H7.07785L6.53607 32.6235H5.66406L8.12529 26.4971H9.07126L11.5428 32.6235H10.6691H10.6708ZM8.60343 27.2865L7.298 30.5836H9.89855L8.60343 27.2865Z" fill="#3C3C3B"/>
<path d="M14.855 30.2448V26.4971H15.6169V30.2259C15.6169 31.3456 16.2241 32.0542 17.3524 32.0542C18.4806 32.0542 19.0878 31.3473 19.0878 30.2259V26.4971H19.8497V30.2362C19.8497 31.7618 19.0138 32.7353 17.3506 32.7353C15.6875 32.7353 14.8516 31.7532 14.8516 30.2465L14.855 30.2448Z" fill="#3C3C3B"/>
<path d="M27.5917 32.6235L26.03 30.1898H24.8088V32.6235H24.0469V26.4971H26.5081C27.6295 26.4971 28.4276 27.2143 28.4276 28.3443C28.4276 29.4743 27.6742 30.0522 26.8383 30.1261L28.4912 32.6252H27.5899L27.5917 32.6235ZM27.6364 28.3426C27.6364 27.6529 27.141 27.1764 26.4152 27.1764H24.8071V29.519H26.4152C27.141 29.519 27.6364 29.0323 27.6364 28.3426Z" fill="#3C3C3B"/>
<path d="M47.6229 32.6235L46.0612 30.1898H44.8401V32.6235H44.0781V26.4971H46.5394C47.6608 26.4971 48.4588 27.2143 48.4588 28.3443C48.4588 29.4743 47.7055 30.0522 46.8696 30.1261L48.5224 32.6252H47.6212L47.6229 32.6235ZM47.6694 28.3426C47.6694 27.6529 47.174 27.1764 46.4482 27.1764H44.8401V29.519H46.4482C47.174 29.519 47.6694 29.0323 47.6694 28.3426Z" fill="#3C3C3B"/>
<path d="M56.7863 32.6235L56.2445 31.2647H53.195L52.6533 32.6235H51.7812L54.2425 26.4971H55.1884L57.66 32.6235H56.7863ZM54.7206 27.2865L53.4152 30.5836H56.0157L54.7206 27.2865Z" fill="#3C3C3B"/>
<path d="M14.0234 36.6182H14.9333V36.797H14.2264V37.1926H14.9195V37.3715H14.2264V37.7946H14.9333V37.9735H14.0234V36.6182Z" fill="#3C3C3B"/>
<path d="M16.6092 36.9329V37.9735H16.4062V36.6182H16.6161L17.3539 37.6346V36.6182H17.5569V37.9735H17.3591L16.6092 36.9329Z" fill="#3C3C3B"/>
<path d="M19.0703 36.6182H19.9802V36.797H19.2733V37.1926H19.9664V37.3715H19.2733V37.7946H19.9802V37.9735H19.0703V36.6182Z" fill="#3C3C3B"/>
<path d="M21.9106 37.4506H21.6561V37.9735H21.4531V36.6182H22.0241C22.2821 36.6182 22.4593 36.785 22.4593 37.0344C22.4593 37.2838 22.2942 37.4076 22.1222 37.43L22.4696 37.9718H22.234L21.9106 37.4489V37.4506ZM21.9966 36.797H21.6561V37.2717H21.9966C22.1428 37.2717 22.2477 37.1771 22.2477 37.0344C22.2477 36.8916 22.1428 36.797 21.9966 36.797Z" fill="#3C3C3B"/>
<path d="M24.5706 36.5962C24.8252 36.5962 24.9937 36.7114 25.1073 36.8645L24.9421 36.9591C24.8648 36.8559 24.7289 36.7768 24.5706 36.7768C24.2886 36.7768 24.077 36.9918 24.077 37.2962C24.077 37.6007 24.2886 37.8191 24.5706 37.8191C24.7203 37.8191 24.8493 37.7451 24.9146 37.6849V37.4407H24.4795V37.2618H25.1176V37.7589C24.9869 37.9034 24.8011 37.998 24.5706 37.998C24.1819 37.998 23.8672 37.7176 23.8672 37.2945C23.8672 36.8714 24.1819 36.5928 24.5706 36.5928V36.5962Z" fill="#3C3C3B"/>
<path d="M26.9672 37.4059L26.4375 36.6182H26.6714L27.0687 37.2236L27.4626 36.6182H27.6982L27.1702 37.4059V37.9718H26.9672V37.4059Z" fill="#3C3C3B"/>
<path d="M31.2778 37.4506H31.0233V37.9735H30.8203V36.6182H31.3913C31.6493 36.6182 31.8265 36.785 31.8265 37.0344C31.8265 37.2838 31.6614 37.4076 31.4894 37.43L31.8368 37.9718H31.6012L31.2778 37.4489V37.4506ZM31.3655 36.797H31.025V37.2717H31.3655C31.5117 37.2717 31.6166 37.1771 31.6166 37.0344C31.6166 36.8916 31.5117 36.797 31.3655 36.797Z" fill="#3C3C3B"/>
<path d="M33.2891 36.6182H34.1989V36.797H33.492V37.1926H34.1851V37.3715H33.492V37.7946H34.1989V37.9735H33.2891V36.6182Z" fill="#3C3C3B"/>
<path d="M35.7029 37.6264C35.794 37.7279 35.9402 37.8173 36.1294 37.8173C36.3496 37.8173 36.4253 37.7055 36.4253 37.6075C36.4253 37.4647 36.2705 37.4252 36.0985 37.3805C35.8818 37.3237 35.6289 37.2601 35.6289 36.9849C35.6289 36.7613 35.8267 36.5996 36.1088 36.5996C36.3186 36.5996 36.482 36.6667 36.6024 36.7888L36.4855 36.9384C36.3823 36.8284 36.2395 36.7802 36.0933 36.7802C35.9471 36.7802 35.8388 36.8576 35.8388 36.9711C35.8388 37.0932 35.985 37.1311 36.1535 37.1741C36.3754 37.2325 36.6334 37.3013 36.6334 37.5903C36.6334 37.8018 36.4872 37.9979 36.1208 37.9979C35.8783 37.9979 35.7029 37.9102 35.5859 37.7829L35.7012 37.6264H35.7029Z" fill="#3C3C3B"/>
<path d="M38.0859 36.6182H38.9958V36.797H38.2889V37.1926H38.982V37.3715H38.2889V37.7946H38.9958V37.9735H38.0859V36.6182Z" fill="#3C3C3B"/>
<path d="M41.3257 37.6931H40.6618L40.5517 37.9735H40.3281L40.8665 36.6182H41.121L41.6594 37.9735H41.4358L41.3257 37.6931ZM40.7203 37.5125H41.2672L40.9937 36.7953L40.722 37.5125H40.7203Z" fill="#3C3C3B"/>
<path d="M43.5044 37.4506H43.2498V37.9735H43.0469V36.6182H43.6179C43.8759 36.6182 44.053 36.785 44.053 37.0344C44.053 37.2838 43.8879 37.4076 43.7159 37.43L44.0634 37.9718H43.8277L43.5044 37.4489V37.4506ZM43.5904 36.797H43.2498V37.2717H43.5904C43.7366 37.2717 43.8415 37.1771 43.8415 37.0344C43.8415 36.8916 43.7366 36.797 43.5904 36.797Z" fill="#3C3C3B"/>
<path d="M45.4609 37.2974C45.4609 36.8812 45.7705 36.5957 46.1558 36.5957C46.4224 36.5957 46.5892 36.723 46.6941 36.8829L46.5221 36.9741C46.4516 36.8606 46.3175 36.7763 46.1558 36.7763C45.8823 36.7763 45.6708 36.9913 45.6708 37.2957C45.6708 37.6001 45.8823 37.8151 46.1558 37.8151C46.3157 37.8151 46.4499 37.7326 46.5221 37.6173L46.6941 37.7085C46.5858 37.8667 46.4224 37.9957 46.1558 37.9957C45.7705 37.9957 45.4609 37.7119 45.4609 37.2957V37.2974Z" fill="#3C3C3B"/>
<path d="M49.0622 37.3681H48.3123V37.9735H48.1094V36.6182H48.3123V37.1875H49.0622V36.6182H49.2652V37.9735H49.0622V37.3681Z" fill="#3C3C3B"/>
<path d="M34.9756 30.5359L33.5412 30.5996L35.624 30.259L34.0021 29.3182L35.9026 30.0888L35.3763 29.0327L36.1211 30.0045L36.2226 27.8769L36.3361 30.0045L37.0997 29.0327L36.5545 30.0888L38.455 29.3217L36.8331 30.2625L38.9022 30.6133L37.5211 30.5463C38.1678 30.6632 38.7698 30.8696 39.2961 31.1534C39.5661 30.6598 39.7226 30.0939 39.7226 29.4902C39.7226 27.5656 38.1609 26.0039 36.2363 26.0039C34.3117 26.0039 32.75 27.5656 32.75 29.4902C32.75 30.0905 32.9048 30.6546 33.1731 31.1465C33.708 30.861 34.3186 30.6529 34.9773 30.5377L34.9756 30.5359Z" fill="#FFCC00"/>
<path d="M33.2535 31.2925C33.4805 31.1721 33.7213 31.0655 33.9776 30.9743C33.9828 30.9743 33.9862 30.9709 33.9914 30.9692C34.0773 30.9382 34.1651 30.909 34.2528 30.8832C34.853 30.7009 35.5187 30.5994 36.2204 30.5994C36.9221 30.5994 37.5946 30.7026 38.1966 30.8866C38.286 30.9141 38.3738 30.9434 38.4597 30.9743C38.4649 30.9743 38.4683 30.9778 38.4735 30.9795C38.7315 31.0724 38.974 31.179 39.201 31.3011C39.232 31.2512 39.2595 31.2014 39.2888 31.1515C38.7625 30.8694 38.1622 30.663 37.5138 30.5443L38.8949 30.6114L36.8258 30.2606L38.4477 29.3197L36.5472 30.0868L37.0924 29.0308L36.3287 30.0026L36.2152 27.875L36.1138 30.0026L35.369 29.0308L35.8953 30.0868L33.9948 29.3163L35.6167 30.2571L33.5338 30.5977L34.9683 30.534C34.3095 30.6493 33.699 30.8574 33.1641 31.1429C33.1916 31.1945 33.2208 31.2444 33.2518 31.2925H33.2535Z" fill="white"/>
<path d="M40.1016 31.924C39.2279 31.1208 37.8175 30.5996 36.2266 30.5996C34.6356 30.5996 33.227 31.1208 32.3516 31.924C32.6955 31.7967 33.0688 31.6883 33.4609 31.5955C34.0973 32.4313 35.1 32.9731 36.2317 32.9731C37.3635 32.9731 38.3645 32.4331 39.0008 31.5989C39.3895 31.69 39.7576 31.7984 40.0999 31.924H40.1016Z" fill="#3C3C3B"/>
</g>
<defs>
<clipPath id="clip0_1414_52748">
<rect width="51.9971" height="12" fill="white" transform="translate(5.66406 26)"/>
</clipPath>
</defs>
</svg>
