<svg width="36" height="36" viewBox="0 0 36 36" fill="none" xmlns="http://www.w3.org/2000/svg">
<path d="M0.5 18C0.5 8.33502 8.33502 0.5 18 0.5C27.665 0.5 35.5 8.33502 35.5 18C35.5 27.665 27.665 35.5 18 35.5C8.33502 35.5 0.5 27.665 0.5 18Z" stroke="#9D9D9D"/>
<path d="M13.8709 26H10.7639V15.3184H13.8709V26ZM12.3152 13.8607C11.9578 13.8623 11.6079 13.7508 11.3099 13.5401C11.0118 13.3294 10.7789 13.029 10.6407 12.677C10.5024 12.325 10.465 11.937 10.5332 11.5623C10.6013 11.1876 10.772 10.8428 11.0235 10.5716C11.2751 10.3005 11.5963 10.1151 11.9466 10.0389C12.2968 9.96265 12.6603 9.99906 12.9912 10.1435C13.322 10.2879 13.6054 10.5339 13.8054 10.8503C14.0054 11.1667 14.113 11.5393 14.1148 11.921C14.1152 12.4326 13.9263 12.9235 13.5892 13.2869C13.2521 13.6502 12.7941 13.8565 12.3152 13.8607ZM25.4983 26H22.3974V20.8016C22.3974 19.5624 22.3739 17.9725 20.7825 17.9725C19.1676 17.9725 18.9202 19.3196 18.9202 20.7122V26H15.8168V15.3184H18.7957V16.7753H18.8392C19.1372 16.2307 19.5679 15.7827 20.0854 15.479C20.6029 15.1752 21.188 15.0271 21.7781 15.0505C24.9216 15.0505 25.5 17.2618 25.5 20.1336V26H25.4983Z" fill="#3C3C3B"/>
</svg>
