<svg width="22" height="20" viewBox="0 0 22 20" fill="none" xmlns="http://www.w3.org/2000/svg">
<path d="M20.8119 10.1888C20.9181 10.0738 20.918 9.89641 20.8117 9.7815L13.2083 1.56235C13.023 1.362 12.6881 1.49314 12.6881 1.76607V6.06711C12.6881 6.23279 12.5538 6.36711 12.3881 6.36711H10.9167C5.43603 6.36711 1 10.7475 1 16.1595V17.8398C1 18.2529 1.50696 18.4513 1.78728 18.1478V18.1478C4.45193 15.2625 8.23694 13.6179 12.1885 13.6179H12.3881C12.5538 13.6179 12.6881 13.7523 12.6881 13.9179V18.218C12.6881 18.4911 13.0232 18.6222 13.2085 18.4216L20.8119 10.1888Z" stroke="#1D1D1D"/>
</svg>
