<svg width="21" height="21" viewBox="0 0 21 21" fill="none" xmlns="http://www.w3.org/2000/svg">
<path d="M0 10.5C0 4.70101 4.70101 0 10.5 0C16.299 0 21 4.70101 21 10.5C21 16.299 16.299 21 10.5 21C4.70101 21 0 16.299 0 10.5Z" fill="#E5E5E5"/>
<path d="M8.09134 15.1663H6.27894V8.93543H8.09134V15.1663ZM7.18387 8.08507C6.97537 8.08603 6.77129 8.02095 6.59742 7.89804C6.42355 7.77514 6.28771 7.59994 6.20706 7.39459C6.12641 7.18923 6.10459 6.96295 6.14434 6.74435C6.18409 6.52575 6.28364 6.32465 6.4304 6.16647C6.57715 6.00829 6.76453 5.90013 6.96883 5.85568C7.17313 5.81122 7.38519 5.83246 7.57819 5.91671C7.77119 6.00096 7.93647 6.14443 8.05314 6.329C8.1698 6.51356 8.2326 6.73092 8.23361 6.95361C8.23389 7.252 8.12368 7.5384 7.92704 7.75036C7.73039 7.96232 7.46325 8.08263 7.18387 8.08507ZM14.874 15.1663H13.0651V12.1339C13.0651 11.4111 13.0514 10.4837 12.1231 10.4837C11.1811 10.4837 11.0368 11.2694 11.0368 12.0818V15.1663H9.22644V8.93543H10.9641V9.78525H10.9896C11.1633 9.46759 11.4146 9.20625 11.7165 9.02907C12.0184 8.85189 12.3596 8.76551 12.7039 8.77914C14.5376 8.77914 14.875 10.0691 14.875 11.7443V15.1663H14.874Z" fill="#1D1D1D"/>
</svg>
