<svg width="30" height="30" viewBox="0 0 30 30" fill="none" xmlns="http://www.w3.org/2000/svg">
<path d="M0 15C0 6.71573 6.71573 0 15 0C23.2843 0 30 6.71573 30 15C30 23.2843 23.2843 30 15 30C6.71573 30 0 23.2843 0 15Z" fill="url(#paint0_linear_4122_62613)"/>
<path d="M17.0309 17.1903C16.6079 16.7484 15.8653 16.457 14.9911 16.457C14.1168 16.457 13.3742 16.739 12.9512 17.1903C12.735 17.4253 12.6128 17.6603 12.5752 17.9987C12.5 18.6567 12.547 19.2207 12.6222 20.1325C12.6974 20.9974 12.8384 22.1536 13.017 23.3192C13.1486 24.1558 13.252 24.6071 13.346 24.9267C13.5058 25.4531 14.0792 25.9043 14.9911 25.9043C15.9029 25.9043 16.4857 25.4437 16.6361 24.9267C16.7301 24.6071 16.8335 24.1558 16.9651 23.3192C17.1437 22.1442 17.2847 20.9974 17.3599 20.1325C17.4445 19.2207 17.4821 18.6567 17.4069 17.9987C17.3693 17.6603 17.2565 17.4159 17.0309 17.1903Z" fill="white"/>
<path d="M16.6262 14.8383C17.5293 13.9352 17.5293 12.471 16.6262 11.568C15.7231 10.6649 14.2589 10.6649 13.3559 11.568C12.4528 12.471 12.4528 13.9352 13.3559 14.8383C14.2589 15.7414 15.7231 15.7414 16.6262 14.8383Z" fill="white"/>
<path d="M14.9631 4.09376C9.56737 4.11257 5.14925 8.49308 5.0731 13.8888C5.0167 18.26 7.80858 22.0013 11.7097 23.3737C11.8037 23.4113 11.8977 23.3267 11.8883 23.2327C11.8413 22.8943 11.7849 22.5559 11.7473 22.2175C11.7285 22.0953 11.6533 22.0013 11.5499 21.9448C8.4666 20.6006 6.31394 17.5079 6.35154 13.9264C6.39948 9.2263 10.2348 5.4004 14.9255 5.3628C19.729 5.3252 23.649 9.2169 23.649 14.011C23.649 17.5549 21.5057 20.6006 18.4506 21.9448C18.3378 21.9919 18.2626 22.0953 18.2532 22.2175C18.2062 22.5559 18.1592 22.8943 18.1122 23.2327C18.0934 23.3361 18.1968 23.4113 18.2908 23.3737C22.1543 22.0201 24.9274 18.3352 24.9274 14.011C24.9086 8.54009 20.4435 4.08436 14.9631 4.09376Z" fill="white"/>
<path d="M14.7838 8.6533C17.8483 8.53109 20.3675 10.994 20.3675 14.0208C20.3675 15.5625 19.7095 16.9537 18.6661 17.9408C18.5815 18.0254 18.5345 18.1382 18.5345 18.2604C18.5533 18.627 18.5439 18.9842 18.5251 19.3884C18.5157 19.4918 18.6379 19.567 18.7319 19.5012C20.4804 18.3074 21.6366 16.2863 21.6366 14.0114C21.646 10.2701 18.5157 7.23386 14.7368 7.38426C11.2211 7.51587 8.40102 10.4205 8.35402 13.9362C8.32582 16.2487 9.48205 18.298 11.2587 19.5106C11.3433 19.567 11.4655 19.5012 11.4655 19.3978C11.4373 18.9936 11.4373 18.6364 11.4561 18.2604C11.4655 18.1382 11.4185 18.0254 11.3245 17.9408C10.2435 16.9255 9.58545 15.4779 9.62305 13.8798C9.69826 11.0598 11.9637 8.7661 14.7838 8.6533Z" fill="white"/>
<defs>
<linearGradient id="paint0_linear_4122_62613" x1="15" y1="0" x2="15" y2="30" gradientUnits="userSpaceOnUse">
<stop stop-color="#F452FF"/>
<stop offset="1" stop-color="#832BC1"/>
</linearGradient>
</defs>
</svg>
