<svg width="30" height="30" viewBox="0 0 30 30" fill="none" xmlns="http://www.w3.org/2000/svg">
<path d="M0 15C0 6.71573 6.71573 0 15 0C23.2843 0 30 6.71573 30 15C30 23.2843 23.2843 30 15 30C6.71573 30 0 23.2843 0 15Z" fill="#1F1F1F"/>
<g clip-path="url(#clip0_4122_62610)">
<path d="M14.9995 6C10.029 6 6 10.0293 6 15C6 19.9707 10.029 24 14.9995 24C19.9699 24 23.9989 19.9707 23.9989 15C23.9989 10.0293 19.971 6 14.9995 6ZM19.1274 18.9809C18.9661 19.2453 18.6201 19.3291 18.3557 19.1668C16.2429 17.876 13.583 17.5837 10.4503 18.2995C10.1483 18.3683 9.84739 18.1791 9.77861 17.8771C9.70983 17.5751 9.8979 17.2742 10.201 17.2054C13.6292 16.4219 16.5696 16.7594 18.9425 18.2092C19.2069 18.3715 19.2907 18.7165 19.1284 18.9809H19.1274ZM20.2289 16.5305C20.0258 16.8604 19.5938 16.9647 19.2638 16.7615C16.8447 15.2741 13.1574 14.8442 10.2955 15.7126C9.92477 15.8243 9.53251 15.6158 9.41967 15.245C9.3079 14.8743 9.51746 14.483 9.88716 14.3702C13.1553 13.3782 17.2187 13.8586 19.9968 15.5664C20.3267 15.7695 20.431 16.2016 20.2278 16.5315L20.2289 16.5305ZM20.3235 13.9779C17.4229 12.2551 12.6373 12.0971 9.86781 12.9375C9.42289 13.0719 8.95325 12.8215 8.81784 12.3765C8.6835 11.9316 8.93391 11.4619 9.37883 11.3265C12.5578 10.3614 17.8431 10.5484 21.1822 12.5302C21.583 12.7677 21.7141 13.2847 21.4766 13.6834C21.2402 14.0832 20.7222 14.2154 20.3235 13.9779Z" fill="#1ED760"/>
</g>
<defs>
<clipPath id="clip0_4122_62610">
<rect width="18" height="18" fill="white" transform="translate(6 6)"/>
</clipPath>
</defs>
</svg>
