<svg width="30" height="30" viewBox="0 0 30 30" fill="none" xmlns="http://www.w3.org/2000/svg">
<g clip-path="url(#clip0_8060_60629)">
<path d="M15 30C23.2843 30 30 23.2843 30 15C30 6.71573 23.2843 0 15 0C6.71573 0 0 6.71573 0 15C0 23.2843 6.71573 30 15 30Z" fill="#25D1DA"/>
<path d="M8.8373 14.5684C9.26182 14.5684 9.575 14.8054 9.73789 15.2117H9.77217C10.0253 14.7796 10.3338 14.5684 10.724 14.5684C11.3674 14.5684 11.7576 15.1086 11.7576 15.9793V18.0998C11.7576 18.1643 11.7104 18.2114 11.646 18.2114H10.9599C10.8954 18.2114 10.8482 18.1643 10.8482 18.0998V16.0479C10.8482 15.6318 10.6854 15.4004 10.381 15.4004C10.0464 15.4004 9.87061 15.6705 9.87061 16.168V18.0998C9.87061 18.1643 9.82344 18.2114 9.75898 18.2114H9.07285C9.0084 18.2114 8.96123 18.1643 8.96123 18.0998V16.0479C8.96123 15.6318 8.79834 15.4004 8.49395 15.4004C8.15938 15.4004 7.98359 15.6705 7.98359 16.168V18.0998C7.98359 18.1643 7.93643 18.2114 7.87197 18.2114H7.18584C7.12139 18.2114 7.07422 18.1643 7.07422 18.0998V14.757C7.07422 14.6926 7.12139 14.6454 7.18584 14.6454H7.75186C7.81631 14.6454 7.85791 14.6882 7.87197 14.757L7.95781 15.1771H7.99209C8.14648 14.7869 8.44238 14.5684 8.83701 14.5684H8.8373Z" fill="#14191A"/>
<path d="M15.0904 14.7559V18.0986C15.0904 18.1631 15.0433 18.2103 14.9788 18.2103H14.4128C14.3442 18.2103 14.3076 18.1675 14.2927 18.0986L14.2068 17.6785H14.1726C14.0182 18.0772 13.7179 18.2873 13.315 18.2873C12.6717 18.2873 12.2773 17.76 12.2773 16.898V14.7562C12.2773 14.6917 12.3245 14.6445 12.389 14.6445H13.0751C13.1396 14.6445 13.1867 14.6917 13.1867 14.7562V16.8295C13.1867 17.237 13.3496 17.46 13.6584 17.46C14.0015 17.46 14.1816 17.2027 14.1816 16.7094V14.7562C14.1816 14.6917 14.2288 14.6445 14.2933 14.6445H14.9794C15.0438 14.6445 15.091 14.6917 15.091 14.7562L15.0904 14.7559Z" fill="#14191A"/>
<path d="M17.327 15.655C17.2842 15.4191 17.104 15.282 16.8597 15.282C16.6153 15.282 16.4522 15.4106 16.4522 15.5993C16.4522 15.7751 16.5808 15.8888 16.8468 15.9553L17.3486 16.0798C17.9703 16.2342 18.2363 16.5901 18.2363 17.1219C18.2363 17.7951 17.6618 18.2882 16.8942 18.2882C16.1952 18.2882 15.6119 17.9237 15.5091 17.1477C15.5006 17.0791 15.5349 17.0319 15.6034 17.019L16.1952 16.9074C16.2723 16.8925 16.3153 16.9247 16.3323 17.019C16.3924 17.3943 16.5983 17.5745 16.894 17.5745C17.1641 17.5745 17.3527 17.433 17.3527 17.2036C17.3527 16.9742 17.2197 16.8594 16.9411 16.792L16.5682 16.7021C15.8135 16.5198 15.5689 16.153 15.5689 15.6556C15.5689 14.9586 16.1434 14.5684 16.8597 14.5684C17.576 14.5684 18.0304 14.9501 18.159 15.5012C18.1763 15.5782 18.1505 15.6254 18.0731 15.6383L17.4556 15.7411C17.387 15.7528 17.3355 15.7238 17.327 15.6553V15.655Z" fill="#14191A"/>
<path d="M19.1099 13.3008C19.4014 13.3008 19.6416 13.4979 19.6416 13.8325C19.6416 14.1671 19.4014 14.3643 19.1099 14.3643C18.8184 14.3643 18.5781 14.1583 18.5781 13.8325C18.5781 13.5067 18.8184 13.3008 19.1099 13.3008ZM18.6552 18.0993V14.7565C18.6552 14.6921 18.7023 14.6449 18.7668 14.6449H19.4529C19.5174 14.6449 19.5646 14.6921 19.5646 14.7565V18.0993C19.5646 18.1638 19.5174 18.2109 19.4529 18.2109H18.7668C18.7023 18.2109 18.6552 18.1638 18.6552 18.0993Z" fill="#14191A"/>
<path d="M22.9244 17.092C22.77 17.864 22.204 18.2885 21.5437 18.2885C20.6604 18.2885 20 17.4866 20 16.4272C20 15.3679 20.6604 14.5684 21.5437 14.5684C22.204 14.5684 22.77 14.9929 22.9244 15.7648C22.9373 15.8378 22.903 15.885 22.8345 15.8979L22.2128 16.0095C22.1442 16.0224 22.1012 15.9922 22.0842 15.9195C21.9898 15.4865 21.8012 15.2935 21.5439 15.2935C21.1493 15.2935 20.9437 15.6966 20.9437 16.4278C20.9437 17.1591 21.1496 17.5643 21.5439 17.5643C21.8012 17.5643 21.9898 17.3712 22.0842 16.9382C22.1015 16.8652 22.1442 16.8354 22.2128 16.8482L22.8345 16.9599C22.903 16.9728 22.9373 17.0199 22.9244 17.0929V17.092Z" fill="#14191A"/>
<path d="M18.6757 20.0021C18.7188 20.1005 18.843 20.1005 19.0358 20.0621C19.5502 19.9508 20.2018 19.942 20.3134 20.0964C20.4206 20.2549 20.1848 20.8631 19.9062 21.3087C19.8034 21.4801 19.7603 21.587 19.8461 21.6685C19.8675 21.6943 19.8977 21.7027 19.932 21.7071C20.0348 21.7071 20.1678 21.6043 20.292 21.4886C20.5621 21.253 20.7722 20.953 20.8879 20.6147C21.0036 20.2892 21.0593 19.8307 20.9395 19.6552C20.8238 19.4882 20.3735 19.3769 20.0263 19.381C19.6618 19.381 19.3103 19.4709 18.993 19.6379C18.7958 19.7451 18.6159 19.865 18.6757 20.0021Z" fill="#14191A"/>
<path d="M9.16147 19.8237C9.19106 19.9139 9.2602 20.025 9.36304 20.1536C10.6793 21.7772 12.7972 22.4883 14.8424 22.4883C16.6304 22.4883 18.3581 21.9486 19.4558 20.9976C19.6445 20.8306 19.7429 20.6976 19.7429 20.5951C19.7429 20.5523 19.7256 20.518 19.6958 20.4838C19.6014 20.3853 19.4599 20.458 19.2885 20.5479C18.2681 21.0835 16.699 21.4517 15.0311 21.4517C13.1491 21.4517 11.1337 20.9847 9.60767 19.7554C9.46206 19.6397 9.30327 19.524 9.19604 19.6098C9.15737 19.6397 9.12251 19.7042 9.16177 19.824L9.16147 19.8237Z" fill="#14191A"/>
<path d="M5.62637 12.6967C5.01318 12.6967 4.60156 12.2637 4.60156 11.6247C4.60156 10.8551 5.20625 10.3617 6.16689 10.3617C6.304 10.3617 6.42412 10.3693 6.52285 10.3907V10.3017C6.52285 9.86426 6.36201 9.6542 6.03623 9.6542C5.779 9.6542 5.60967 9.79688 5.53232 10.0702C5.51094 10.1484 5.46787 10.1859 5.39521 10.173L4.79902 10.0702C4.72607 10.0573 4.6874 9.99727 4.70908 9.91582C4.86787 9.3123 5.36533 8.97656 6.09834 8.97656C6.96875 8.97656 7.43193 9.45674 7.43193 10.3521V12.508C7.43193 12.5725 7.38477 12.6196 7.32031 12.6196H6.7543C6.68779 12.6196 6.64912 12.5769 6.63418 12.508L6.54834 12.1049H6.51406C6.35967 12.477 6.05088 12.6967 5.62637 12.6967ZM5.97383 12.019C6.32979 12.019 6.52285 11.6933 6.52285 11.0971V10.8709C6.4499 10.858 6.37285 10.8495 6.29551 10.8495C5.82822 10.8495 5.53643 11.11 5.53643 11.5216C5.53643 11.826 5.70811 12.019 5.97383 12.019Z" fill="#14191A"/>
<path d="M9.74326 8.97685C10.1678 8.97685 10.481 9.21387 10.6438 9.62021H10.6781C10.9313 9.18809 11.2397 8.97685 11.6303 8.97685C12.2736 8.97685 12.6639 9.51709 12.6639 10.3878V12.5083C12.6639 12.5728 12.6167 12.6199 12.5522 12.6199H11.8661C11.8017 12.6199 11.7545 12.5728 11.7545 12.5083V10.4563C11.7545 10.0403 11.5916 9.80889 11.2872 9.80889C10.9526 9.80889 10.7769 10.079 10.7769 10.5765V12.5083C10.7769 12.5728 10.7297 12.6199 10.6652 12.6199H9.9791C9.91465 12.6199 9.86748 12.5728 9.86748 12.5083V10.4563C9.86748 10.0403 9.70459 9.80889 9.40019 9.80889C9.06562 9.80889 8.88984 10.079 8.88984 10.5765V12.5083C8.88984 12.5728 8.84268 12.6199 8.77822 12.6199H8.09209C8.02764 12.6199 7.98047 12.5728 7.98047 12.5083V9.16553C7.98047 9.10107 8.02764 9.05391 8.09209 9.05391H8.65811C8.72256 9.05391 8.76416 9.09668 8.77822 9.16553L8.86406 9.58564H8.89834C9.05273 9.19541 9.34863 8.97656 9.74326 8.97656V8.97685Z" fill="#14191A"/>
<path d="M14.0834 12.6967C13.4702 12.6967 13.0586 12.2637 13.0586 11.6247C13.0586 10.8551 13.6633 10.3617 14.6239 10.3617C14.761 10.3617 14.8812 10.3693 14.9799 10.3907V10.3017C14.9799 9.86426 14.819 9.6542 14.4933 9.6542C14.236 9.6542 14.0667 9.79688 13.9894 10.0702C13.968 10.1484 13.9249 10.1859 13.8522 10.173L13.2561 10.0702C13.1831 10.0573 13.1444 9.99727 13.1661 9.91582C13.3249 9.3123 13.8224 8.97656 14.5554 8.97656C15.4258 8.97656 15.889 9.45674 15.889 10.3521V12.508C15.889 12.5725 15.8418 12.6196 15.7773 12.6196H15.2113C15.1448 12.6196 15.1062 12.5769 15.0912 12.508L15.0054 12.1049H14.9711C14.8167 12.477 14.5079 12.6967 14.0834 12.6967ZM14.4306 12.019C14.7865 12.019 14.9796 11.6933 14.9796 11.0971V10.8709C14.9066 10.858 14.8296 10.8495 14.7522 10.8495C14.285 10.8495 13.9932 11.11 13.9932 11.5216C13.9932 11.826 14.1648 12.019 14.4306 12.019Z" fill="#14191A"/>
<path d="M16.2695 11.9946C16.2695 11.9346 16.2868 11.883 16.3211 11.8317L17.7168 9.77539H16.4154C16.351 9.77539 16.3038 9.72822 16.3038 9.66377V9.16631C16.3038 9.10186 16.351 9.05469 16.4154 9.05469H18.671C18.7354 9.05469 18.7826 9.10186 18.7826 9.16631V9.68076C18.7826 9.74082 18.7697 9.78799 18.7311 9.84365L17.3213 11.9H18.7396C18.8081 11.9 18.8512 11.9472 18.8512 12.0116V12.5091C18.8512 12.5735 18.804 12.6207 18.7396 12.6207H16.3812C16.3167 12.6207 16.2695 12.5735 16.2695 12.5091V11.9946Z" fill="#14191A"/>
<path d="M19.0234 10.8366C19.0234 9.77315 19.6882 8.97656 20.5671 8.97656C21.446 8.97656 22.1195 9.77315 22.1195 10.8366C22.1195 11.9001 21.4507 12.6955 20.5671 12.6955C19.6835 12.6955 19.0234 11.8989 19.0234 10.8366ZM20.5671 11.9675C20.9573 11.9675 21.1759 11.5644 21.1759 10.8363C21.1759 10.1083 20.9573 9.7043 20.5671 9.7043C20.1769 9.7043 19.9668 10.1074 19.9668 10.8363C19.9668 11.5652 20.1812 11.9675 20.5671 11.9675Z" fill="#14191A"/>
<path d="M24.3396 8.97685C24.9956 8.97685 25.3987 9.51709 25.3987 10.3878V12.5083C25.3987 12.5728 25.3516 12.6199 25.2871 12.6199H24.601C24.5365 12.6199 24.4894 12.5728 24.4894 12.5083V10.4563C24.4894 10.0403 24.3136 9.80889 23.9963 9.80889C23.6488 9.80889 23.4602 10.079 23.4602 10.5765V12.5083C23.4602 12.5728 23.413 12.6199 23.3485 12.6199H22.6624C22.5979 12.6199 22.5508 12.5728 22.5508 12.5083V9.16553C22.5508 9.10107 22.5979 9.05391 22.6624 9.05391H23.2284C23.2929 9.05391 23.3345 9.09668 23.3485 9.16553L23.4344 9.58564H23.4687C23.623 9.19658 23.9318 8.97656 24.3391 8.97656L24.3396 8.97685Z" fill="#14191A"/>
</g>
<defs>
<clipPath id="clip0_8060_60629">
<rect width="30" height="30" fill="white"/>
</clipPath>
</defs>
</svg>
