<svg width="32" height="32" viewBox="0 0 32 32" fill="none" xmlns="http://www.w3.org/2000/svg">
<g clip-path="url(#clip0_4622_16759)">
<path d="M0.5 16C0.5 7.43959 7.43959 0.5 16 0.5C24.5604 0.5 31.5 7.43959 31.5 16C31.5 24.5604 24.5604 31.5 16 31.5C7.43959 31.5 0.5 24.5604 0.5 16Z" fill="#2C2C2C"/>
<path d="M0.5 16C0.5 7.43959 7.43959 0.5 16 0.5C24.5604 0.5 31.5 7.43959 31.5 16C31.5 24.5604 24.5604 31.5 16 31.5C7.43959 31.5 0.5 24.5604 0.5 16Z" stroke="#2C2C2C"/>
<path d="M11 13.5L16.0427 18.5L21 13.5" stroke="white" stroke-width="2"/>
</g>
<defs>
<clipPath id="clip0_4622_16759">
<rect width="32" height="32" rx="16" fill="white"/>
</clipPath>
</defs>
</svg>
