<svg width="16" height="16" viewBox="0 0 16 16" fill="none" xmlns="http://www.w3.org/2000/svg">
<path d="M4.6143 7.6264C5.66122 9.67352 7.32648 11.3388 9.3736 12.3857L10.9622 10.7971C11.0564 10.7022 11.1754 10.6356 11.3056 10.6049C11.4358 10.5742 11.5719 10.5807 11.6986 10.6235C12.5308 10.8969 13.4013 11.0358 14.2772 11.035C14.4687 11.0353 14.6522 11.1115 14.7877 11.2469C14.9231 11.3822 14.9995 11.5657 15 11.7571V14.2778C14.9995 14.4692 14.9232 14.6526 14.7879 14.7879C14.6526 14.9232 14.4692 14.9995 14.2778 15C12.6655 15.0002 11.0688 14.6827 9.57912 14.0658C8.08942 13.4488 6.73586 12.5444 5.59572 11.4043C4.45558 10.2641 3.55121 8.91058 2.93425 7.42088C2.31729 5.93119 1.99983 4.33455 2 2.72215C2.00051 2.53078 2.07676 2.3474 2.21208 2.21208C2.3474 2.07676 2.53078 2.00051 2.72215 2H5.25C5.44137 2.00051 5.62475 2.07676 5.76007 2.21208C5.89539 2.3474 5.97164 2.53078 5.97215 2.72215C5.97078 3.59812 6.10968 4.46866 6.3836 5.3007C6.42442 5.42817 6.42915 5.56445 6.39725 5.69444C6.36535 5.82443 6.29809 5.94305 6.2029 6.03715L4.6143 7.6264Z" stroke="#2C2C2C" stroke-width="0.93"/>
</svg>
