<svg width="21" height="21" viewBox="0 0 21 21" fill="none" xmlns="http://www.w3.org/2000/svg">
<path d="M0 10.5C0 4.70101 4.70101 0 10.5 0C16.299 0 21 4.70101 21 10.5C21 16.299 16.299 21 10.5 21C4.70101 21 0 16.299 0 10.5Z" fill="#E5E5E5"/>
<path d="M8.09134 15.1654H6.27894V8.93445H8.09134V15.1654ZM7.18387 8.08409C6.97537 8.08506 6.77129 8.01997 6.59742 7.89707C6.42355 7.77416 6.28771 7.59896 6.20706 7.39361C6.12641 7.18826 6.10459 6.96198 6.14434 6.74338C6.18409 6.52478 6.28364 6.32367 6.4304 6.16549C6.57715 6.00731 6.76453 5.89916 6.96883 5.8547C7.17313 5.81024 7.38519 5.83148 7.57819 5.91573C7.77119 5.99998 7.93647 6.14346 8.05314 6.32802C8.1698 6.51258 8.2326 6.72995 8.23361 6.95263C8.23389 7.25102 8.12368 7.53743 7.92704 7.74938C7.73039 7.96134 7.46325 8.08166 7.18387 8.08409ZM14.874 15.1654H13.0651V12.1329C13.0651 11.4101 13.0514 10.4827 12.1231 10.4827C11.1811 10.4827 11.0368 11.2685 11.0368 12.0808V15.1654H9.22644V8.93445H10.9641V9.78427H10.9896C11.1633 9.46661 11.4146 9.20527 11.7165 9.02809C12.0184 8.85091 12.3596 8.76453 12.7039 8.77816C14.5376 8.77816 14.875 10.0681 14.875 11.7433V15.1654H14.874Z" fill="#1D1D1D"/>
</svg>
