<svg width="24" height="24" viewBox="0 0 24 24" fill="none" xmlns="http://www.w3.org/2000/svg">
<path d="M12 23.625C5.57969 23.625 0.375 18.4203 0.375 12C0.375 5.57969 5.57969 0.375 12 0.375C18.4203 0.375 23.625 5.57969 23.625 12C23.625 18.4203 18.4203 23.625 12 23.625Z" fill="#2C2C2C"/>
<path d="M12 23.625C5.57969 23.625 0.375 18.4203 0.375 12C0.375 5.57969 5.57969 0.375 12 0.375C18.4203 0.375 23.625 5.57969 23.625 12C23.625 18.4203 18.4203 23.625 12 23.625Z" stroke="#2C2C2C" stroke-width="0.75"/>
<path d="M10.5 8.25L14.25 12.0321L10.5 15.75" stroke="white" stroke-width="1.5"/>
</svg>
