<svg width="24" height="19" viewBox="0 0 24 19" fill="none" xmlns="http://www.w3.org/2000/svg">
<path id="&#226;&#128;&#156;" d="M0 13.375C0 6.9375 5.34715 2.125 9.26425 0L10.8808 1.9375C7.8342 4 5.34715 6.4375 5.09845 10.375C7.77202 10.375 10.0104 12.0625 10.0104 14.75C10.0104 17.125 7.89637 19 5.4715 19C2.17617 19 0 16.9375 0 13.375ZM13.1192 13.375C13.1192 6.9375 18.4663 2.125 22.3834 0L24 1.9375C20.9534 4 18.4663 6.4375 18.2176 10.375C20.8912 10.375 23.1295 12.0625 23.1295 14.75C23.1295 17.125 21.0155 19 18.5907 19C15.2953 19 13.1192 16.9375 13.1192 13.375Z" fill="#FFCC00"/>
</svg>
