<svg width="16" height="16" viewBox="0 0 16 16" fill="none" xmlns="http://www.w3.org/2000/svg">
<path d="M8 0.5C12.1421 0.5 15.5 3.85786 15.5 8C15.5 12.1421 12.1421 15.5 8 15.5C3.85786 15.5 0.5 12.1421 0.5 8C0.5 3.85786 3.85786 0.5 8 0.5Z" fill="#1D1D1D"/>
<path d="M8 0.5C12.1421 0.5 15.5 3.85786 15.5 8C15.5 12.1421 12.1421 15.5 8 15.5C3.85786 15.5 0.5 12.1421 0.5 8C0.5 3.85786 3.85786 0.5 8 0.5Z" stroke="#3C3C3B"/>
<path d="M4 9.22368C4 7.19079 5.78238 5.67105 7.08808 5L7.62694 5.61184C6.6114 6.26316 5.78238 7.03289 5.69948 8.27631C6.59067 8.27631 7.33679 8.80921 7.33679 9.65789C7.33679 10.4079 6.63212 11 5.82383 11C4.72539 11 4 10.3487 4 9.22368ZM8.37306 9.22368C8.37306 7.19079 10.1554 5.67105 11.4611 5L12 5.61184C10.9845 6.26316 10.1554 7.03289 10.0725 8.27631C10.9637 8.27631 11.7098 8.80921 11.7098 9.65789C11.7098 10.4079 11.0052 11 10.1969 11C9.09845 11 8.37306 10.3487 8.37306 9.22368Z" fill="#FFCC00"/>
</svg>
