<svg width="32" height="32" viewBox="0 0 32 32" fill="none" xmlns="http://www.w3.org/2000/svg">
<path d="M0 16C0 7.16344 7.16344 0 16 0C24.8366 0 32 7.16344 32 16C32 24.8366 24.8366 32 16 32C7.16344 32 0 24.8366 0 16Z" fill="#FFCC00"/>
<path d="M18.7991 17.7387H18.243L18.0459 17.5487C18.8906 16.5639 19.327 15.2202 19.0877 13.7922C18.7568 11.8365 17.1238 10.2748 15.1529 10.0356C12.1755 9.66981 9.66961 12.1742 10.0356 15.1499C10.275 17.1196 11.8376 18.7517 13.7944 19.0823C15.2233 19.3215 16.5677 18.8854 17.5532 18.0412L17.7432 18.2382V18.7939L20.7348 21.7837C21.0234 22.0721 21.495 22.0721 21.7836 21.7837C22.0721 21.4953 22.0721 21.0239 21.7836 20.7355L18.7991 17.7387ZM14.5757 17.7387C12.823 17.7387 11.4082 16.3247 11.4082 14.573C11.4082 12.8214 12.823 11.4074 14.5757 11.4074C16.3284 11.4074 17.7432 12.8214 17.7432 14.573C17.7432 16.3247 16.3284 17.7387 14.5757 17.7387Z" fill="#1D1D1D"/>
</svg>
