<svg width="14" height="14" viewBox="0 0 14 14" fill="none" xmlns="http://www.w3.org/2000/svg">
<path d="M2.65894 5.72247C3.72374 7.80455 5.41743 9.49824 7.49951 10.563L9.11523 8.94731C9.21108 8.85078 9.33208 8.78306 9.46448 8.75186C9.59689 8.72066 9.73539 8.72722 9.86426 8.7708C10.7106 9.04883 11.596 9.19009 12.4868 9.18927C12.6816 9.18962 12.8683 9.2671 13.006 9.40475C13.1438 9.54239 13.2215 9.72901 13.222 9.92376V12.4875C13.2215 12.6821 13.1439 12.8686 13.0063 13.0063C12.8686 13.1439 12.6821 13.2215 12.4875 13.222C10.8476 13.2222 9.22366 12.8993 7.70853 12.2718C6.1934 11.6443 4.81672 10.7245 3.65712 9.56486C2.49751 8.40526 1.57769 7.02858 0.9502 5.51345C0.322706 3.99831 -0.000173596 2.37441 7.00196e-08 0.734481C0.000523521 0.539845 0.0780743 0.353331 0.215703 0.215703C0.353331 0.0780742 0.539846 0.000523451 0.734481 0H3.30549C3.50013 0.000523451 3.68664 0.0780742 3.82427 0.215703C3.9619 0.353331 4.03945 0.539845 4.03998 0.734481C4.03858 1.62541 4.17986 2.51081 4.45845 3.35706C4.49997 3.48671 4.50477 3.62532 4.47233 3.75753C4.43989 3.88974 4.37148 4.01038 4.27466 4.10609L2.65894 5.72247Z" fill="white"/>
</svg>
