<svg width="74" height="73" viewBox="0 0 74 73" fill="none" xmlns="http://www.w3.org/2000/svg">
<path d="M58.146 50.3337C58.1961 49.94 58.2212 49.5331 58.2212 49.1C58.2212 48.68 58.1961 48.26 58.1335 47.8662L60.677 45.7925C60.9025 45.6087 60.9652 45.2544 60.8273 44.9919L58.4217 40.6344C58.2713 40.3456 57.9581 40.2537 57.6824 40.3456L54.6879 41.6056C54.0614 41.1069 53.3974 40.6869 52.6581 40.3719L52.2071 37.0381C52.1569 36.7231 51.9064 36.5 51.6057 36.5H46.7943C46.4936 36.5 46.2556 36.7231 46.2055 37.0381L45.7544 40.3719C45.0152 40.6869 44.3386 41.12 43.7246 41.6056L40.7301 40.3456C40.4544 40.2406 40.1412 40.3456 39.9909 40.6344L37.5977 44.9919C37.4474 45.2675 37.4975 45.6087 37.7481 45.7925L40.2916 47.8662C40.2289 48.26 40.1788 48.6931 40.1788 49.1C40.1788 49.5069 40.2039 49.94 40.2665 50.3337L37.723 52.4075C37.4975 52.5912 37.4348 52.9456 37.5727 53.2081L39.9783 57.5656C40.1287 57.8544 40.4419 57.9462 40.7176 57.8544L43.7121 56.5944C44.3386 57.0931 45.0026 57.5131 45.7419 57.8281L46.1929 61.1619C46.2556 61.4769 46.4936 61.7 46.7943 61.7H51.6057C51.9064 61.7 52.1569 61.4769 52.1945 61.1619L52.6456 57.8281C53.3848 57.5131 54.0614 57.0931 54.6754 56.5944L57.6699 57.8544C57.9456 57.9594 58.2588 57.8544 58.4091 57.5656L60.8148 53.2081C60.9652 52.9194 60.9025 52.5912 60.6644 52.4075L58.146 50.3337ZM49.2 53.825C46.7192 53.825 44.6894 51.6987 44.6894 49.1C44.6894 46.5012 46.7192 44.375 49.2 44.375C51.6808 44.375 53.7106 46.5012 53.7106 49.1C53.7106 51.6987 51.6808 53.825 49.2 53.825Z" stroke="white" stroke-width="1.2"/>
<path d="M63.9697 22.1702C64.0121 21.8608 64.0333 21.5411 64.0333 21.2008C64.0333 20.8708 64.0121 20.5408 63.9591 20.2314L66.1113 18.602C66.3021 18.4577 66.3551 18.1792 66.2385 17.973L64.203 14.5492C64.0757 14.3223 63.8107 14.2502 63.5774 14.3223L61.0436 15.3123C60.5135 14.9205 59.9516 14.5905 59.3261 14.343L58.9444 11.7236C58.902 11.4761 58.69 11.3008 58.4356 11.3008H54.3644C54.11 11.3008 53.9086 11.4761 53.8662 11.7236L53.4845 14.343C52.859 14.5905 52.2865 14.9308 51.767 15.3123L49.2332 14.3223C48.9999 14.2398 48.7349 14.3223 48.6076 14.5492L46.5827 17.973C46.4555 18.1895 46.4979 18.4577 46.7099 18.602L48.8621 20.2314C48.8091 20.5408 48.7667 20.8811 48.7667 21.2008C48.7667 21.5205 48.7879 21.8608 48.8409 22.1702L46.6887 23.7995C46.4979 23.9439 46.4449 24.2223 46.5615 24.4286L48.597 27.8523C48.7243 28.0792 48.9893 28.1514 49.2226 28.0792L51.7564 27.0892C52.2865 27.4811 52.8484 27.8111 53.4739 28.0586L53.8556 30.678C53.9086 30.9255 54.11 31.1008 54.3644 31.1008H58.4356C58.69 31.1008 58.902 30.9255 58.9338 30.678L59.3155 28.0586C59.941 27.8111 60.5135 27.4811 61.033 27.0892L63.5668 28.0792C63.8001 28.1617 64.0651 28.0792 64.1924 27.8523L66.2279 24.4286C66.3551 24.2017 66.3021 23.9439 66.1007 23.7995L63.9697 22.1702ZM56.4 24.9133C54.3008 24.9133 52.5833 23.2427 52.5833 21.2008C52.5833 19.1589 54.3008 17.4883 56.4 17.4883C58.4992 17.4883 60.2167 19.1589 60.2167 21.2008C60.2167 23.2427 58.4992 24.9133 56.4 24.9133Z" stroke="white" stroke-width="1.2"/>
<path d="M6.85485 11.9443L13.3513 7.65418C13.498 7.5575 13.7014 7.57003 13.8528 7.72787L17.3652 11.7209L17.5916 11.9787L17.9282 11.9143C19.1389 11.6828 20.3472 11.6455 21.585 11.7417L21.9318 11.769L22.1275 11.4806L25.0525 7.17674C25.1917 7.00826 25.382 6.97441 25.5395 7.05996L25.5457 7.06405L25.5522 7.06679L32.5854 10.6656L32.586 10.6665C32.7387 10.7488 32.8221 10.9359 32.8073 11.0832L32.7952 11.1427L32.7957 11.1435L31.1688 16.1478L31.0596 16.4821L31.2979 16.7401C31.6981 17.174 32.0781 17.6788 32.4315 18.2139C32.7957 18.7654 33.1039 19.3024 33.3672 19.8417L33.5154 20.1441L33.85 20.1759L39.0569 20.6672L39.0764 20.6683C39.2349 20.6785 39.392 20.7979 39.4166 21.0452L39.9651 28.9289L39.9664 28.9362L39.9664 28.9432C39.9832 29.1211 39.8934 29.2609 39.7481 29.3215L39.6824 29.3426L34.5611 30.3454L34.216 30.413L34.106 30.7478C33.7275 31.9051 33.2035 33.012 32.5134 34.0372L32.322 34.3215L32.4702 34.631L34.7669 39.4326L34.7701 39.441C34.8589 39.6192 34.8035 39.8073 34.6514 39.908L28.155 44.1982C28.0226 44.2853 27.8231 44.2882 27.6377 44.1079L24.141 40.1314L23.9146 39.8737L23.578 39.938L23.1242 40.0165C22.0651 40.1775 21.0048 40.1957 19.9218 40.1114L19.5749 40.0842L19.3787 40.3718L16.4537 44.6756C16.3145 44.8442 16.1242 44.878 15.9667 44.7924L15.961 44.7891L15.954 44.7856L8.91942 41.1864L8.92023 41.1859C8.76737 41.1035 8.68393 40.9164 8.69887 40.7692L8.71104 40.7096L10.3379 35.7054L10.4466 35.3703L10.2083 35.1122C9.80843 34.6786 9.41613 34.1572 9.07392 33.639C8.74459 33.1403 8.4501 32.5566 8.19784 31.9952L8.05406 31.6747L7.70452 31.6433L2.46341 31.1747L2.44825 31.173L2.43281 31.1726L2.37651 31.1654C2.24627 31.135 2.12284 31.0152 2.10668 30.8064L2.10803 30.8067L1.54056 22.9227L0.942599 22.9653L1.54137 22.9221L1.5398 22.9091C1.52085 22.7084 1.63782 22.5565 1.81699 22.5119L6.94508 21.5069L7.28502 21.4404L7.39723 21.1123C7.74108 20.1052 8.17843 19.1178 8.74305 18.2025L8.99283 17.8152L9.18421 17.5308L9.03605 17.2214L6.74574 12.433C6.64735 12.214 6.71869 12.0345 6.85485 11.9443ZM16.3047 19.1902C12.6678 21.592 11.7232 26.5835 14.163 30.2782C16.6029 33.9729 21.5645 35.064 25.2015 32.6622C28.8384 30.2603 29.7832 25.2688 27.3432 21.5741C24.9032 17.8796 19.9416 16.7884 16.3047 19.1902Z" stroke="white" stroke-width="1.2"/>
</svg>
