<svg width="49" height="49" viewBox="0 0 49 49" fill="none" xmlns="http://www.w3.org/2000/svg">
<circle cx="19.9774" cy="19.9736" r="13.6848" stroke="white"/>
<path d="M7.16956 6.4812C14.5486 -0.532585 26.2172 -0.419281 33.4576 6.82104L33.7701 7.14136C40.1362 13.8112 40.6604 24.0038 35.3453 31.2556L47.5494 43.4597C47.6431 43.5534 47.6958 43.6808 47.6959 43.8132C47.6959 43.9457 47.643 44.073 47.5494 44.1667L44.1666 47.5496C43.9713 47.7445 43.6547 47.7447 43.4596 47.5496L31.2565 35.3464C24.0046 40.6611 13.8111 40.136 7.14124 33.7703L6.82092 33.4578C-0.534602 26.1023 -0.534574 14.1765 6.82092 6.82104L7.16956 6.4812Z" stroke="white" stroke-linejoin="round"/>
<path d="M14.6012 22.6096C14.6012 22.3335 14.3773 22.1096 14.1012 22.1096C13.8251 22.1096 13.6012 22.3335 13.6012 22.6096H14.6012ZM14.1012 32.0662H14.6012V22.6096H14.1012H13.6012V32.0662H14.1012Z" fill="white"/>
<path d="M20.2731 16.935C20.2731 16.6589 20.0492 16.435 19.7731 16.435C19.4969 16.435 19.2731 16.6589 19.2731 16.935L20.2731 16.935ZM19.7731 33.9568L20.2731 33.9568L20.2731 16.935L19.7731 16.935L19.2731 16.935L19.2731 33.9568L19.7731 33.9568Z" fill="white"/>
<path d="M25.9489 13.1531C25.9489 12.877 25.725 12.6531 25.4489 12.6531C25.1727 12.6531 24.9489 12.877 24.9489 13.1531L25.9489 13.1531ZM25.4489 32.0662L25.9489 32.0662L25.9489 13.1531L25.4489 13.1531L24.9489 13.1531L24.9489 32.0662L25.4489 32.0662Z" fill="white"/>
</svg>
