<svg width="73" height="73" viewBox="0 0 73 73" fill="none" xmlns="http://www.w3.org/2000/svg">
<path d="M30.2344 41L48.6614 22.5721" stroke="white" stroke-width="1.2"/>
<path d="M62.157 17.762C62.3344 17.5847 62.3824 17.3154 62.2778 17.0874C62.1732 16.8593 61.9376 16.7199 61.6874 16.7386L53.9086 17.3235L54.4934 9.54466C54.5122 9.29448 54.3728 9.05888 54.1447 8.95426C53.9168 8.84984 53.6481 8.89848 53.4708 9.07579L49.4919 13.0546C49.3917 13.1548 49.3298 13.2877 49.3179 13.4289L48.5949 21.9895L48.5977 22.1207C48.6152 22.2495 48.6746 22.3702 48.7682 22.4639C48.8932 22.5888 49.0672 22.6528 49.2433 22.6379L57.8039 21.9149L57.9081 21.8962C58.0095 21.8692 58.1031 21.8159 58.1781 21.7409L62.157 17.762Z" stroke="white" stroke-width="1.2" stroke-linejoin="round"/>
<circle cx="28.3984" cy="42.8008" r="21.9" stroke="white" stroke-width="1.2"/>
<circle cx="28.3984" cy="42.8008" r="12.9" stroke="white" stroke-width="1.2"/>
<circle cx="28.3984" cy="42.8008" r="3.9" stroke="white" stroke-width="1.2"/>
</svg>
