<svg width="61" height="77" viewBox="0 0 61 77" fill="none" xmlns="http://www.w3.org/2000/svg">
<path d="M30.5 39.9749C41.2679 39.9749 50 31.2427 50 20.4749C50 9.70696 41.2679 0.974854 30.5 0.974854C19.7321 0.974854 11 9.70696 11 20.4749C11 31.2427 19.7321 39.9749 30.5 39.9749V38.288C25.5777 38.288 21.1281 36.2959 17.9072 33.075C14.6862 29.8468 12.6941 25.4044 12.6941 20.4821C12.6941 15.5599 14.6862 11.1102 17.9072 7.88929C21.1353 4.66837 25.5777 2.67619 30.5 2.67619C35.4223 2.67619 39.8646 4.66837 43.0928 7.88929C46.321 11.1175 48.3059 15.5599 48.3132 20.4821C48.3132 25.4044 46.321 29.8468 43.0928 33.075C39.8646 36.2959 35.4223 38.288 30.5 38.288V39.9749Z" fill="#00B7EC"/>
<path d="M26.2685 11.5246C24.5089 11.5246 23.0839 12.9497 23.0839 14.7092V29.7741C23.0839 31.5336 24.5089 32.9586 26.2685 32.9586H34.7388C36.4983 32.9586 37.9234 31.5336 37.9234 29.7741V14.7092C37.9234 12.9497 36.4983 11.5246 34.7388 11.5246H26.2685V13.1896H34.7388C35.5822 13.1896 36.2657 13.8731 36.2657 14.7165V29.7813C36.2657 30.6247 35.5822 31.3082 34.7388 31.3082H26.2685C25.4251 31.3082 24.7489 30.6247 24.7416 29.7813V14.7165C24.7416 13.8731 25.4251 13.1969 26.2685 13.1896V11.5246Z" fill="#00B7EC"/>
<path d="M27.3227 7.39486V9.75058H33.6846V7.39486H27.3227Z" fill="#00B7EC"/>
<path d="M31.1689 15.0873H28.3188C27.2064 15.0873 26.3121 15.9888 26.3121 17.094V19.6024H27.9771V17.094C27.9771 16.9049 28.1297 16.745 28.3261 16.745H31.1762V15.08L31.1689 15.0873Z" fill="#00B7EC"/>
<path d="M2.55994 50.4856V53.4856H6.34993V54.9856H2.55994V59.1056H0.669922V48.9856H7.04993V50.4856H2.55994Z" fill="#00B7EC"/>
<path d="M14.5299 57.5556V59.1056H8.59993V48.9856H10.4799V57.5556H14.5299Z" fill="#00B7EC"/>
<path d="M17.7599 50.4856V53.2956H21.2999V54.7456H17.7599V57.6056H22.2499V59.1056H15.8699V48.9856H22.2499V50.4856H17.7599Z" fill="#00B7EC"/>
<path d="M32.1499 59.1156H30.2699C30.1399 59.1156 30.0399 59.0856 29.9599 59.0156C29.8799 58.9556 29.8199 58.8756 29.7699 58.7956L27.4299 54.9056C27.3899 55.0256 27.3499 55.1256 27.2999 55.2056L25.0499 58.7856C24.9899 58.8656 24.9299 58.9356 24.8599 59.0056C24.7899 59.0756 24.6899 59.1056 24.5799 59.1056H22.8199L26.1799 53.8956L22.9499 48.9856H24.8299C24.9599 48.9856 25.0499 49.0056 25.1099 49.0356C25.1699 49.0656 25.2199 49.1256 25.2699 49.2056L27.5699 52.9156C27.6199 52.7956 27.6699 52.6856 27.7399 52.5656L29.8499 49.2456C29.8999 49.1556 29.9599 49.0956 30.0199 49.0456C30.0799 49.0056 30.1599 48.9856 30.2499 48.9856H32.0499L28.7999 53.8256L32.1499 59.1156Z" fill="#00B7EC"/>
<path d="M35.1999 59.1156H33.3099V48.9956H35.1999V59.1156Z" fill="#00B7EC"/>
<path d="M40.949 48.9848C41.609 48.9848 42.179 49.0448 42.649 49.1748C43.119 49.3048 43.509 49.4848 43.809 49.7148C44.109 49.9448 44.329 50.2348 44.469 50.5648C44.609 50.8948 44.679 51.2648 44.679 51.6848C44.679 51.9248 44.639 52.1548 44.579 52.3648C44.509 52.5848 44.399 52.7849 44.249 52.9749C44.099 53.1649 43.919 53.3348 43.689 53.4848C43.459 53.6348 43.189 53.7648 42.879 53.8748C44.269 54.1848 44.969 54.9348 44.969 56.1248C44.969 56.5548 44.889 56.9548 44.719 57.3148C44.559 57.6748 44.319 57.9949 44.009 58.2549C43.699 58.5149 43.309 58.7248 42.849 58.8748C42.389 59.0248 41.869 59.0948 41.279 59.0948H37.459V48.9749H40.949V48.9848ZM39.339 50.4449V53.3748H40.839C41.479 53.3748 41.969 53.2548 42.299 53.0248C42.629 52.7948 42.789 52.4249 42.789 51.9149C42.789 51.4049 42.639 51.0149 42.339 50.7849C42.039 50.5549 41.579 50.4449 40.939 50.4449H39.339ZM41.249 57.6448C41.599 57.6448 41.889 57.6049 42.129 57.5149C42.369 57.4249 42.559 57.3148 42.699 57.1748C42.839 57.0348 42.949 56.8748 43.009 56.6848C43.069 56.4948 43.099 56.2948 43.099 56.0848C43.099 55.8748 43.069 55.6648 42.999 55.4948C42.929 55.3148 42.819 55.1749 42.669 55.0449C42.519 54.9249 42.329 54.8249 42.089 54.7649C41.849 54.6949 41.569 54.6649 41.239 54.6649H39.339V57.6349H41.239L41.249 57.6448Z" fill="#00B7EC"/>
<path d="M52.6099 57.5556V59.1056H46.6799V48.9856H48.5599V57.5556H52.6099Z" fill="#00B7EC"/>
<path d="M55.8399 50.4856V53.2956H59.3799V54.7456H55.8399V57.6056H60.3299V59.1056H53.9499V48.9856H60.3299V50.4856H55.8399Z" fill="#00B7EC"/>
<path d="M5.55994 67.2853V70.0953H9.09993V71.5453H5.55994V74.4053H10.0499V75.9053H3.66992V65.7853H10.0499V67.2853H5.55994Z" fill="#00B7EC"/>
<path d="M20.2599 65.7853V75.9053H19.2899C19.1399 75.9053 19.0199 75.8853 18.9099 75.8353C18.8099 75.7853 18.7099 75.7053 18.6199 75.5853L13.3299 68.8353C13.3599 69.1453 13.3699 69.4253 13.3699 69.6853V75.9053H11.7099V65.7853H12.6999C12.7799 65.7853 12.8499 65.7853 12.9099 65.7953C12.9699 65.7953 13.0199 65.8153 13.0599 65.8353C13.0999 65.8553 13.1499 65.8853 13.1899 65.9253C13.2299 65.9653 13.2799 66.0153 13.3299 66.0853L18.6399 72.8653C18.6299 72.7053 18.6099 72.5453 18.5999 72.3853C18.5999 72.2253 18.5899 72.0753 18.5899 71.9453V65.7953H20.2499L20.2599 65.7853Z" fill="#00B7EC"/>
<path d="M24.3999 67.2853V70.0953H27.9399V71.5453H24.3999V74.4053H28.8899V75.9053H22.5099V65.7853H28.8899V67.2853H24.3999Z" fill="#00B7EC"/>
<path d="M38.4599 75.9153H36.7599C36.4399 75.9153 36.1999 75.7853 36.0599 75.5353L33.9299 72.2953C33.8499 72.1753 33.7599 72.0853 33.6699 72.0353C33.5799 71.9853 33.4299 71.9553 33.2499 71.9553H32.4399V75.9153H30.5599V65.7953H33.6499C34.3399 65.7953 34.9299 65.8653 35.4199 66.0053C35.9099 66.1453 36.3199 66.3453 36.6299 66.6053C36.9499 66.8653 37.1799 67.1653 37.3299 67.5253C37.4799 67.8853 37.5499 68.2753 37.5499 68.7053C37.5499 69.0453 37.4999 69.3653 37.3999 69.6753C37.2999 69.9753 37.1499 70.2553 36.9699 70.5053C36.7799 70.7553 36.5499 70.9653 36.2699 71.1553C35.9899 71.3453 35.6799 71.4853 35.3199 71.5953C35.4399 71.6653 35.5499 71.7453 35.6599 71.8453C35.7599 71.9453 35.8599 72.0553 35.9399 72.1853L38.4699 75.9253L38.4599 75.9153ZM33.6199 70.6053C33.9799 70.6053 34.2799 70.5653 34.5499 70.4753C34.8199 70.3853 35.0299 70.2653 35.1999 70.1053C35.3699 69.9453 35.4999 69.7653 35.5799 69.5453C35.6599 69.3353 35.7099 69.0953 35.7099 68.8353C35.7099 68.3253 35.5399 67.9253 35.1999 67.6553C34.8599 67.3753 34.3399 67.2453 33.6499 67.2453H32.4499V70.6053H33.6299H33.6199Z" fill="#00B7EC"/>
<path d="M47.9099 70.8353V74.9353C47.3999 75.3153 46.8499 75.5853 46.2699 75.7653C45.6899 75.9353 45.0699 76.0253 44.3999 76.0253C43.5699 76.0253 42.8299 75.8953 42.1599 75.6453C41.4899 75.3853 40.9199 75.0353 40.4499 74.5753C39.9799 74.1153 39.6099 73.5753 39.3499 72.9353C39.0899 72.2953 38.9699 71.6053 38.9699 70.8553C38.9699 70.1053 39.0899 69.3953 39.3399 68.7653C39.5899 68.1353 39.9399 67.5853 40.3899 67.1253C40.8399 66.6653 41.3999 66.3153 42.0499 66.0653C42.6999 65.8153 43.4299 65.6853 44.2299 65.6853C44.6399 65.6853 45.0199 65.7153 45.3799 65.7853C45.7399 65.8553 46.0699 65.9453 46.3699 66.0553C46.6799 66.1653 46.9499 66.3053 47.2099 66.4753C47.4599 66.6353 47.6899 66.8153 47.8999 67.0153L47.3599 67.8653C47.2799 68.0053 47.1699 68.0853 47.0299 68.1153C46.8999 68.1453 46.7499 68.1153 46.5899 68.0153C46.4399 67.9253 46.2799 67.8353 46.1299 67.7453C45.9799 67.6553 45.7999 67.5753 45.6199 67.5153C45.4299 67.4553 45.2199 67.3953 44.9799 67.3553C44.7399 67.3153 44.4699 67.2953 44.1599 67.2953C43.6599 67.2953 43.2099 67.3753 42.8099 67.5453C42.4099 67.7153 42.0599 67.9553 41.7799 68.2653C41.4999 68.5753 41.2799 68.9553 41.1199 69.3953C40.9699 69.8353 40.8899 70.3253 40.8899 70.8653C40.8899 71.4453 40.9699 71.9653 41.1399 72.4153C41.3099 72.8753 41.5399 73.2553 41.8399 73.5753C42.1399 73.8953 42.4999 74.1353 42.9299 74.2953C43.3499 74.4653 43.8299 74.5453 44.3499 74.5453C44.7199 74.5453 45.0599 74.5053 45.3499 74.4253C45.6399 74.3453 45.9299 74.2353 46.2099 74.1053V72.2753H44.9399C44.8199 72.2753 44.7199 72.2453 44.6599 72.1753C44.5899 72.1053 44.5599 72.0253 44.5599 71.9253V70.8653H47.9199L47.9099 70.8353Z" fill="#00B7EC"/>
<path d="M54.0699 71.9953V75.9153H52.1899V71.9953L48.4999 65.7953H50.1599C50.3199 65.7953 50.4499 65.8353 50.5499 65.9153C50.6499 65.9953 50.7299 66.0953 50.7899 66.2153L52.6399 69.5953C52.7499 69.7953 52.8399 69.9853 52.9199 70.1653C52.9999 70.3453 53.0799 70.5153 53.1399 70.6953C53.1999 70.5153 53.2699 70.3453 53.3499 70.1653C53.4299 69.9853 53.5199 69.7953 53.6199 69.5953L55.4599 66.2153C55.5099 66.1153 55.5899 66.0153 55.6899 65.9253C55.7899 65.8353 55.9199 65.7953 56.0799 65.7953H57.7499L54.0599 71.9953H54.0699Z" fill="#00B7EC"/>
</svg>
