<svg width="39" height="57" viewBox="0 0 39 57" fill="none" xmlns="http://www.w3.org/2000/svg">
<path d="M19.5 38.4929V39.325C30.2666 39.325 39 30.5988 39 19.8249C39 9.05108 30.2739 0.324951 19.5 0.324951C8.7334 0.324951 0 9.05108 0 19.8249C0 30.5915 8.72616 39.325 19.5 39.325V37.668C14.5725 37.668 10.1154 35.671 6.88832 32.4439C3.66123 29.2168 1.6642 24.7596 1.6642 19.8322C1.6642 14.9047 3.66123 10.4476 6.88832 7.22048C10.1226 3.99339 14.5725 1.99638 19.5 1.99638C24.4275 1.99638 28.8846 3.99339 32.1117 7.22048C35.3388 10.4548 37.3358 14.9047 37.3358 19.8322C37.3358 24.7596 35.3388 29.2168 32.1117 32.4439C28.8846 35.671 24.4275 37.668 19.5 37.668V38.5001V38.4929Z" fill="white"/>
<path d="M27.2349 34.7086C27.0902 34.7086 26.9455 34.6435 26.8587 34.5133L22.0687 27.5888H16.9314L12.1414 34.5133C12.0111 34.7014 11.7651 34.7593 11.5625 34.658C11.3599 34.5567 11.2659 34.3179 11.3382 34.108L15.7158 21.547L16.6492 10.8817L16.6709 10.766L19.0659 4.05852C19.131 3.87762 19.3047 3.75463 19.4928 3.75463C19.6809 3.75463 19.8546 3.87762 19.9197 4.05852L22.3147 10.766L22.3364 10.8817L23.2698 21.547L27.6473 34.108C27.7197 34.3251 27.6256 34.5567 27.423 34.658C27.3579 34.6941 27.2856 34.7086 27.2204 34.7086H27.2349ZM17.5536 11.0192L16.6202 21.6845L16.5985 21.793L13.2991 31.2573L16.3308 26.8797C16.4176 26.7567 16.5551 26.6843 16.6998 26.6843H22.3147C22.4666 26.6843 22.6041 26.7567 22.6909 26.8797L25.7227 31.2573L22.4232 21.793L22.4015 21.6845L21.4681 11.0192L19.5217 5.56354L17.5681 11.0192H17.5536Z" fill="white"/>
<path d="M27.2349 34.7086V34.4988C27.1553 34.4988 27.083 34.4626 27.0323 34.3903L22.1772 27.3789H16.8228L11.9677 34.3903C11.9171 34.4626 11.8447 34.4988 11.7651 34.4988L11.6566 34.4698C11.5698 34.4264 11.5264 34.3396 11.5191 34.2528L11.5336 34.1732L15.9184 21.5904L16.859 10.9106L16.8807 10.8238L19.2685 4.13085C19.3047 4.03679 19.3987 3.97169 19.5 3.97169C19.6013 3.97169 19.6954 4.03679 19.7316 4.13085L22.1193 10.8238L22.1338 10.9106L23.0744 21.5904L27.4592 34.1732L27.4737 34.2528C27.4737 34.3396 27.423 34.4264 27.3434 34.4698L27.2349 34.4988V34.9112C27.3362 34.9112 27.4375 34.8895 27.5316 34.8389C27.7559 34.7231 27.8933 34.4915 27.8933 34.2528C27.8933 34.1804 27.8789 34.1081 27.8572 34.0357L23.4868 21.4964L22.5534 10.8455L22.5245 10.7225V10.7081L20.1223 3.98618C20.0282 3.72569 19.7822 3.54477 19.5 3.54477C19.2178 3.54477 18.9718 3.71846 18.8777 3.98618L16.4755 10.7081L16.4466 10.8311V10.8455L15.506 21.4964L11.1356 34.0357C11.1139 34.1081 11.0994 34.1804 11.0994 34.2528C11.0994 34.4915 11.2369 34.7231 11.4612 34.8389C11.5553 34.8895 11.6638 34.9112 11.7651 34.9112C11.975 34.9112 12.1776 34.8099 12.3078 34.629L17.0399 27.7986H21.9601L26.6922 34.629C26.8225 34.8099 27.0251 34.9112 27.2349 34.9112V34.7014V34.7086ZM17.5536 11.0192L17.351 10.9975L16.4176 21.6483L16.3959 21.7351L12.5972 32.632L16.4972 26.9955C16.5406 26.9303 16.6202 26.8869 16.6998 26.8869H22.3147C22.3943 26.8869 22.4666 26.9303 22.5173 26.9955L26.4173 32.632L22.6186 21.7351L22.5969 21.6483L21.6562 10.9685L19.5073 4.94124L17.351 10.9685V10.9975L17.5536 11.0192L17.749 11.0915L19.5073 6.17855L21.251 11.0626L22.1844 21.7135L22.2134 21.8365V21.8509L25.0208 29.8897L22.8573 26.7639C22.7343 26.5903 22.5317 26.4817 22.3147 26.4817H16.6998C16.4828 26.4817 16.2802 26.5903 16.1572 26.7639L13.9937 29.8897L16.7939 21.8509L16.8228 21.7279V21.7135L17.7635 11.0337L17.5536 11.0192Z" fill="white"/>
<path d="M24.1019 27.3934H14.9416C14.7679 27.3934 14.6087 27.2704 14.5653 27.0968C14.5147 26.9159 14.587 26.7277 14.7317 26.6264L18.7909 23.8913L16.4032 22.2778H16.3959L16.3019 22.1765L16.244 22.0535L16.2367 22.0101V21.945H16.2295L16.2367 21.8365V21.8075L16.2946 21.6772L16.3815 21.5832L18.8054 19.8539L16.7071 18.3634C16.5623 18.2621 16.4972 18.0739 16.5479 17.9003C16.5985 17.7266 16.7505 17.6036 16.9241 17.6036H22.0904C22.264 17.6036 22.416 17.7194 22.4666 17.9003C22.5173 18.0739 22.4521 18.2621 22.3074 18.3634L20.2091 19.8539L22.633 21.576L22.7271 21.6772L22.785 21.8003V21.8292L22.7995 21.945V21.9884L22.785 22.0463L22.7271 22.1621L22.6258 22.2633L20.238 23.8769L24.2972 26.6119C24.4419 26.7132 24.5143 26.9014 24.4636 27.0823C24.413 27.2559 24.2611 27.3789 24.0874 27.3789L24.1019 27.3934ZM16.2874 26.5613H22.7488L19.5217 24.3834L16.2946 26.5613H16.2874ZM17.9588 22.343L19.5217 23.3921L21.0774 22.343H17.9588ZM21.1353 21.5108L19.5145 20.3604L17.8937 21.5108H21.1353ZM18.2265 18.4357L19.5217 19.3546L20.8169 18.4357H18.2265Z" fill="white"/>
<path d="M29.2898 17.8424H9.71745C9.50038 17.8424 9.31949 17.6904 9.27607 17.4806C9.23266 17.2708 9.34843 17.0609 9.54379 16.9741L16.6275 13.9641L16.8084 13.9279H22.2061L22.3798 13.9641L29.4707 16.9741C29.6661 17.0609 29.7818 17.2708 29.7384 17.4806C29.695 17.6904 29.5141 17.8424 29.2971 17.8424H29.2898ZM11.9388 16.9379H27.0612L22.1048 14.8324H16.8952L11.9388 16.9379Z" fill="white"/>
<path d="M29.2898 17.8424L29.2898 17.6326H9.71745C9.60168 17.6326 9.50038 17.553 9.47867 17.4372V17.3865C9.47867 17.2925 9.52932 17.1984 9.62339 17.1622L16.6926 14.1595L16.8301 14.1305H22.1844L22.3219 14.1595L29.3911 17.1622C29.4852 17.1984 29.5431 17.2925 29.5431 17.3865V17.4372C29.5141 17.553 29.4128 17.6326 29.2971 17.6326V18.045C29.6082 18.045 29.8831 17.8207 29.941 17.5168L29.9555 17.3865C29.9555 17.126 29.8035 16.8873 29.5503 16.7788L22.4449 13.7615L22.2496 13.7253H16.7867L16.5913 13.7615H16.5696L9.4642 16.786C9.21819 16.8873 9.05901 17.1333 9.05901 17.3938L9.07348 17.524C9.1386 17.8279 9.40632 18.0522 9.72468 18.0522H29.2971L29.2971 17.8424H29.2898ZM11.9388 16.9379L11.9388 17.1478H28.0815L22.1483 14.6298H16.8518L10.9186 17.1478H11.9388L11.9388 16.9379L12.0184 17.1261L16.9314 15.0349H22.0614L26.041 16.7281H11.9388L11.9388 16.9379Z" fill="white"/>
<path d="M29.2898 11.3737H9.71745C9.50038 11.3737 9.30501 11.2146 9.26883 10.9975C9.23265 10.7804 9.35566 10.5706 9.56549 10.491L18.0312 7.48095L18.1831 7.45203H20.8241L20.9761 7.48095L29.4418 10.491C29.6516 10.5634 29.7746 10.7804 29.7384 10.9975C29.7022 11.2146 29.5141 11.3737 29.2898 11.3737ZM12.344 10.4693H26.6633L20.7445 8.36372H18.2627L12.344 10.4693Z" fill="white"/>
<path d="M29.2898 11.3737L29.2898 11.1639H9.71745C9.59445 11.1639 9.49314 11.0771 9.47143 10.9613V10.9179C9.47143 10.8166 9.52932 10.7225 9.63062 10.6863L18.0818 7.68357L18.1976 7.66184H20.8024L20.9182 7.68357L29.3694 10.6863C29.4707 10.7225 29.5358 10.8166 29.5358 10.9179V10.9613C29.5141 11.0771 29.4128 11.1639 29.2898 11.1639V11.5763C29.6154 11.5763 29.8904 11.3448 29.941 11.0264V10.9179C29.9483 10.6429 29.7818 10.3897 29.5141 10.2956L21.034 7.27838L20.8675 7.24941H18.1759L18.0095 7.27838H17.995L9.50761 10.2956C9.23989 10.3897 9.06624 10.6429 9.06624 10.9179V11.0337C9.13136 11.352 9.40632 11.5836 9.72468 11.5836H29.2971V11.3737H29.2898ZM12.344 10.4693L12.344 10.6791H27.8716L20.788 8.1611H18.2338L11.1501 10.6791H12.3512V10.4693L12.4236 10.6646L18.3134 8.57354H20.7228L25.4766 10.2667H12.3585V10.4765L12.344 10.4693Z" fill="white"/>
<path d="M28.3926 12.3722H29.3839V12.9511H28.3926V12.3722ZM9.62339 12.3722H10.6147V12.9511H9.62339V12.3722ZM9.62339 13.3997H10.6147V13.9786H9.62339V13.3997ZM28.3926 13.3997H29.3839V13.9786H28.3926V13.3997Z" fill="white"/>
<path d="M28.3926 12.3722V12.4736H29.2826V12.8498H28.4939V12.3722H28.3926H28.2913V13.0596H29.4924V12.2709H28.2913V12.3722H28.3926ZM9.62339 12.3722V12.4736H10.5134V12.8498H9.73192V12.3722H9.63062H9.52932V13.0596H10.7304V12.2709H9.52932V12.3722H9.63062H9.62339ZM9.62339 13.3997V13.501H10.5134V13.8773H9.73192V13.3997H9.63062H9.52932V14.0871H10.7304V13.2984H9.52932V13.3997H9.63062H9.62339ZM28.3926 13.3997V13.501H29.2826V13.8773H28.4939V13.3997H28.3926H28.2913V14.0871H29.4924V13.2984H28.2913V13.3997H28.3926Z" fill="white"/>
<path d="M28.3926 18.812H29.3839V19.3908H28.3926V18.812ZM9.62339 18.812H10.6147V19.3908H9.62339V18.812ZM9.62339 19.8394H10.6147V20.4183H9.62339V19.8394ZM28.3926 19.8394H29.3839V20.4183H28.3926V19.8394Z" fill="white"/>
<path d="M28.3926 18.812V18.9132H29.2826V19.2895H28.4939V18.812H28.3926H28.2913V19.4994H29.4924V18.7107H28.2913V18.812H28.3926ZM9.62339 18.812V18.9132H10.5134V19.2895H9.73192V18.812H9.63062H9.52932V19.4994H10.7304V18.7107H9.52932V18.812H9.63062H9.62339ZM9.62339 19.8394V19.9407H10.5134V20.3169H9.73192V19.8394H9.63062H9.52932V20.5268H10.7304V19.7381H9.52932V19.8394H9.63062H9.62339ZM28.3926 19.8394V19.9407H29.2826V20.3169H28.4939V19.8394H28.3926H28.2913V20.5268H29.4924V19.7381H28.2913V19.8394H28.3926Z" fill="white"/>
<path d="M11.9898 51.4949V55.585C11.4798 55.965 10.9298 56.245 10.3498 56.415C9.76981 56.585 9.14981 56.6749 8.47981 56.6749C7.64981 56.6749 6.90981 56.545 6.23981 56.285C5.56981 56.025 4.9998 55.675 4.5298 55.215C4.0598 54.755 3.68981 54.215 3.42981 53.575C3.16981 52.945 3.0498 52.2449 3.0498 51.4949C3.0498 50.7449 3.1698 50.035 3.4198 49.405C3.6698 48.775 4.0198 48.225 4.4698 47.765C4.9198 47.305 5.47981 46.955 6.12981 46.705C6.77981 46.455 7.5098 46.325 8.3098 46.325C8.7198 46.325 9.09981 46.3549 9.45981 46.4249C9.81981 46.4949 10.1498 46.5849 10.4498 46.6949C10.7498 46.8049 11.0298 46.9449 11.2898 47.1149C11.5398 47.2749 11.7698 47.455 11.9798 47.655L11.4398 48.5049C11.3598 48.6349 11.2498 48.7249 11.1098 48.7549C10.9798 48.7849 10.8298 48.755 10.6698 48.655C10.5198 48.565 10.3598 48.4749 10.2098 48.3849C10.0598 48.2949 9.87981 48.215 9.69981 48.155C9.50981 48.085 9.2998 48.0349 9.0598 47.9949C8.8198 47.9549 8.54981 47.9349 8.23981 47.9349C7.73981 47.9349 7.2898 48.0149 6.8898 48.1849C6.4898 48.3549 6.1398 48.595 5.8598 48.905C5.5798 49.215 5.35981 49.595 5.19981 50.035C5.04981 50.475 4.9698 50.9649 4.9698 51.5049C4.9698 52.0849 5.0498 52.5949 5.2198 53.0549C5.3898 53.5149 5.6198 53.895 5.9198 54.215C6.2198 54.535 6.57981 54.7749 7.00981 54.9349C7.42981 55.1049 7.90981 55.1849 8.42981 55.1849C8.79981 55.1849 9.13981 55.1449 9.42981 55.0649C9.71981 54.9849 10.0098 54.8749 10.2898 54.7449V52.915H9.01981C8.89981 52.915 8.79981 52.8849 8.73981 52.8149C8.66981 52.7449 8.6398 52.6649 8.6398 52.5649V51.5049H11.9998L11.9898 51.4949Z" fill="white"/>
<path d="M21.7098 56.5649H20.0098C19.6898 56.5649 19.4498 56.4349 19.3098 56.1849L17.1798 52.9449C17.0998 52.8249 17.0098 52.7349 16.9198 52.6849C16.8298 52.6349 16.6798 52.605 16.4998 52.605H15.6898V56.5649H13.8098V46.4449H16.8998C17.5898 46.4449 18.1798 46.515 18.6698 46.655C19.1598 46.795 19.5698 46.9949 19.8798 47.2549C20.1998 47.5149 20.4298 47.8149 20.5798 48.1749C20.7298 48.5349 20.7998 48.925 20.7998 49.355C20.7998 49.695 20.7498 50.015 20.6498 50.325C20.5498 50.625 20.3998 50.905 20.2198 51.155C20.0298 51.405 19.7998 51.6149 19.5198 51.8049C19.2398 51.9949 18.9298 52.1349 18.5698 52.2449C18.6898 52.3149 18.7998 52.3949 18.9098 52.4949C19.0198 52.5949 19.1098 52.705 19.1898 52.835L21.7198 56.575L21.7098 56.5649ZM16.8598 51.265C17.2198 51.265 17.5198 51.2249 17.7898 51.1349C18.0498 51.0449 18.2698 50.925 18.4398 50.765C18.6098 50.605 18.7398 50.425 18.8198 50.205C18.8998 49.995 18.9498 49.7549 18.9498 49.4949C18.9498 48.9849 18.7798 48.5849 18.4398 48.3149C18.0998 48.0349 17.5798 47.905 16.8898 47.905H15.6898V51.265H16.8698H16.8598Z" fill="white"/>
<path d="M24.6998 56.5649H22.8098V46.4449H24.6998V56.5649Z" fill="white"/>
<path d="M35.9498 51.5049C35.9498 52.2449 35.8298 52.925 35.5798 53.545C35.3298 54.165 34.9898 54.695 34.5398 55.145C34.0898 55.595 33.5498 55.9449 32.9198 56.1849C32.2898 56.4249 31.5898 56.5549 30.8198 56.5549H26.9598V46.4349H30.8198C31.5898 46.4349 32.2898 46.5549 32.9198 46.8149C33.5498 47.0649 34.0898 47.415 34.5398 47.855C34.9898 48.305 35.3398 48.835 35.5798 49.455C35.8298 50.075 35.9498 50.7549 35.9498 51.4949V51.5049ZM34.0098 51.5049C34.0098 50.9449 33.9398 50.4549 33.7898 50.0049C33.6398 49.5649 33.4298 49.1949 33.1498 48.8849C32.8698 48.5749 32.5398 48.3449 32.1398 48.1849C31.7398 48.0249 31.2998 47.9349 30.8098 47.9349H28.8398V55.0649H30.8098C31.2998 55.0649 31.7498 54.9849 32.1398 54.8149C32.5298 54.6449 32.8698 54.4149 33.1498 54.1149C33.4298 53.8049 33.6398 53.4349 33.7898 52.9949C33.9398 52.5549 34.0098 52.0549 34.0098 51.5049Z" fill="white"/>
</svg>
