<svg width="79" height="59" viewBox="0 0 79 59" fill="none" xmlns="http://www.w3.org/2000/svg">
<path d="M39.5002 39.825C50.2717 39.825 58.9966 31.0927 58.9966 20.3213C58.9966 9.54989 50.2644 0.824951 39.5002 0.824951C28.7288 0.824951 20.0039 9.55718 20.0039 20.3213C20.0039 31.0855 28.7361 39.8177 39.5002 39.825V38.1353C34.577 38.1353 30.1344 36.1471 26.9081 32.9207C23.6818 29.6944 21.6935 25.2446 21.6935 20.3286C21.6935 15.4126 23.6891 10.9628 26.9081 7.73645C30.1344 4.51012 34.5843 2.52188 39.5002 2.52188C44.4162 2.52188 48.8661 4.5174 52.0924 7.73645C55.3187 10.9628 57.307 15.4126 57.307 20.3286C57.307 25.2518 55.3115 29.6944 52.0924 32.9207C48.8661 36.1471 44.4162 38.1353 39.5002 38.1353V39.825Z" fill="#9858C9"/>
<path d="M35.1742 29.2866C37.7087 29.2866 39.7552 27.2328 39.7552 24.7056C39.7552 22.1712 37.7014 20.1247 35.1742 20.1247C32.6397 20.1247 30.5933 22.1785 30.5933 24.7056C30.5933 27.2401 32.647 29.2866 35.1742 29.2866V27.5969C34.3731 27.5969 33.6521 27.2765 33.1277 26.7521C32.6033 26.2277 32.2829 25.5067 32.2756 24.7056C32.2756 23.9045 32.5961 23.1835 33.1277 22.6591C33.6521 22.1348 34.3731 21.8143 35.1742 21.807C35.9753 21.807 36.6963 22.1275 37.2207 22.6591C37.7451 23.1835 38.0655 23.9045 38.0655 24.7056C38.0655 25.5067 37.7451 26.2277 37.2207 26.7521C36.6963 27.2765 35.9753 27.5969 35.1742 27.5969V29.2866Z" fill="#9858C9"/>
<path d="M44.9479 20.5325C47.4823 20.5325 49.5288 18.4787 49.5288 15.9516C49.5288 13.4171 47.475 11.3706 44.9479 11.3706C42.4207 11.3706 40.3669 13.4244 40.3669 15.9516C40.3669 18.486 42.4207 20.5325 44.9479 20.5325V18.8429C44.1468 18.8429 43.4257 18.5224 42.9014 17.9908C42.377 17.4664 42.0566 16.7454 42.0566 15.9443C42.0566 15.1432 42.377 14.4222 42.9014 13.8978C43.4257 13.3734 44.1468 13.053 44.9479 13.053C45.749 13.053 46.47 13.3734 46.9944 13.8978C47.5187 14.4222 47.8392 15.1432 47.8392 15.9443C47.8392 16.7454 47.5187 17.4664 46.9944 17.9908C46.47 18.5151 45.749 18.8356 44.9479 18.8429V20.5325Z" fill="#9858C9"/>
<path d="M38.7865 22.5062L42.6101 18.9157L41.4594 17.6849L37.6285 21.2754" fill="#9858C9"/>
<path d="M9.24973 47.9447V58.0647H7.35973V53.6447H2.60973V58.0647H0.719727V47.9447H2.60973V52.2947H7.35973V47.9447H9.24973Z" fill="#9858C9"/>
<path d="M15.8497 54.1447V58.0647H13.9697V54.1447L10.2797 47.9447H11.9397C12.0997 47.9447 12.2297 47.9847 12.3297 48.0647C12.4297 48.1447 12.5097 48.2447 12.5697 48.3647L14.4197 51.7447C14.5297 51.9447 14.6197 52.1347 14.6997 52.3147C14.7797 52.4947 14.8597 52.6647 14.9197 52.8447C14.9797 52.6647 15.0497 52.4947 15.1297 52.3147C15.2097 52.1347 15.2997 51.9447 15.3997 51.7447L17.2397 48.3647C17.2897 48.2647 17.3697 48.1647 17.4697 48.0747C17.5697 47.9847 17.6997 47.9447 17.8597 47.9447H19.5297L15.8397 54.1447H15.8497Z" fill="#9858C9"/>
<path d="M29.5597 53.0047C29.5597 53.7447 29.4397 54.4247 29.1897 55.0447C28.9397 55.6647 28.5997 56.1947 28.1497 56.6447C27.6997 57.0947 27.1597 57.4447 26.5297 57.6847C25.8997 57.9247 25.1997 58.0547 24.4297 58.0547H20.5697V47.9347H24.4297C25.1997 47.9347 25.8997 48.0547 26.5297 48.3147C27.1597 48.5647 27.6997 48.9147 28.1497 49.3547C28.5997 49.8047 28.9497 50.3347 29.1897 50.9547C29.4397 51.5747 29.5597 52.2547 29.5597 52.9947V53.0047ZM27.6297 53.0047C27.6297 52.4447 27.5597 51.9547 27.4097 51.5047C27.2597 51.0647 27.0497 50.6947 26.7697 50.3847C26.4897 50.0747 26.1597 49.8447 25.7597 49.6847C25.3597 49.5247 24.9197 49.4347 24.4297 49.4347H22.4597V56.5647H24.4297C24.9197 56.5647 25.3697 56.4847 25.7597 56.3147C26.1497 56.1447 26.4897 55.9147 26.7697 55.6147C27.0497 55.3047 27.2597 54.9347 27.4097 54.4947C27.5597 54.0547 27.6297 53.5547 27.6297 53.0047Z" fill="#9858C9"/>
<path d="M39.1197 58.0647H37.4197C37.0997 58.0647 36.8597 57.9347 36.7197 57.6847L34.5897 54.4447C34.5097 54.3247 34.4197 54.2347 34.3297 54.1847C34.2397 54.1347 34.0897 54.1047 33.9097 54.1047H33.0997V58.0647H31.2197V47.9447H34.3097C34.9997 47.9447 35.5897 48.0147 36.0797 48.1547C36.5697 48.2947 36.9797 48.4947 37.2897 48.7547C37.6097 49.0147 37.8397 49.3147 37.9897 49.6747C38.1397 50.0347 38.2097 50.4247 38.2097 50.8547C38.2097 51.1947 38.1597 51.5147 38.0597 51.8247C37.9597 52.1247 37.8097 52.4047 37.6297 52.6547C37.4397 52.9047 37.2097 53.1147 36.9297 53.3047C36.6497 53.4947 36.3397 53.6347 35.9797 53.7447C36.0997 53.8147 36.2097 53.8947 36.3197 53.9947C36.4297 54.0947 36.5197 54.2047 36.5997 54.3347L39.1297 58.0747L39.1197 58.0647ZM34.2797 52.7647C34.6397 52.7647 34.9397 52.7247 35.2097 52.6347C35.4697 52.5447 35.6897 52.4247 35.8597 52.2647C36.0297 52.1047 36.1597 51.9247 36.2397 51.7047C36.3197 51.4947 36.3697 51.2547 36.3697 50.9947C36.3697 50.4847 36.1997 50.0847 35.8597 49.8147C35.5197 49.5347 34.9997 49.4047 34.3097 49.4047H33.1097V52.7647H34.2897H34.2797Z" fill="#9858C9"/>
<path d="M49.8797 53.0047C49.8797 53.7447 49.7597 54.4347 49.5097 55.0647C49.2697 55.6947 48.9197 56.2447 48.4697 56.7047C48.0197 57.1647 47.4797 57.5247 46.8497 57.7847C46.2197 58.0447 45.5197 58.1747 44.7497 58.1747C43.9797 58.1747 43.2897 58.0447 42.6597 57.7847C42.0297 57.5247 41.4897 57.1647 41.0397 56.7047C40.5897 56.2447 40.2397 55.6947 39.9897 55.0647C39.7397 54.4347 39.6197 53.7447 39.6197 53.0047C39.6197 52.2647 39.7397 51.5747 39.9897 50.9447C40.2397 50.3147 40.5897 49.7647 41.0397 49.3047C41.4897 48.8447 42.0297 48.4847 42.6597 48.2247C43.2897 47.9647 43.9897 47.8347 44.7497 47.8347C45.2597 47.8347 45.7497 47.8947 46.1997 48.0147C46.6497 48.1347 47.0697 48.3047 47.4497 48.5147C47.8297 48.7247 48.1697 48.9947 48.4697 49.3047C48.7697 49.6147 49.0297 49.9647 49.2397 50.3447C49.4497 50.7247 49.6097 51.1447 49.7197 51.5947C49.8297 52.0447 49.8897 52.5147 49.8897 53.0047H49.8797ZM47.9497 53.0047C47.9497 52.4447 47.8697 51.9547 47.7297 51.5047C47.5797 51.0647 47.3697 50.6847 47.0897 50.3847C46.8097 50.0747 46.4797 49.8447 46.0897 49.6747C45.6997 49.5047 45.2497 49.4247 44.7597 49.4247C44.2697 49.4247 43.8197 49.5047 43.4297 49.6747C43.0397 49.8447 42.6997 50.0747 42.4197 50.3847C42.1397 50.6947 41.9297 51.0647 41.7797 51.5047C41.6297 51.9447 41.5597 52.4447 41.5597 53.0047C41.5597 53.5647 41.6297 54.0547 41.7797 54.4947C41.9297 54.9347 42.1397 55.3047 42.4197 55.6147C42.6997 55.9247 43.0297 56.1547 43.4297 56.3147C43.8297 56.4747 44.2697 56.5647 44.7597 56.5647C45.2497 56.5647 45.6997 56.4847 46.0897 56.3147C46.4797 56.1447 46.8197 55.9147 47.0897 55.6147C47.3597 55.3147 47.5797 54.9347 47.7297 54.4947C47.8797 54.0547 47.9497 53.5547 47.9497 53.0047Z" fill="#9858C9"/>
<path d="M59.8785 52.9949V57.085C59.3685 57.465 58.8185 57.7449 58.2385 57.9149C57.6585 58.0849 57.0385 58.175 56.3685 58.175C55.5385 58.175 54.7985 58.0449 54.1285 57.7849C53.4585 57.5249 52.8885 57.1749 52.4185 56.7149C51.9485 56.2549 51.5785 55.715 51.3185 55.075C51.0585 54.445 50.9385 53.7449 50.9385 52.9949C50.9385 52.2449 51.0585 51.5349 51.3085 50.9049C51.5585 50.2749 51.9085 49.725 52.3585 49.265C52.8085 48.805 53.3685 48.455 54.0185 48.205C54.6685 47.955 55.3985 47.825 56.1985 47.825C56.6085 47.825 56.9885 47.855 57.3485 47.925C57.7085 47.995 58.0385 48.0849 58.3385 48.1949C58.6385 48.3049 58.9185 48.445 59.1785 48.615C59.4285 48.775 59.6585 48.9549 59.8685 49.1549L59.3285 50.0049C59.2485 50.1349 59.1385 50.2249 58.9985 50.2549C58.8685 50.2849 58.7185 50.2549 58.5585 50.1549C58.4085 50.0649 58.2485 49.9749 58.0985 49.8849C57.9485 49.7949 57.7685 49.7149 57.5885 49.6549C57.3985 49.5849 57.1885 49.5349 56.9485 49.4949C56.7085 49.4549 56.4385 49.4349 56.1285 49.4349C55.6285 49.4349 55.1785 49.5149 54.7785 49.6849C54.3785 49.8549 54.0285 50.0949 53.7485 50.4049C53.4685 50.7149 53.2485 51.0949 53.0885 51.5349C52.9385 51.9749 52.8585 52.4649 52.8585 53.0049C52.8585 53.5849 52.9385 54.095 53.1085 54.555C53.2785 55.015 53.5085 55.3949 53.8085 55.7149C54.1085 56.0349 54.4685 56.2749 54.8985 56.4349C55.3185 56.6049 55.7985 56.6849 56.3185 56.6849C56.6885 56.6849 57.0285 56.6449 57.3185 56.5649C57.6085 56.4849 57.8985 56.3749 58.1785 56.2449V54.4149H56.9085C56.7885 54.4149 56.6885 54.3849 56.6285 54.3149C56.5585 54.2449 56.5285 54.1649 56.5285 54.0649V53.0049H59.8885L59.8785 52.9949Z" fill="#9858C9"/>
<path d="M63.5894 49.4451V52.2551H67.1294V53.7051H63.5894V56.5651H68.0794V58.0651H61.6994V47.9451H68.0794V49.4451H63.5894Z" fill="#9858C9"/>
<path d="M78.2794 47.9451V58.0651H77.3094C77.1594 58.0651 77.0394 58.0451 76.9294 57.9951C76.8194 57.9451 76.7294 57.8651 76.6394 57.7451L71.3494 50.9951C71.3794 51.3051 71.3894 51.5851 71.3894 51.8451V58.0651H69.7294V47.9451H70.7194C70.7994 47.9451 70.8694 47.9451 70.9294 47.9551C70.9894 47.9651 71.0394 47.9751 71.0794 47.9951C71.1194 48.0151 71.1694 48.0451 71.2094 48.0851C71.2494 48.1251 71.2994 48.1751 71.3494 48.2451L76.6594 55.0251C76.6494 54.8651 76.6294 54.7051 76.6194 54.5451C76.6194 54.3851 76.6094 54.2351 76.6094 54.1051V47.9551H78.2694L78.2794 47.9451Z" fill="#9858C9"/>
</svg>
