<svg width="91" height="75" viewBox="0 0 91 75" fill="none" xmlns="http://www.w3.org/2000/svg">
<path d="M58.1693 18.2843H57.3299V14.9125H55.6513V18.2843H53.9726V14.9125H52.2939V18.2843H51.4546C50.9915 18.2843 50.6153 18.6606 50.6153 19.1309V22.5027C50.6153 24.507 52.019 26.2363 53.9726 26.6342V29.2535C53.9726 29.7166 53.5964 30.1001 53.1333 30.1001H38.0181C37.555 30.1001 37.1787 29.7238 37.1787 29.2535C37.1787 28.7832 37.555 28.407 38.0181 28.407H42.2147C43.604 28.407 44.7327 27.271 44.7327 25.8745C44.7327 24.478 43.604 23.342 42.2147 23.342H38.0181C37.555 23.342 37.1787 22.9658 37.1787 22.4954C37.1787 22.0251 37.555 21.6489 38.0181 21.6489H42.2147C43.604 21.6489 44.7327 20.5129 44.7327 19.1164V15.7446H45.572C47.4244 15.7446 48.9294 14.2324 48.9294 12.3728V9.84035H46.4114C45.5503 9.84035 44.7255 10.1732 44.1032 10.7737C43.2205 9.16019 41.5273 8.15445 39.6895 8.15445H37.1715V10.6869C37.1715 13.4799 39.429 15.7446 42.2075 15.7519H43.0468V19.1237C43.0468 19.5867 42.6706 19.9702 42.2075 19.9702H38.0108C36.6216 19.9702 35.4928 21.1062 35.4928 22.5027C35.4928 23.8992 36.6216 25.0352 38.0108 25.0352H42.2075C42.6706 25.0352 43.0468 25.4114 43.0468 25.8817C43.0468 26.352 42.6706 26.7283 42.2075 26.7283H38.0108C36.6216 26.7283 35.4928 27.8643 35.4928 29.2608C35.4928 30.6572 36.6216 31.7932 38.0108 31.7932H53.126C54.5153 31.7932 55.644 30.6572 55.644 29.2608V26.6415C57.5976 26.2363 59.0014 24.5142 59.0014 22.5099V19.1381C59.0014 18.675 58.6251 18.2915 58.162 18.2915L58.1693 18.2843ZM44.7327 13.2266C44.7327 12.2932 45.4852 11.5407 46.4114 11.5407H47.2507V12.3873C47.2507 13.3207 46.4982 14.0732 45.572 14.0732H44.7327V13.2266ZM42.2147 14.0659C40.3624 14.0659 38.8574 12.5537 38.8574 10.6941V9.84758H39.6967C41.549 9.84758 43.0541 11.3598 43.0541 13.2194V14.0659H42.2147ZM57.3299 22.5027C57.3299 23.8992 56.2012 25.0352 54.8119 25.0352C53.4227 25.0352 52.2939 23.8992 52.2939 22.5027V19.9702H57.3299V22.5027Z" fill="#FFCB06"/>
<path d="M45.4997 39.6149C56.2229 39.6149 64.9056 30.8815 64.9056 20.1149C64.9056 9.34832 56.2229 0.614929 45.4997 0.614929C34.7765 0.614929 26.0938 9.34832 26.0938 20.1149C26.0938 30.8815 34.7765 39.6149 45.4997 39.6149V37.7771C40.6446 37.7771 36.2598 35.8018 33.0834 32.6036C29.8997 29.4055 27.9388 24.999 27.9388 20.1149C27.9388 15.2309 29.9069 10.8244 33.0834 7.62625C36.267 4.4281 40.6518 2.45277 45.4997 2.45277C50.3476 2.45277 54.7324 4.4281 57.916 7.62625C61.0925 10.8244 63.0605 15.2309 63.0605 20.1149C63.0605 24.999 61.0925 29.4055 57.916 32.6036C54.7324 35.8018 50.3476 37.7699 45.4997 37.7771V39.6149Z" fill="#FFCB06"/>
<path d="M16.3398 47.7445C17.0198 47.7445 17.5998 47.8245 18.0998 47.9845C18.5998 48.1445 18.9998 48.3645 19.3298 48.6445C19.6498 48.9345 19.8898 49.2745 20.0498 49.6645C20.2098 50.0645 20.2798 50.4945 20.2798 50.9645C20.2798 51.4345 20.1998 51.9045 20.0398 52.3145C19.8798 52.7245 19.6298 53.0745 19.2998 53.3645C18.9698 53.6545 18.5598 53.8845 18.0698 54.0545C17.5798 54.2145 16.9998 54.3045 16.3398 54.3045H14.9298V57.8645H13.0498V47.7445H16.3398ZM16.3398 52.8345C16.6898 52.8345 16.9898 52.7945 17.2398 52.7045C17.4998 52.6145 17.7098 52.4945 17.8798 52.3345C18.0498 52.1745 18.1798 51.9745 18.2598 51.7445C18.3398 51.5145 18.3898 51.2545 18.3898 50.9745C18.3898 50.6945 18.3498 50.4545 18.2598 50.2445C18.1698 50.0345 18.0498 49.8345 17.8798 49.6845C17.7098 49.5345 17.4998 49.4145 17.2398 49.3345C16.9798 49.2545 16.6798 49.2145 16.3298 49.2145H14.9198V52.8445H16.3298L16.3398 52.8345Z" fill="#FFCB06"/>
<path d="M31.3698 52.8045C31.3698 53.5445 31.2498 54.2345 30.9998 54.8645C30.7598 55.4945 30.4098 56.0445 29.9598 56.5045C29.5098 56.9645 28.9698 57.3245 28.3398 57.5845C27.7098 57.8445 27.0098 57.9745 26.2398 57.9745C25.4698 57.9745 24.7798 57.8445 24.1498 57.5845C23.5198 57.3245 22.9798 56.9645 22.5298 56.5045C22.0798 56.0445 21.7298 55.4945 21.4798 54.8645C21.2298 54.2345 21.1098 53.5445 21.1098 52.8045C21.1098 52.0645 21.2298 51.3745 21.4798 50.7445C21.7298 50.1145 22.0798 49.5645 22.5298 49.1045C22.9798 48.6445 23.5198 48.2845 24.1498 48.0245C24.7798 47.7645 25.4798 47.6345 26.2398 47.6345C26.7498 47.6345 27.2398 47.6945 27.6898 47.8145C28.1398 47.9345 28.5598 48.1045 28.9398 48.3145C29.3198 48.5345 29.6598 48.7945 29.9598 49.1045C30.2598 49.4145 30.5198 49.7645 30.7298 50.1445C30.9398 50.5245 31.0998 50.9445 31.2098 51.3945C31.3198 51.8445 31.3798 52.3145 31.3798 52.8045H31.3698ZM29.4498 52.8045C29.4498 52.2445 29.3698 51.7545 29.2298 51.3145C29.0798 50.8745 28.8698 50.4945 28.5898 50.1945C28.3098 49.8845 27.9798 49.6545 27.5898 49.4845C27.1998 49.3245 26.7498 49.2445 26.2598 49.2445C25.7698 49.2445 25.3198 49.3245 24.9298 49.4845C24.5398 49.6445 24.1998 49.8845 23.9198 50.1945C23.6398 50.5045 23.4298 50.8745 23.2798 51.3145C23.1298 51.7545 23.0598 52.2545 23.0598 52.8045C23.0598 53.3545 23.1298 53.8545 23.2798 54.2945C23.4298 54.7345 23.6398 55.1045 23.9198 55.4145C24.1998 55.7245 24.5298 55.9545 24.9298 56.1145C25.3198 56.2745 25.7698 56.3645 26.2598 56.3645C26.7498 56.3645 27.1998 56.2845 27.5898 56.1145C27.9798 55.9545 28.3198 55.7145 28.5898 55.4145C28.8598 55.1145 29.0798 54.7345 29.2298 54.2945C29.3798 53.8545 29.4498 53.3545 29.4498 52.8045Z" fill="#FFCB06"/>
<path d="M46.4998 47.7445L43.3598 57.8645H41.6598L39.4498 50.9445C39.3898 50.7745 39.3298 50.5745 39.2798 50.3245C39.2498 50.4445 39.2198 50.5544 39.1998 50.6544C39.1698 50.7544 39.1398 50.8545 39.1098 50.9445L36.8798 57.8645H35.1698L32.0298 47.7445H33.6098C33.7698 47.7445 33.9098 47.7845 34.0198 47.8645C34.1298 47.9445 34.1998 48.0445 34.2398 48.1745L35.9598 54.2245C35.9998 54.3745 36.0298 54.5345 36.0698 54.7145C36.1098 54.8845 36.1398 55.0745 36.1798 55.2645C36.2198 55.0645 36.2598 54.8845 36.2998 54.7145C36.3398 54.5445 36.3898 54.3845 36.4398 54.2345L38.4298 48.1845C38.4698 48.0745 38.5398 47.9745 38.6498 47.8945C38.7598 47.8045 38.8898 47.7645 39.0498 47.7645H39.5998C39.7598 47.7645 39.8998 47.8045 39.9998 47.8845C40.0998 47.9645 40.1798 48.0645 40.2298 48.1945L42.2098 54.2445C42.3098 54.5345 42.3998 54.8645 42.4798 55.2445C42.5398 54.8745 42.6098 54.5445 42.6798 54.2445L44.3998 48.1945C44.4298 48.0745 44.4998 47.9745 44.6098 47.8945C44.7198 47.8145 44.8598 47.7645 45.0198 47.7645H46.4998V47.7445Z" fill="#FFCB06"/>
<path d="M49.6398 49.2445V52.0545H53.1798V53.5045H49.6398V56.3645H54.1298V57.8645H47.7498V47.7445H54.1298V49.2445H49.6398Z" fill="#FFCB06"/>
<path d="M63.6998 57.8645H61.9998C61.6798 57.8645 61.4398 57.7345 61.2998 57.4845L59.1698 54.2445C59.0898 54.1245 58.9998 54.0345 58.9098 53.9845C58.8198 53.9345 58.6698 53.9044 58.4898 53.9044H57.6798V57.8645H55.7998V47.7445H58.8898C59.5798 47.7445 60.1698 47.8145 60.6598 47.9545C61.1498 48.0945 61.5598 48.2945 61.8698 48.5545C62.1898 48.8145 62.4198 49.1145 62.5698 49.4745C62.7198 49.8345 62.7898 50.2244 62.7898 50.6544C62.7898 50.9944 62.7398 51.3145 62.6398 51.6245C62.5398 51.9245 62.3898 52.2045 62.2098 52.4545C62.0198 52.7045 61.7898 52.9145 61.5098 53.1045C61.2298 53.2945 60.9198 53.4345 60.5598 53.5445C60.6798 53.6145 60.7898 53.6945 60.8998 53.7945C60.9998 53.8945 61.0998 54.0045 61.1798 54.1345L63.7098 57.8745L63.6998 57.8645ZM58.8598 52.5645C59.2198 52.5645 59.5198 52.5245 59.7898 52.4345C60.0598 52.3445 60.2698 52.2245 60.4398 52.0645C60.6098 51.9045 60.7398 51.7245 60.8198 51.5045C60.8998 51.2945 60.9498 51.0545 60.9498 50.7945C60.9498 50.2845 60.7798 49.8845 60.4398 49.6145C60.0998 49.3345 59.5798 49.2045 58.8898 49.2045H57.6898V52.5645H58.8698H58.8598Z" fill="#FFCB06"/>
<path d="M77.1589 57.8649H75.4689C75.2889 57.8649 75.1489 57.8449 75.0389 57.8049C74.9289 57.7649 74.8089 57.6749 74.6889 57.5349L73.9889 56.8149C73.5489 57.1749 73.0489 57.4649 72.4989 57.6649C71.9489 57.8749 71.3489 57.9749 70.7089 57.9749C70.3189 57.9749 69.9389 57.9049 69.5689 57.7749C69.1889 57.6449 68.8589 57.4449 68.5689 57.1949C68.2789 56.9449 68.0389 56.6349 67.8589 56.2849C67.6789 55.9349 67.5889 55.5249 67.5889 55.0749C67.5889 54.7549 67.6389 54.4549 67.7389 54.1749C67.8389 53.8949 67.9889 53.6349 68.1689 53.3849C68.3489 53.1449 68.5689 52.9249 68.8189 52.7349C69.0689 52.5449 69.3489 52.3749 69.6489 52.2349C69.3989 51.8849 69.2189 51.5449 69.0989 51.2049C68.9889 50.8749 68.9289 50.5349 68.9289 50.2049C68.9289 49.8549 68.9889 49.5249 69.1189 49.2049C69.2489 48.8949 69.4289 48.6149 69.6789 48.3849C69.9189 48.1549 70.2189 47.9649 70.5789 47.8249C70.9389 47.6849 71.3389 47.6149 71.7789 47.6149C72.1889 47.6149 72.5589 47.6749 72.8789 47.8049C73.1989 47.9349 73.4789 48.0949 73.7089 48.3049C73.9389 48.5149 74.1189 48.7549 74.2589 49.0249C74.3889 49.2949 74.4689 49.5749 74.4889 49.8649L73.3889 50.0949C73.1789 50.1349 73.0289 50.0449 72.9389 49.8249C72.8989 49.7049 72.8389 49.5849 72.7789 49.4749C72.7089 49.3649 72.6289 49.2649 72.5389 49.1849C72.4489 49.1049 72.3389 49.0349 72.2089 48.9849C72.0789 48.9349 71.9389 48.9149 71.7789 48.9149C71.5789 48.9149 71.4089 48.9449 71.2489 49.0149C71.0989 49.0849 70.9689 49.1749 70.8589 49.2849C70.7589 49.3949 70.6789 49.5349 70.6189 49.6849C70.5589 49.8349 70.5389 49.9949 70.5389 50.1649C70.5389 50.3049 70.5489 50.4449 70.5789 50.5749C70.6089 50.7049 70.6589 50.8349 70.7189 50.9649C70.7789 51.0949 70.8689 51.2349 70.9689 51.3649C71.0789 51.5049 71.1989 51.6549 71.3589 51.8049L74.0489 54.5949C74.1989 54.3049 74.3289 53.9949 74.4189 53.6649C74.5089 53.3349 74.5689 53.0049 74.5989 52.6749C74.6089 52.5649 74.6489 52.4849 74.7089 52.4149C74.7689 52.3549 74.8589 52.3149 74.9589 52.3149H76.0389C76.0389 52.9349 75.9489 53.5149 75.7689 54.0749C75.5889 54.6349 75.3489 55.1549 75.0289 55.6249L77.1489 57.8249L77.1589 57.8649ZM70.4189 53.1349C70.0489 53.3749 69.7789 53.6549 69.5989 53.9549C69.4289 54.2649 69.3489 54.5849 69.3489 54.9349C69.3489 55.1949 69.3889 55.4249 69.4789 55.6249C69.5689 55.8349 69.6889 56.0049 69.8389 56.1449C69.9889 56.2849 70.1689 56.3949 70.3689 56.4749C70.5689 56.5549 70.7889 56.5949 71.0189 56.5949C71.4289 56.5949 71.8089 56.5349 72.1489 56.4049C72.4889 56.2749 72.7989 56.0949 73.0689 55.8649L70.4189 53.1249V53.1349Z" fill="#FFCB06"/>
<path d="M7.94983 74.2951H6.24982C5.92982 74.2951 5.6898 74.1651 5.5498 73.9151L3.41983 70.6751C3.33983 70.5551 3.24982 70.4651 3.15982 70.4151C3.06982 70.3651 2.91981 70.3351 2.73981 70.3351H1.92981V74.2951H0.0498047V64.1751H3.13983C3.82983 64.1751 4.41982 64.2451 4.90982 64.3851C5.39982 64.5251 5.80981 64.7251 6.11981 64.9851C6.43981 65.2451 6.66982 65.5451 6.81982 65.9051C6.96982 66.2651 7.03983 66.6551 7.03983 67.0851C7.03983 67.4251 6.98983 67.7451 6.88983 68.0551C6.78983 68.3551 6.63981 68.6351 6.45981 68.8851C6.26981 69.1351 6.03983 69.3451 5.75983 69.5351C5.47983 69.7251 5.16981 69.8651 4.80981 69.9751C4.92981 70.0451 5.03981 70.1251 5.14981 70.2251C5.24981 70.3251 5.34981 70.4351 5.42981 70.5651L7.95981 74.3051L7.94983 74.2951ZM3.10983 68.9951C3.46983 68.9951 3.76983 68.9551 4.03983 68.8651C4.30983 68.7751 4.51982 68.6551 4.68982 68.4951C4.85982 68.3351 4.98982 68.1551 5.06982 67.9351C5.14982 67.7251 5.19983 67.4851 5.19983 67.2251C5.19983 66.7151 5.02982 66.3151 4.68982 66.0451C4.34982 65.7651 3.82983 65.6351 3.13983 65.6351H1.93982V68.9951H3.11981H3.10983Z" fill="#FFCB06"/>
<path d="M10.9398 65.6751V68.4851H14.4798V69.9351H10.9398V72.7951H15.4298V74.2951H9.0498V64.1751H15.4298V65.6751H10.9398Z" fill="#FFCB06"/>
<path d="M25.6398 64.1751V74.2951H24.6698C24.5198 74.2951 24.3998 74.2751 24.2898 74.2251C24.1898 74.1751 24.0898 74.0951 23.9998 73.9751L18.7098 67.2251C18.7398 67.5351 18.7498 67.8151 18.7498 68.0751V74.2951H17.0898V64.1751H18.0798C18.1598 64.1751 18.2298 64.1751 18.2898 64.1851C18.3498 64.1851 18.3998 64.2051 18.4398 64.2251C18.4798 64.2451 18.5298 64.2751 18.5698 64.3151C18.6098 64.3551 18.6598 64.4051 18.7098 64.4751L24.0198 71.2551C24.0098 71.0951 23.9898 70.9351 23.9798 70.7751C23.9798 70.6151 23.9698 70.4651 23.9698 70.3351V64.1851H25.6298L25.6398 64.1751Z" fill="#FFCB06"/>
<path d="M29.7798 65.6751V68.4851H33.3198V69.9351H29.7798V72.7951H34.2698V74.2951H27.8898V64.1751H34.2698V65.6751H29.7798Z" fill="#FFCB06"/>
<path d="M49.4098 64.1751L46.2698 74.2951H44.5698L42.3598 67.3751C42.2998 67.2051 42.2398 67.0051 42.1898 66.7551C42.1598 66.8751 42.1298 66.9851 42.1098 67.0851C42.0798 67.1851 42.0498 67.2851 42.0198 67.3751L39.7898 74.2951H38.0798L34.9398 64.1751H36.5198C36.6798 64.1751 36.8198 64.2151 36.9298 64.2951C37.0398 64.3751 37.1098 64.4751 37.1498 64.6051L38.8698 70.6551C38.9098 70.8051 38.9398 70.9651 38.9798 71.1451C39.0198 71.3151 39.0498 71.5051 39.0898 71.6951C39.1298 71.4951 39.1698 71.3151 39.2098 71.1451C39.2498 70.9751 39.2998 70.8151 39.3498 70.6651L41.3398 64.6151C41.3798 64.5051 41.4498 64.4051 41.5598 64.3251C41.6698 64.2351 41.7998 64.1951 41.9598 64.1951H42.5098C42.6698 64.1951 42.8098 64.2351 42.9098 64.3151C43.0098 64.3951 43.0898 64.4951 43.1398 64.6251L45.1198 70.6751C45.2198 70.9651 45.3098 71.2951 45.3898 71.6751C45.4498 71.3051 45.5198 70.9751 45.5898 70.6751L47.3098 64.6251C47.3398 64.5051 47.4098 64.4051 47.5198 64.3251C47.6298 64.2451 47.7698 64.1951 47.9298 64.1951H49.4098V64.1751Z" fill="#FFCB06"/>
<path d="M59.3298 74.2951H57.8698C57.7098 74.2951 57.5698 74.2551 57.4698 74.1751C57.3698 74.0951 57.2898 73.9951 57.2398 73.8751L56.4798 71.8051H52.2898L51.5298 73.8751C51.4898 73.9851 51.4198 74.0851 51.3098 74.1651C51.1998 74.2551 51.0698 74.2951 50.9098 74.2951H49.4398L53.4198 64.1751H55.3398L59.3198 74.2951H59.3298ZM55.9998 70.4751L54.7698 67.1051C54.7098 66.9551 54.6498 66.7751 54.5798 66.5751C54.5098 66.3651 54.4498 66.1451 54.3798 65.9051C54.3198 66.1451 54.2598 66.3651 54.1898 66.5751C54.1198 66.7851 54.0598 66.9651 53.9998 67.1151L52.7698 70.4651H55.9898L55.9998 70.4751Z" fill="#FFCB06"/>
<path d="M63.8598 64.1751C64.5198 64.1751 65.0898 64.2351 65.5598 64.3651C66.0298 64.4951 66.4198 64.6751 66.7198 64.9051C67.0198 65.1351 67.2398 65.4251 67.3798 65.7551C67.5198 66.0851 67.5898 66.4551 67.5898 66.8751C67.5898 67.1151 67.5498 67.3451 67.4898 67.5551C67.4198 67.7751 67.3098 67.9751 67.1598 68.1651C67.0098 68.3551 66.8298 68.5251 66.5998 68.6751C66.3698 68.8251 66.0998 68.9551 65.7898 69.0651C67.1798 69.3751 67.8798 70.1251 67.8798 71.3151C67.8798 71.7451 67.7998 72.1451 67.6298 72.5051C67.4698 72.8651 67.2298 73.1851 66.9198 73.4451C66.6098 73.7051 66.2198 73.9151 65.7598 74.0651C65.2998 74.2151 64.7798 74.2851 64.1898 74.2851H60.3698V64.1651H63.8598V64.1751ZM62.2598 65.6351V68.5651H63.7598C64.3998 68.5651 64.8898 68.4451 65.2198 68.2151C65.5498 67.9851 65.7098 67.6151 65.7098 67.1051C65.7098 66.5951 65.5598 66.2051 65.2598 65.9751C64.9598 65.7451 64.4998 65.6351 63.8598 65.6351H62.2598ZM64.1598 72.8251C64.5098 72.8251 64.7998 72.7851 65.0398 72.6951C65.2798 72.6051 65.4698 72.4951 65.6098 72.3551C65.7498 72.2151 65.8598 72.0551 65.9198 71.8651C65.9798 71.6751 66.0098 71.4751 66.0098 71.2651C66.0098 71.0551 65.9798 70.8451 65.9098 70.6751C65.8398 70.4951 65.7298 70.3551 65.5798 70.2251C65.4298 70.1051 65.2398 70.0051 64.9998 69.9451C64.7598 69.8751 64.4798 69.8451 64.1498 69.8451H62.2498V72.8151H64.1498L64.1598 72.8251Z" fill="#FFCB06"/>
<path d="M75.5198 72.7451V74.2951H69.5898V64.1751H71.4698V72.7451H75.5198Z" fill="#FFCB06"/>
<path d="M78.7598 65.6751V68.4851H82.2998V69.9351H78.7598V72.7951H83.2498V74.2951H76.8698V64.1751H83.2498V65.6751H78.7598Z" fill="#FFCB06"/>
<path d="M90.3098 66.0151C90.2498 66.1151 90.1898 66.1851 90.1298 66.2251C90.0698 66.2651 89.9898 66.2951 89.8898 66.2951C89.7898 66.2951 89.6898 66.2551 89.5698 66.1851C89.4498 66.1151 89.3198 66.0351 89.1598 65.9451C88.9998 65.8551 88.8198 65.7751 88.5998 65.7051C88.3898 65.6351 88.1398 65.5951 87.8498 65.5951C87.5898 65.5951 87.3598 65.6251 87.1598 65.6851C86.9598 65.7451 86.7998 65.8351 86.6698 65.9451C86.5398 66.0551 86.4398 66.1951 86.3698 66.3451C86.2998 66.4951 86.2698 66.6751 86.2698 66.8551C86.2698 67.0951 86.3398 67.2951 86.4698 67.4451C86.5998 67.5951 86.7798 67.7351 86.9998 67.8551C87.2198 67.9651 87.4698 68.0651 87.7498 68.1551C88.0298 68.2451 88.3198 68.3351 88.6098 68.4351C88.8998 68.5351 89.1898 68.6551 89.4698 68.7851C89.7498 68.9151 89.9998 69.0851 90.2198 69.2851C90.4398 69.4851 90.6198 69.7351 90.7498 70.0351C90.8798 70.3351 90.9498 70.6851 90.9498 71.1051C90.9498 71.5651 90.8698 71.9951 90.7198 72.3851C90.5598 72.7851 90.3398 73.1351 90.0298 73.4251C89.7298 73.7251 89.3598 73.9551 88.9298 74.1251C88.4998 74.2951 87.9998 74.3851 87.4398 74.3851C87.1198 74.3851 86.7998 74.3551 86.4898 74.2951C86.1798 74.2351 85.8798 74.1451 85.5898 74.0251C85.2998 73.9051 85.0298 73.7651 84.7798 73.6051C84.5298 73.4451 84.2998 73.2551 84.1098 73.0551L84.6598 72.1551C84.7098 72.0851 84.7698 72.0351 84.8398 71.9951C84.9198 71.9551 84.9898 71.9251 85.0798 71.9251C85.1998 71.9251 85.3198 71.9751 85.4598 72.0651C85.5998 72.1551 85.7598 72.2651 85.9398 72.3851C86.1198 72.5051 86.3398 72.6051 86.5898 72.7051C86.8398 72.8051 87.1398 72.8451 87.4898 72.8451C88.0298 72.8451 88.4398 72.7151 88.7398 72.4651C89.0398 72.2151 89.1798 71.8451 89.1798 71.3651C89.1798 71.0951 89.1098 70.8851 88.9798 70.7151C88.8498 70.5451 88.6698 70.4051 88.4498 70.2951C88.2298 70.1851 87.9798 70.0851 87.6998 70.0051C87.4198 69.9251 87.1398 69.8351 86.8498 69.7451C86.5598 69.6551 86.2798 69.5351 85.9998 69.4051C85.7198 69.2751 85.4698 69.1051 85.2498 68.8951C85.0298 68.6851 84.8498 68.4251 84.7198 68.1051C84.5898 67.7851 84.5198 67.4051 84.5198 66.9351C84.5198 66.5651 84.5898 66.2051 84.7398 65.8551C84.8898 65.5051 85.0998 65.1951 85.3798 64.9251C85.6598 64.6551 86.0098 64.4351 86.4198 64.2751C86.8298 64.1151 87.2998 64.0251 87.8298 64.0251C88.4298 64.0251 88.9798 64.1151 89.4798 64.3051C89.9798 64.4951 90.4098 64.7551 90.7698 65.0851L90.2998 65.9751L90.3098 66.0151Z" fill="#FFCB06"/>
</svg>
