<svg width="174" height="40" viewBox="0 0 174 40" fill="none" xmlns="http://www.w3.org/2000/svg">
<g clip-path="url(#clip0_5961_21051)">
<path d="M16.6891 22.0776L14.8832 17.5485H4.71263L2.90669 22.0776H0L8.2041 1.65625H11.3573L19.5958 22.0776H16.6834H16.6891ZM9.79791 4.28775L5.44647 15.2782H14.115L9.79791 4.28775Z" fill="white"/>
<path d="M30.6443 14.1487V1.65625H33.1841V14.0857C33.1841 17.8179 35.2078 20.18 38.9688 20.18C42.7297 20.18 44.7535 17.8237 44.7535 14.0857V1.65625H47.2933V14.1201C47.2933 19.2053 44.507 22.4503 38.963 22.4503C33.4191 22.4503 30.6328 19.1767 30.6328 14.1545L30.6443 14.1487Z" fill="white"/>
<path d="M73.0796 22.0776L67.874 13.9653H63.8034V22.0776H61.2637V1.65625H69.4678C73.2058 1.65625 75.8659 4.04696 75.8659 7.81362C75.8659 11.5803 73.3548 13.5066 70.5685 13.7531L76.0781 22.0834H73.0739L73.0796 22.0776ZM73.2287 7.80789C73.2287 5.50891 71.5776 3.92083 69.1582 3.92083H63.7977V11.7293H69.1582C71.5776 11.7293 73.2287 10.1069 73.2287 7.80789Z" fill="white"/>
<path d="M139.859 22.0776L134.653 13.9653H130.583V22.0776H128.043V1.65625H136.247C139.985 1.65625 142.645 4.04696 142.645 7.81362C142.645 11.5803 140.134 13.5066 137.348 13.7531L142.857 22.0834H139.853L139.859 22.0776ZM140.014 7.80789C140.014 5.50891 138.363 3.92083 135.943 3.92083H130.583V11.7293H135.943C138.363 11.7293 140.014 10.1069 140.014 7.80789Z" fill="white"/>
<path d="M170.412 22.0776L168.606 17.5485H158.441L156.635 22.0776H153.729L161.933 1.65625H165.086L173.324 22.0776H170.412ZM163.526 4.28775L159.175 15.2782H167.843L163.526 4.28775Z" fill="white"/>
<path d="M27.8516 35.3984H30.8844V35.9947H28.5281V37.3133H30.8385V37.9095H28.5281V39.3199H30.8844V39.9161H27.8516V35.3984Z" fill="white"/>
<path d="M36.4675 36.4476V39.9161H35.791V35.3984H36.4905L38.95 38.7867V35.3984H39.6265V39.9161H38.9672L36.4675 36.4476Z" fill="white"/>
<path d="M44.6836 35.3984H47.7164V35.9947H45.3601V37.3133H47.6706V37.9095H45.3601V39.3199H47.7164V39.9161H44.6836V35.3984Z" fill="white"/>
<path d="M54.15 38.1733H53.3015V39.9161H52.625V35.3984H54.5284C55.3884 35.3984 55.9789 35.9546 55.9789 36.7859C55.9789 37.6172 55.4285 38.0299 54.8552 38.1045L56.0133 39.9104H55.2278L54.15 38.1675V38.1733ZM54.4367 35.9947H53.3015V37.577H54.4367C54.924 37.577 55.2737 37.2617 55.2737 36.7859C55.2737 36.31 54.924 35.9947 54.4367 35.9947Z" fill="white"/>
<path d="M63.0187 35.324C63.8672 35.324 64.429 35.7081 64.8074 36.2183L64.257 36.5337C63.999 36.1897 63.5461 35.9259 63.0187 35.9259C62.0784 35.9259 61.3733 36.6426 61.3733 37.6573C61.3733 38.6721 62.0784 39.4002 63.0187 39.4002C63.5175 39.4002 63.9474 39.1537 64.1653 38.953V38.1389H62.7148V37.5427H64.8418V39.1996C64.4061 39.6811 63.7869 39.9965 63.0187 39.9965C61.723 39.9965 60.6738 39.062 60.6738 37.6516C60.6738 36.2413 61.723 35.3125 63.0187 35.3125V35.324Z" fill="white"/>
<path d="M70.9885 38.0242L69.2227 35.3984H70.0024L71.3267 37.4165L72.6396 35.3984H73.425L71.665 38.0242V39.9104H70.9885V38.0242Z" fill="white"/>
<path d="M85.3551 38.1733H84.5066V39.9161H83.8301V35.3984H85.7335C86.5934 35.3984 87.184 35.9546 87.184 36.7859C87.184 37.6172 86.6336 38.0299 86.0603 38.1045L87.2184 39.9104H86.4329L85.3551 38.1675V38.1733ZM85.6475 35.9947H84.5123V37.577H85.6475C86.1348 37.577 86.4845 37.2617 86.4845 36.7859C86.4845 36.31 86.1348 35.9947 85.6475 35.9947Z" fill="white"/>
<path d="M92.0742 35.3984H95.107V35.9947H92.7507V37.3133H95.0612V37.9095H92.7507V39.3199H95.107V39.9161H92.0742V35.3984Z" fill="white"/>
<path d="M100.124 38.7586C100.428 39.0969 100.915 39.395 101.546 39.395C102.28 39.395 102.532 39.0223 102.532 38.6955C102.532 38.2197 102.016 38.0878 101.443 37.9388C100.72 37.7496 99.8777 37.5375 99.8777 36.6202C99.8777 35.8748 100.537 35.3359 101.477 35.3359C102.177 35.3359 102.721 35.5595 103.123 35.9666L102.733 36.4654C102.389 36.0984 101.913 35.9379 101.426 35.9379C100.938 35.9379 100.577 36.1959 100.577 36.5743C100.577 36.9813 101.064 37.1075 101.626 37.2508C102.366 37.4457 103.226 37.6751 103.226 38.6382C103.226 39.3434 102.739 39.997 101.517 39.997C100.709 39.997 100.124 39.7046 99.7344 39.2803L100.118 38.7586H100.124Z" fill="white"/>
<path d="M108.07 35.3984H111.103V35.9947H108.747V37.3133H111.057V37.9095H108.747V39.3199H111.103V39.9161H108.07V35.3984Z" fill="white"/>
<path d="M118.87 38.9816H116.657L116.29 39.9161H115.545L117.339 35.3984H118.188L119.982 39.9161H119.237L118.87 38.9816ZM116.852 38.3797H118.675L117.764 35.9889L116.858 38.3797H116.852Z" fill="white"/>
<path d="M126.105 38.1733H125.257V39.9161H124.58V35.3984H126.483C127.343 35.3984 127.934 35.9546 127.934 36.7859C127.934 37.6172 127.384 38.0299 126.81 38.1045L127.968 39.9104H127.183L126.105 38.1675V38.1733ZM126.392 35.9947H125.257V37.577H126.392C126.879 37.577 127.229 37.2617 127.229 36.7859C127.229 36.31 126.879 35.9947 126.392 35.9947Z" fill="white"/>
<path d="M132.637 37.6633C132.637 36.2759 133.669 35.3242 134.953 35.3242C135.842 35.3242 136.398 35.7485 136.747 36.2816L136.174 36.5855C135.939 36.2071 135.492 35.9262 134.953 35.9262C134.041 35.9262 133.336 36.6428 133.336 37.6576C133.336 38.6724 134.041 39.389 134.953 39.389C135.486 39.389 135.933 39.1138 136.174 38.7297L136.747 39.0336C136.386 39.561 135.842 39.991 134.953 39.991C133.669 39.991 132.637 39.045 132.637 37.6576V37.6633Z" fill="white"/>
<path d="M144.659 37.8981H142.159V39.9161H141.482V35.3984H142.159V37.2961H144.659V35.3984H145.335V39.9161H144.659V37.8981Z" fill="white"/>
<path d="M97.698 15.1185L92.9165 15.3306L99.8593 14.1955L94.453 11.0594L100.788 13.6279L99.0338 10.1077L101.516 13.347L101.854 6.25509L102.233 13.347L104.778 10.1077L102.961 13.6279L109.296 11.0709L103.89 14.2069L110.787 15.3765L106.183 15.1529C108.339 15.5428 110.345 16.2307 112.1 17.1767C113 15.5313 113.521 13.6451 113.521 11.6328C113.521 5.2174 108.316 0.0117188 101.9 0.0117188C95.485 0.0117188 90.2793 5.2174 90.2793 11.6328C90.2793 13.6336 90.7953 15.5141 91.6896 17.1538C93.4726 16.2021 95.5079 15.5084 97.7037 15.1242L97.698 15.1185Z" fill="#FFCC00"/>
<path d="M91.9759 17.6417C92.7326 17.2404 93.5353 16.8849 94.3895 16.5811C94.4067 16.5811 94.4182 16.5696 94.4354 16.5639C94.722 16.4607 95.0144 16.3632 95.3068 16.2772C97.3077 15.6695 99.5264 15.3313 101.865 15.3313C104.205 15.3313 106.446 15.6753 108.453 16.2887C108.751 16.3804 109.043 16.4779 109.33 16.5811C109.347 16.5811 109.359 16.5926 109.376 16.5983C110.236 16.9079 111.044 17.2633 111.801 17.6704C111.904 17.5041 111.996 17.3379 112.093 17.1716C110.339 16.2314 108.338 15.5434 106.177 15.1478L110.78 15.3714L103.884 14.2018L109.29 11.0658L102.955 13.6228L104.772 10.1027L102.227 13.3419L101.848 6.25L101.51 13.3419L99.0276 10.1027L100.782 13.6228L94.4468 11.0544L99.8532 14.1904L92.9104 15.3255L97.6918 15.1134C95.496 15.4975 93.4607 16.1912 91.6777 17.1429C91.7695 17.3149 91.8669 17.4812 91.9701 17.6417H91.9759Z" fill="#2C2C2C"/>
<path d="M114.789 19.7426C111.876 17.0653 107.175 15.3281 101.872 15.3281C96.5687 15.3281 91.8732 17.0653 88.9551 19.7426C90.1017 19.3184 91.3458 18.9572 92.6529 18.6476C94.7742 21.4339 98.1166 23.2398 101.889 23.2398C105.661 23.2398 108.998 21.4396 111.119 18.6591C112.415 18.9629 113.642 19.3241 114.783 19.7426H114.789Z" fill="white"/>
</g>
<defs>
<clipPath id="clip0_5961_21051">
<rect width="173.324" height="40" fill="white"/>
</clipPath>
</defs>
</svg>
