<svg width="20" height="12" viewBox="0 0 20 12" fill="none" xmlns="http://www.w3.org/2000/svg">
<g clip-path="url(#clip0_10308_88527)">
<path fill-rule="evenodd" clip-rule="evenodd" d="M1.30305 12H18.703C19.3801 11.8797 19.9111 11.3108 19.9988 10.5991V1.40086C19.9111 0.689151 19.3801 0.120288 18.703 0H1.30305C0.625951 0.120288 0.0949887 0.689151 0 1.39334V10.5991C0.0949887 11.3108 0.625951 11.8797 1.30305 12Z" fill="#FEFEFE"/>
<path fill-rule="evenodd" clip-rule="evenodd" d="M10.0024 2.39746C11.9314 2.39746 13.4975 4.01509 13.4975 6.00109C13.4975 7.9871 11.9326 9.60473 10.0024 9.60473C8.07219 9.60473 6.5 7.9871 6.5 6.00109C6.5 4.01509 8.07219 2.39746 10.0024 2.39746Z" fill="#B41119"/>
</g>
<defs>
<clipPath id="clip0_10308_88527">
<rect width="20" height="12" fill="white"/>
</clipPath>
</defs>
</svg>
