<svg width="174" height="41" viewBox="0 0 174 41" fill="none" xmlns="http://www.w3.org/2000/svg">
<g clip-path="url(#clip0_5575_103510)">
<path d="M16.6891 22.3276L14.8832 17.7985H4.71263L2.90669 22.3276H0L8.2041 1.90625H11.3573L19.5958 22.3276H16.6834H16.6891ZM9.79791 4.53775L5.44647 15.5282H14.115L9.79791 4.53775Z" fill="#3C3C3B"/>
<path d="M30.6443 14.3987V1.90625H33.1841V14.3357C33.1841 18.0679 35.2078 20.43 38.9688 20.43C42.7297 20.43 44.7535 18.0737 44.7535 14.3357V1.90625H47.2933V14.3701C47.2933 19.4553 44.507 22.7003 38.963 22.7003C33.4191 22.7003 30.6328 19.4267 30.6328 14.4045L30.6443 14.3987Z" fill="#3C3C3B"/>
<path d="M73.0796 22.3276L67.874 14.2153H63.8034V22.3276H61.2637V1.90625H69.4678C73.2058 1.90625 75.8659 4.29696 75.8659 8.06362C75.8659 11.8303 73.3548 13.7566 70.5685 14.0031L76.0781 22.3334H73.0739L73.0796 22.3276ZM73.2287 8.05789C73.2287 5.75891 71.5776 4.17083 69.1582 4.17083H63.7977V11.9793H69.1582C71.5776 11.9793 73.2287 10.3569 73.2287 8.05789Z" fill="#3C3C3B"/>
<path d="M139.859 22.3276L134.653 14.2153H130.583V22.3276H128.043V1.90625H136.247C139.985 1.90625 142.645 4.29696 142.645 8.06362C142.645 11.8303 140.134 13.7566 137.348 14.0031L142.857 22.3334H139.853L139.859 22.3276ZM140.014 8.05789C140.014 5.75891 138.363 4.17083 135.943 4.17083H130.583V11.9793H135.943C138.363 11.9793 140.014 10.3569 140.014 8.05789Z" fill="#3C3C3B"/>
<path d="M170.412 22.3276L168.606 17.7985H158.441L156.635 22.3276H153.729L161.933 1.90625H165.086L173.324 22.3276H170.412ZM163.526 4.53775L159.175 15.5282H167.843L163.526 4.53775Z" fill="#3C3C3B"/>
<path d="M27.8516 35.6445H30.8844V36.2408H28.5281V37.5594H30.8385V38.1556H28.5281V39.566H30.8844V40.1622H27.8516V35.6445Z" fill="#3C3C3B"/>
<path d="M36.4675 36.6937V40.1622H35.791V35.6445H36.4905L38.95 39.0328V35.6445H39.6265V40.1622H38.9672L36.4675 36.6937Z" fill="#3C3C3B"/>
<path d="M44.6836 35.6445H47.7164V36.2408H45.3601V37.5594H47.6706V38.1556H45.3601V39.566H47.7164V40.1622H44.6836V35.6445Z" fill="#3C3C3B"/>
<path d="M54.15 38.4194H53.3015V40.1622H52.625V35.6445H54.5284C55.3884 35.6445 55.9789 36.2006 55.9789 37.0319C55.9789 37.8633 55.4285 38.276 54.8552 38.3506L56.0133 40.1565H55.2278L54.15 38.4136V38.4194ZM54.4367 36.2408H53.3015V37.8231H54.4367C54.924 37.8231 55.2737 37.5078 55.2737 37.0319C55.2737 36.5561 54.924 36.2408 54.4367 36.2408Z" fill="#3C3C3B"/>
<path d="M63.0187 35.5701C63.8672 35.5701 64.429 35.9542 64.8074 36.4644L64.257 36.7797C63.999 36.4358 63.5461 36.172 63.0187 36.172C62.0784 36.172 61.3733 36.8887 61.3733 37.9034C61.3733 38.9182 62.0784 39.6463 63.0187 39.6463C63.5175 39.6463 63.9474 39.3998 64.1653 39.1991V38.385H62.7148V37.7888H64.8418V39.4457C64.4061 39.9272 63.7869 40.2426 63.0187 40.2426C61.723 40.2426 60.6738 39.3081 60.6738 37.8977C60.6738 36.4874 61.723 35.5586 63.0187 35.5586V35.5701Z" fill="#3C3C3B"/>
<path d="M70.9885 38.2703L69.2227 35.6445H70.0024L71.3267 37.6626L72.6396 35.6445H73.425L71.665 38.2703V40.1565H70.9885V38.2703Z" fill="#3C3C3B"/>
<path d="M85.3551 38.4194H84.5066V40.1622H83.8301V35.6445H85.7335C86.5934 35.6445 87.184 36.2006 87.184 37.0319C87.184 37.8633 86.6336 38.276 86.0603 38.3506L87.2184 40.1565H86.4329L85.3551 38.4136V38.4194ZM85.6475 36.2408H84.5123V37.8231H85.6475C86.1348 37.8231 86.4845 37.5078 86.4845 37.0319C86.4845 36.5561 86.1348 36.2408 85.6475 36.2408Z" fill="#3C3C3B"/>
<path d="M92.0742 35.6445H95.107V36.2408H92.7507V37.5594H95.0612V38.1556H92.7507V39.566H95.107V40.1622H92.0742V35.6445Z" fill="#3C3C3B"/>
<path d="M100.124 39.0047C100.428 39.343 100.915 39.6411 101.546 39.6411C102.28 39.6411 102.532 39.2684 102.532 38.9416C102.532 38.4658 102.016 38.3339 101.443 38.1849C100.72 37.9957 99.8777 37.7835 99.8777 36.8662C99.8777 36.1209 100.537 35.582 101.477 35.582C102.177 35.582 102.721 35.8056 103.123 36.2127L102.733 36.7115C102.389 36.3445 101.913 36.184 101.426 36.184C100.938 36.184 100.577 36.442 100.577 36.8204C100.577 37.2274 101.064 37.3536 101.626 37.4969C102.366 37.6918 103.226 37.9211 103.226 38.8843C103.226 39.5895 102.739 40.2431 101.517 40.2431C100.709 40.2431 100.124 39.9507 99.7344 39.5264L100.118 39.0047H100.124Z" fill="#3C3C3B"/>
<path d="M108.07 35.6445H111.103V36.2408H108.747V37.5594H111.057V38.1556H108.747V39.566H111.103V40.1622H108.07V35.6445Z" fill="#3C3C3B"/>
<path d="M118.87 39.2277H116.657L116.29 40.1622H115.545L117.339 35.6445H118.188L119.982 40.1622H119.237L118.87 39.2277ZM116.852 38.6258H118.675L117.764 36.235L116.858 38.6258H116.852Z" fill="#3C3C3B"/>
<path d="M126.105 38.4194H125.257V40.1622H124.58V35.6445H126.483C127.343 35.6445 127.934 36.2006 127.934 37.0319C127.934 37.8633 127.384 38.276 126.81 38.3506L127.968 40.1565H127.183L126.105 38.4136V38.4194ZM126.392 36.2408H125.257V37.8231H126.392C126.879 37.8231 127.229 37.5078 127.229 37.0319C127.229 36.5561 126.879 36.2408 126.392 36.2408Z" fill="#3C3C3B"/>
<path d="M132.637 37.9094C132.637 36.522 133.669 35.5703 134.953 35.5703C135.842 35.5703 136.398 35.9946 136.747 36.5277L136.174 36.8316C135.939 36.4532 135.492 36.1723 134.953 36.1723C134.041 36.1723 133.336 36.8889 133.336 37.9037C133.336 38.9185 134.041 39.6351 134.953 39.6351C135.486 39.6351 135.933 39.3599 136.174 38.9758L136.747 39.2796C136.386 39.8071 135.842 40.2371 134.953 40.2371C133.669 40.2371 132.637 39.2911 132.637 37.9037V37.9094Z" fill="#3C3C3B"/>
<path d="M144.659 38.1442H142.159V40.1622H141.482V35.6445H142.159V37.5422H144.659V35.6445H145.335V40.1622H144.659V38.1442Z" fill="#3C3C3B"/>
<path d="M97.698 15.3685L92.9165 15.5806L99.8593 14.4455L94.453 11.3094L100.788 13.8779L99.0338 10.3577L101.516 13.597L101.854 6.50509L102.233 13.597L104.778 10.3577L102.961 13.8779L109.296 11.3209L103.89 14.4569L110.787 15.6265L106.183 15.4029C108.339 15.7928 110.345 16.4807 112.1 17.4267C113 15.7813 113.521 13.8951 113.521 11.8828C113.521 5.4674 108.316 0.261719 101.9 0.261719C95.485 0.261719 90.2793 5.4674 90.2793 11.8828C90.2793 13.8836 90.7953 15.7641 91.6896 17.4038C93.4726 16.4521 95.5079 15.7584 97.7037 15.3742L97.698 15.3685Z" fill="#FFCC00"/>
<path d="M91.9759 17.8917C92.7326 17.4904 93.5353 17.1349 94.3895 16.8311C94.4067 16.8311 94.4182 16.8196 94.4354 16.8139C94.722 16.7107 95.0144 16.6132 95.3068 16.5272C97.3077 15.9195 99.5264 15.5813 101.865 15.5813C104.205 15.5813 106.446 15.9253 108.453 16.5387C108.751 16.6304 109.043 16.7279 109.33 16.8311C109.347 16.8311 109.359 16.8426 109.376 16.8483C110.236 17.1579 111.044 17.5133 111.801 17.9204C111.904 17.7541 111.996 17.5879 112.093 17.4216C110.339 16.4814 108.338 15.7934 106.177 15.3978L110.78 15.6214L103.884 14.4518L109.29 11.3158L102.955 13.8728L104.772 10.3527L102.227 13.5919L101.848 6.5L101.51 13.5919L99.0276 10.3527L100.782 13.8728L94.4468 11.3044L99.8532 14.4404L92.9104 15.5755L97.6918 15.3634C95.496 15.7475 93.4607 16.4412 91.6777 17.3929C91.7695 17.5649 91.8669 17.7312 91.9701 17.8917H91.9759Z" fill="white"/>
<path d="M114.789 19.9965C111.876 17.3192 107.175 15.582 101.872 15.582C96.5687 15.582 91.8732 17.3192 88.9551 19.9965C90.1017 19.5723 91.3458 19.2111 92.6529 18.9015C94.7742 21.6878 98.1166 23.4937 101.889 23.4937C105.661 23.4937 108.998 21.6935 111.119 18.913C112.415 19.2168 113.642 19.578 114.783 19.9965H114.789Z" fill="#3C3C3B"/>
</g>
<defs>
<clipPath id="clip0_5575_103510">
<rect width="173.324" height="40" fill="white" transform="translate(0 0.25)"/>
</clipPath>
</defs>
</svg>
