<svg width="70" height="66" viewBox="0 0 70 66" fill="none" xmlns="http://www.w3.org/2000/svg">
<path d="M36.2568 0.25C25.5683 0.25 16.9082 8.91014 16.9082 19.5986C16.9082 30.287 25.5683 38.9472 36.2568 38.9472C46.9452 38.9472 55.6054 30.287 55.6054 19.5986C55.6054 8.91014 46.9395 0.25 36.2568 0.25ZM28.8273 7.83333L33.7328 12.9724C34.502 13.7815 35.2312 14.6247 35.9149 15.5021L36.4562 16.1915C34.8894 16.0662 33.4479 17.0404 32.9807 18.5389L32.5876 17.8552C32.0065 16.8524 31.4823 15.8269 31.0037 14.7785L28.0866 8.3347C27.8587 7.86181 27.0497 5.99874 28.833 7.83333H28.8273ZM36.5417 23.6951C35.9662 24.6978 35.3395 25.6664 34.6672 26.6065L30.5479 32.3552C30.2517 32.7882 29.0438 34.4177 29.7389 31.9621L31.7387 25.1422C32.0521 24.0711 32.4167 23.0171 32.8383 21.9858L33.1688 21.1711C33.8411 22.5898 35.4079 23.3532 36.9348 23.0057L36.5417 23.6894V23.6951ZM37.4476 21.4218C36.4448 22.1112 35.0204 21.8491 34.388 20.7951C33.6929 19.8379 33.9778 18.4249 35.0147 17.7583C36.0631 17.086 37.3792 17.3538 38.0572 18.3964C38.7352 19.4277 38.456 20.7267 37.4476 21.4218ZM50.1814 19.1029L43.2761 20.7837C42.1936 21.0457 41.0996 21.2565 39.9943 21.4104L39.1226 21.53C40.0171 20.2367 39.8918 18.499 38.832 17.3481H39.6183C40.7749 17.3481 41.9258 17.3994 43.0767 17.5133L50.1187 18.2084C50.6429 18.2483 52.6598 18.4819 50.1814 19.1029Z" fill="#23AE84"/>
<path d="M30.4853 65.0059V53.7535L25.8305 65.0059H25.1354L20.5033 53.7535V65.0059H18.7998V51.332H21.2383L25.4829 61.6217L29.7446 51.332H32.1832V65.0059H30.4796H30.4853Z" fill="#23AE84"/>
<path d="M39.4873 59.6959V51.332H41.1908V59.656C41.1908 62.1572 42.5468 63.7354 45.0651 63.7354C47.5834 63.7354 48.9394 62.1572 48.9394 59.656V51.332H50.6429V59.6731C50.6429 63.0745 48.7799 65.2509 45.0651 65.2509C41.3504 65.2509 39.4873 63.0574 39.4873 59.6959Z" fill="#23AE84"/>
<path d="M67.6097 65.0059L59.6332 54.101V65.0059H57.9297V51.332H59.6731L67.547 62.0148V51.332H69.2505V65.0059H67.6097Z" fill="#23AE84"/>
<path d="M11.9969 65.0059L10.7891 61.9692H3.98061L2.77275 65.0059H0.824219L6.31658 51.332H8.43033L13.9455 65.0059H11.9969ZM7.382 53.0926L4.4706 60.4537H10.2706L7.382 53.0926Z" fill="#23AE84"/>
</svg>
