<svg width="121" height="65" viewBox="0 0 121 65" fill="none" xmlns="http://www.w3.org/2000/svg">
<g clip-path="url(#clip0_9455_972)">
<path d="M62.0102 15.3643L57.1699 21.8314H60.1517L57.9747 27.077L63.2203 20.2045H60.2385L62.0102 15.3643Z" fill="#21B5EA"/>
<path d="M56.006 31.4938C54.628 31.4938 53.5048 30.3705 53.5048 28.9926V13.9681C53.5048 12.5901 54.628 11.4669 56.006 11.4669H64.9686C66.3466 11.4669 67.4698 12.5901 67.4698 13.9681V28.9926C67.4698 30.3705 66.3466 31.4938 64.9686 31.4938H56.006ZM57.1234 10.4884V9.00045H63.857V10.4884H57.1234ZM60.4873 0.75C49.7183 0.75 40.9873 9.481 40.9873 20.25C40.9873 31.019 49.7183 39.75 60.4873 39.75C71.2563 39.75 79.9873 31.019 79.9873 20.25C79.9873 9.481 71.2563 0.75 60.4873 0.75Z" fill="#21B5EA"/>
<path d="M15.1679 64.2429C14.5092 64.5752 13.1916 64.9017 11.5016 64.9017C7.5832 64.9017 4.63867 62.4269 4.63867 57.8727C4.63867 53.3184 7.58893 50.5743 11.8969 50.5743C13.6269 50.5743 14.7211 50.9467 15.1966 51.193L14.7612 52.6538C14.0795 52.3216 13.1114 52.0752 11.9599 52.0752C8.70029 52.0752 6.54059 54.1548 6.54059 57.8039C6.54059 61.2067 8.49979 63.3894 11.8797 63.3894C12.9739 63.3894 14.0852 63.1602 14.807 62.8108L15.1794 64.2315L15.1679 64.2429Z" fill="#21B5EA"/>
<path d="M23.3253 50.8027V56.6173H30.045V50.8027H31.861V64.6947H30.045V58.1812H23.3253V64.6947H21.5322V50.8027H23.3253Z" fill="#21B5EA"/>
<path d="M39.0967 50.9931C40.0018 50.8098 41.3022 50.7067 42.5396 50.7067C44.4587 50.7067 45.6904 51.0561 46.5611 51.8409C47.26 52.4596 47.6553 53.4049 47.6553 54.4819C47.6553 56.315 46.4981 57.5295 45.0373 58.0279V58.0909C46.1086 58.4633 46.7502 59.4543 47.0767 60.8922C47.5293 62.8285 47.8615 64.169 48.148 64.7075H46.2919C46.0627 64.318 45.7534 63.1207 45.3638 61.3906C44.9514 59.4715 44.2124 58.7497 42.5797 58.6924H40.8898V64.7132H39.0967V51.0046V50.9931ZM40.8898 57.3175H42.7229C44.642 57.3175 45.8565 56.2692 45.8565 54.6766C45.8565 52.8836 44.5561 52.0987 42.6599 52.0815C41.7949 52.0815 41.1762 52.1617 40.8898 52.2477V57.3175Z" fill="#21B5EA"/>
<path d="M66.1762 57.6096C66.1762 62.3931 63.2717 64.9251 59.7257 64.9251C56.1796 64.9251 53.4814 62.0837 53.4814 57.8789C53.4814 53.4678 56.2255 50.5806 59.9319 50.5806C63.6384 50.5806 66.1762 53.485 66.1762 57.6096ZM55.3948 57.833C55.3948 60.8005 57.0046 63.4586 59.8288 63.4586C62.653 63.4586 64.28 60.8406 64.28 57.6898C64.28 54.9286 62.8363 52.0414 59.846 52.0414C56.8556 52.0414 55.3948 54.7854 55.3948 57.833Z" fill="#21B5EA"/>
<path d="M72.6268 64.7005V50.8085H74.586L79.0372 57.8375C80.0684 59.4645 80.8704 60.931 81.5292 62.3517L81.5693 62.3288C81.4031 60.4727 81.363 58.7828 81.363 56.6173V50.8027H83.053V64.6947H81.237L76.8259 57.6428C75.8578 56.096 74.9297 54.5092 74.2308 53.0083L74.1678 53.0312C74.2709 54.7842 74.311 56.4512 74.311 58.7598V64.6947H72.6211L72.6268 64.7005Z" fill="#21B5EA"/>
<path d="M102.187 57.6096C102.187 62.3931 99.2825 64.9251 95.7364 64.9251C92.1904 64.9251 89.4922 62.0837 89.4922 57.8789C89.4922 53.4678 92.2362 50.5806 95.9427 50.5806C99.6491 50.5806 102.187 53.485 102.187 57.6096ZM91.4056 57.833C91.4056 60.8005 93.0153 63.4586 95.8395 63.4586C98.6638 63.4586 100.291 60.8406 100.291 57.6898C100.291 54.9286 98.8471 52.0414 95.8567 52.0414C92.8664 52.0414 91.4056 54.7854 91.4056 57.833Z" fill="#21B5EA"/>
<path d="M108.385 62.5134C109.187 63.006 110.361 63.4185 111.599 63.4185C113.432 63.4185 114.503 62.4503 114.503 61.0468C114.503 59.7464 113.759 59.0074 111.885 58.2856C109.617 57.4836 108.219 56.3092 108.219 54.35C108.219 52.1846 110.012 50.5806 112.71 50.5806C114.131 50.5806 115.162 50.9128 115.781 51.2623L115.288 52.7231C114.836 52.4768 113.907 52.0643 112.647 52.0643C110.751 52.0643 110.029 53.1986 110.029 54.1438C110.029 55.4442 110.871 56.0801 112.79 56.8248C115.139 57.7299 116.336 58.8642 116.336 60.9036C116.336 63.0461 114.75 64.9022 111.473 64.9022C110.132 64.9022 108.671 64.5127 107.927 64.0143L108.379 62.5076L108.385 62.5134Z" fill="#21B5EA"/>
</g>
<defs>
<clipPath id="clip0_9455_972">
<rect width="120.347" height="64" fill="white" transform="translate(0.313477 0.75)"/>
</clipPath>
</defs>
</svg>
