<svg width="82" height="66" viewBox="0 0 82 66" fill="none" xmlns="http://www.w3.org/2000/svg">
<path d="M40.2126 13.6113L35.4492 18.1924H38.3836L36.2412 21.9017L41.4035 17.0358H38.4691L40.2126 13.6113Z" fill="#0069B4"/>
<path d="M42.2582 0.5C31.5747 0.5 22.9082 9.16078 22.9082 19.85C22.9082 30.5392 31.569 39.2 42.2582 39.2C52.9474 39.2 61.6082 30.5392 61.6082 19.85C61.6082 9.16078 52.9417 0.5 42.2582 0.5ZM33.9621 13.89L45.5174 9.15508L42.3893 21.3941L31.1302 25.8898L33.9621 13.89ZM43.3123 23.5992L46.9134 15.645H50.9304L43.6029 25.8898L31.3354 26.2772L43.3066 23.5992H43.3123ZM43.0445 30.5392L31.5519 26.7558L43.6713 28.2145L49.7167 22.2317L53.3805 23.4226L43.0445 30.5392Z" fill="#0069B4"/>
<path d="M13.916 59.8513V51.3789H15.6417V59.8109C15.6417 62.3445 17.0152 63.9432 19.5662 63.9432C22.1171 63.9432 23.4907 62.3445 23.4907 59.8109V51.3789H25.2163V59.8282C25.2163 63.2737 23.3291 65.4783 19.5662 65.4783C15.8033 65.4783 13.916 63.2564 13.916 59.8513Z" fill="#0069B4"/>
<path d="M44.4406 65.2302V53.8317L39.7254 65.2302H39.0213L34.3292 53.8317V65.2302H32.6035V51.3789H35.0737L39.3733 61.802L43.6903 51.3789H46.1604V65.2302H44.4348H44.4406Z" fill="#0069B4"/>
<path d="M53.5537 59.8513V51.3789H55.2794V59.8109C55.2794 62.3445 56.6529 63.9432 59.2039 63.9432C61.7548 63.9432 63.1284 62.3445 63.1284 59.8109V51.3789H64.854V59.8282C64.854 63.2737 62.9668 65.4783 59.2039 65.4783C55.4409 65.4783 53.5537 63.2564 53.5537 59.8513Z" fill="#0069B4"/>
<path d="M71.416 63.2801L72.4318 61.97C73.3436 62.9857 74.8384 63.9438 76.7949 63.9438C79.2651 63.9438 80.0557 62.6164 80.0557 61.5544C80.0557 57.982 71.8546 59.9558 71.8546 55.0155C71.8546 52.73 73.8919 51.1718 76.6102 51.1718C78.7283 51.1718 80.3674 51.8759 81.5332 53.1052L80.4944 54.3749C79.4555 53.2321 78.0011 52.7127 76.489 52.7127C74.8269 52.7127 73.6438 53.6073 73.6438 54.9116C73.6438 58.0281 81.8449 56.239 81.8449 61.4102C81.8449 63.4244 80.4713 65.479 76.7372 65.479C74.3305 65.479 72.5645 64.5671 71.4218 63.2801H71.416Z" fill="#0069B4"/>
<path d="M0.710938 65.2302V51.3789H2.43657V63.695H8.87164V65.2302H0.710938Z" fill="#0069B4"/>
</svg>
