<svg width="116" height="87" viewBox="0 0 116 87" fill="none" xmlns="http://www.w3.org/2000/svg">
<circle cx="58.112" cy="19.8804" r="19.235" fill="white"/>
<path d="M64.8107 32.1245C64.6853 32.1245 64.5598 32.068 64.4846 31.9551L60.3326 25.9529H55.8795L51.7275 31.9551C51.6146 32.1182 51.4014 32.1684 51.2258 32.0805C51.0501 31.9927 50.9686 31.7858 51.0313 31.6039L54.8258 20.7158L55.6349 11.4711L55.6537 11.3707L57.7297 5.55665C57.7862 5.39985 57.9367 5.29324 58.0998 5.29324C58.2628 5.29324 58.4134 5.39985 58.4698 5.55665L60.5458 11.3707L60.5646 11.4711L61.3737 20.7158L65.1682 31.6039C65.2309 31.792 65.1494 31.9927 64.9738 32.0805C64.9173 32.1119 64.8546 32.1245 64.7982 32.1245H64.8107ZM56.4189 11.5902L55.6098 20.835L55.591 20.9291L52.731 29.1328L55.3589 25.3382C55.4342 25.2316 55.5534 25.1689 55.6788 25.1689H60.5458C60.6775 25.1689 60.7967 25.2316 60.8719 25.3382L63.4999 29.1328L60.6399 20.9291L60.6211 20.835L59.812 11.5902L58.1249 6.86122L56.4314 11.5902H56.4189Z" fill="#1D1D1D"/>
<path d="M56.4189 11.5902L56.2433 11.5714L55.4342 20.8037L55.4154 20.8789L52.1226 30.3244L55.5032 25.4386C55.5408 25.3822 55.6098 25.3445 55.6788 25.3445H60.5458C60.6148 25.3445 60.6775 25.3822 60.7214 25.4386L64.102 30.3244L60.8092 20.8789L60.7904 20.8037L59.9751 11.5463L58.1123 6.3218L56.2433 11.5463V11.5714L56.4189 11.5902L56.5882 11.6529L58.1123 7.39431L59.6238 11.6279L60.4329 20.8601L60.458 20.9667V20.9793L62.8915 27.9474L61.0162 25.2379C60.9096 25.0874 60.734 24.9933 60.5458 24.9933H55.6788C55.4906 24.9933 55.315 25.0874 55.2084 25.2379L53.3331 27.9474L55.7603 20.9793L55.7854 20.8726V20.8601L56.6008 11.6028L56.4189 11.5902Z" fill="#1D1D1D"/>
<path d="M62.095 25.7836H54.1547C54.0042 25.7836 53.8662 25.677 53.8286 25.5264C53.7847 25.3696 53.8474 25.2065 53.9728 25.1187L57.4914 22.7479L55.4216 21.3493H55.4154L55.3338 21.2615L55.2837 21.1549L55.2774 21.1173V21.0608H55.2711L55.2774 20.9667V20.9416L55.3276 20.8287L55.4028 20.7472L57.5039 19.2482L55.6851 17.9562C55.5596 17.8684 55.5032 17.7053 55.5471 17.5548C55.591 17.4043 55.7227 17.2976 55.8732 17.2976H60.3514C60.5019 17.2976 60.6336 17.398 60.6775 17.5548C60.7214 17.7053 60.665 17.8684 60.5395 17.9562L58.7207 19.2482L60.8218 20.741L60.9033 20.8287L60.9535 20.9354V20.9605L60.966 21.0608V21.0984L60.9535 21.1486L60.9033 21.249L60.8155 21.3368L58.7458 22.7354L62.2643 25.1062C62.3897 25.194 62.4525 25.3571 62.4086 25.5139C62.3646 25.6644 62.2329 25.771 62.0824 25.771L62.095 25.7836ZM55.3213 25.0623H60.9221L58.1248 23.1745L55.3276 25.0623H55.3213ZM56.7701 21.4058L58.1248 22.3152L59.4733 21.4058H56.7701ZM59.5235 20.6845L58.1186 19.6872L56.7137 20.6845H59.5235ZM57.0022 18.0189L58.1248 18.8155L59.2475 18.0189H57.0022Z" fill="#1D1D1D"/>
<path d="M66.5919 17.5046H49.6264C49.4382 17.5046 49.2815 17.3729 49.2438 17.191C49.2062 17.0091 49.3065 16.8273 49.4759 16.752L55.6161 14.1429L55.7729 14.1115H60.4517L60.6023 14.1429L66.7487 16.752C66.9181 16.8273 67.0184 17.0091 66.9808 17.191C66.9431 17.3729 66.7864 17.5046 66.5982 17.5046H66.5919ZM51.5519 16.7206H64.6602L60.3639 14.8955H55.8481L51.5519 16.7206Z" fill="#1D1D1D"/>
<path d="M51.5519 16.7206L51.5519 16.9026H65.5445L60.4015 14.7199H55.8105L50.6675 16.9026H51.5519L51.5519 16.7206L51.6209 16.8837L55.8795 15.0711H60.3263L63.7758 16.5388H51.5519L51.5519 16.7206Z" fill="#1D1D1D"/>
<path d="M66.5919 11.8975H49.6264C49.4382 11.8975 49.2689 11.7596 49.2375 11.5714C49.2062 11.3833 49.3128 11.2014 49.4947 11.1324L56.8328 8.52325L56.9645 8.49818H59.2538L59.3855 8.52325L66.7236 11.1324C66.9055 11.1951 67.0121 11.3833 66.9808 11.5714C66.9494 11.7596 66.7864 11.8975 66.5919 11.8975ZM51.9031 11.1136H64.3152L59.1848 9.28844H57.0335L51.9031 11.1136Z" fill="#1D1D1D"/>
<path d="M51.9031 11.1136L51.9031 11.2955H65.3626L59.2224 9.11281H57.0084L50.8682 11.2955H51.9094V11.1136L51.9721 11.2829L57.0774 9.47031H59.166L63.2866 10.938H51.9157V11.1198L51.9031 11.1136Z" fill="#1D1D1D"/>
<path d="M65.8142 12.7631H66.6735V13.2648H65.8142V12.7631ZM49.5449 12.7631H50.4041V13.2648H49.5449V12.7631ZM49.5449 13.6537H50.4041V14.1555H49.5449V13.6537ZM65.8142 13.6537H66.6735V14.1555H65.8142V13.6537Z" fill="#1D1D1D"/>
<path d="M65.8142 12.7631V12.8509H66.5857V13.177H65.902V12.7631H65.8142H65.7264V13.3589H66.7675V12.6753H65.7264V12.7631H65.8142ZM49.5449 12.7631V12.8509H50.3163V13.177H49.6389V12.7631H49.5511H49.4633V13.3589H50.5045V12.6753H49.4633V12.7631H49.5511H49.5449ZM49.5449 13.6537V13.7415H50.3163V14.0676H49.6389V13.6537H49.5511H49.4633V14.2495H50.5045V13.5659H49.4633V13.6537H49.5511H49.5449ZM65.8142 13.6537V13.7415H66.5857V14.0676H65.902V13.6537H65.8142H65.7264V14.2495H66.7675V13.5659H65.7264V13.6537H65.8142Z" fill="#1D1D1D"/>
<path d="M65.8142 18.3451H66.6735V18.8468H65.8142V18.3451ZM49.5449 18.3451H50.4041V18.8468H49.5449V18.3451ZM49.5449 19.2357H50.4041V19.7374H49.5449V19.2357ZM65.8142 19.2357H66.6735V19.7374H65.8142V19.2357Z" fill="#1D1D1D"/>
<path d="M65.8142 18.3451V18.4329H66.5857V18.759H65.902V18.3451H65.8142H65.7264V18.9409H66.7675V18.2573H65.7264V18.3451H65.8142ZM49.5449 18.3451V18.4329H50.3163V18.759H49.6389V18.3451H49.5511H49.4633V18.9409H50.5045V18.2573H49.4633V18.3451H49.5511H49.5449ZM49.5449 19.2357V19.3235H50.3163V19.6496H49.6389V19.2357H49.5511H49.4633V19.8315H50.5045V19.1479H49.4633V19.2357H49.5511H49.5449ZM65.8142 19.2357V19.3235H66.5857V19.6496H65.902V19.2357H65.8142H65.7264V19.8315H66.7675V19.1479H65.7264V19.2357H65.8142Z" fill="#1D1D1D"/>
<path d="M18.5314 51.4576C18.6874 51.4576 18.8014 51.4786 18.8734 51.5206C18.9514 51.5566 19.0384 51.6346 19.1344 51.7546L26.6044 61.4746C26.5864 61.3186 26.5744 61.1686 26.5684 61.0246C26.5624 60.8746 26.5594 60.7306 26.5594 60.5926V51.4576H28.0894V64.3546H27.2074C27.0694 64.3546 26.9524 64.3306 26.8564 64.2826C26.7664 64.2346 26.6764 64.1536 26.5864 64.0396L19.1254 54.3286C19.1374 54.4786 19.1464 54.6256 19.1524 54.7696C19.1584 54.9136 19.1614 55.0456 19.1614 55.1656V64.3546H17.6314V51.4576H18.5314ZM46.8159 57.9106C46.8159 58.8766 46.6629 59.7646 46.3569 60.5746C46.0509 61.3786 45.6189 62.0716 45.0609 62.6536C44.5029 63.2356 43.8309 63.6886 43.0449 64.0126C42.2649 64.3306 41.4009 64.4896 40.4529 64.4896C39.5049 64.4896 38.6409 64.3306 37.8609 64.0126C37.0809 63.6886 36.4119 63.2356 35.8539 62.6536C35.2959 62.0716 34.8639 61.3786 34.5579 60.5746C34.2519 59.7646 34.0989 58.8766 34.0989 57.9106C34.0989 56.9446 34.2519 56.0596 34.5579 55.2556C34.8639 54.4456 35.2959 53.7496 35.8539 53.1676C36.4119 52.5796 37.0809 52.1236 37.8609 51.7996C38.6409 51.4756 39.5049 51.3136 40.4529 51.3136C41.4009 51.3136 42.2649 51.4756 43.0449 51.7996C43.8309 52.1236 44.5029 52.5796 45.0609 53.1676C45.6189 53.7496 46.0509 54.4456 46.3569 55.2556C46.6629 56.0596 46.8159 56.9446 46.8159 57.9106ZM45.0249 57.9106C45.0249 57.1186 44.9169 56.4076 44.7009 55.7776C44.4849 55.1476 44.1789 54.6166 43.7829 54.1846C43.3869 53.7466 42.9069 53.4106 42.3429 53.1766C41.7789 52.9426 41.1489 52.8256 40.4529 52.8256C39.7629 52.8256 39.1359 52.9426 38.5719 53.1766C38.0079 53.4106 37.5249 53.7466 37.1229 54.1846C36.7269 54.6166 36.4209 55.1476 36.2049 55.7776C35.9889 56.4076 35.8809 57.1186 35.8809 57.9106C35.8809 58.7026 35.9889 59.4136 36.2049 60.0436C36.4209 60.6676 36.7269 61.1986 37.1229 61.6366C37.5249 62.0686 38.0079 62.4016 38.5719 62.6356C39.1359 62.8636 39.7629 62.9776 40.4529 62.9776C41.1489 62.9776 41.7789 62.8636 42.3429 62.6356C42.9069 62.4016 43.3869 62.0686 43.7829 61.6366C44.1789 61.1986 44.4849 60.6676 44.7009 60.0436C44.9169 59.4136 45.0249 58.7026 45.0249 57.9106ZM63.9762 57.9106C63.9762 58.8766 63.8232 59.7556 63.5172 60.5476C63.2112 61.3396 62.7792 62.0176 62.2212 62.5816C61.6632 63.1456 60.9942 63.5836 60.2142 63.8956C59.4342 64.2016 58.5702 64.3546 57.6222 64.3546H52.7982V51.4576H57.6222C58.5702 51.4576 59.4342 51.6136 60.2142 51.9256C60.9942 52.2316 61.6632 52.6696 62.2212 53.2396C62.7792 53.8036 63.2112 54.4816 63.5172 55.2736C63.8232 56.0656 63.9762 56.9446 63.9762 57.9106ZM62.1852 57.9106C62.1852 57.1186 62.0772 56.4106 61.8612 55.7866C61.6452 55.1626 61.3392 54.6346 60.9432 54.2026C60.5472 53.7706 60.0672 53.4406 59.5032 53.2126C58.9392 52.9846 58.3122 52.8706 57.6222 52.8706H54.5532V62.9416H57.6222C58.3122 62.9416 58.9392 62.8276 59.5032 62.5996C60.0672 62.3716 60.5472 62.0446 60.9432 61.6186C61.3392 61.1866 61.6452 60.6586 61.8612 60.0346C62.0772 59.4106 62.1852 58.7026 62.1852 57.9106ZM80.1752 64.3546H78.8252C78.6692 64.3546 78.5432 64.3156 78.4472 64.2376C78.3512 64.1596 78.2792 64.0606 78.2312 63.9406L77.0252 60.8266H71.2382L70.0322 63.9406C69.9902 64.0486 69.9182 64.1446 69.8162 64.2286C69.7142 64.3126 69.5882 64.3546 69.4382 64.3546H68.0882L73.2452 51.4576H75.0182L80.1752 64.3546ZM71.7242 59.5666H76.5392L74.5142 54.3196C74.3822 53.9956 74.2532 53.5906 74.1272 53.1046C74.0612 53.3506 73.9952 53.5786 73.9292 53.7886C73.8692 53.9926 73.8092 54.1726 73.7492 54.3286L71.7242 59.5666ZM87.1446 62.8876H92.7246V64.3546H85.3986V51.4576H87.1446V62.8876ZM10.2538 73.4576V74.8796H4.06182V79.1636H9.07482V80.5316H4.06182V84.9326H10.2538V86.3546H2.30682V73.4576H10.2538ZM19.3628 79.7306L15.1058 73.4576H16.8428C16.9688 73.4576 17.0618 73.4786 17.1218 73.5206C17.1818 73.5626 17.2358 73.6226 17.2838 73.7006L20.6498 78.8666C20.6918 78.7406 20.7548 78.6026 20.8388 78.4526L24.0158 73.7366C24.0698 73.6526 24.1268 73.5866 24.1868 73.5386C24.2528 73.4846 24.3308 73.4576 24.4208 73.4576H26.0858L21.8108 79.6496L26.2298 86.3546H24.5018C24.3698 86.3546 24.2648 86.3216 24.1868 86.2556C24.1148 86.1836 24.0548 86.1056 24.0068 86.0216L20.5508 80.6126C20.5088 80.7386 20.4548 80.8586 20.3888 80.9726L17.0228 86.0216C16.9688 86.1056 16.9058 86.1836 16.8338 86.2556C16.7678 86.3216 16.6718 86.3546 16.5458 86.3546H14.9258L19.3628 79.7306ZM33.4492 81.5306V86.3546H31.7122V73.4576H35.5192C36.3352 73.4576 37.0432 73.5536 37.6432 73.7456C38.2492 73.9316 38.7502 74.1986 39.1462 74.5466C39.5422 74.8946 39.8362 75.3146 40.0282 75.8066C40.2262 76.2986 40.3252 76.8476 40.3252 77.4536C40.3252 78.0536 40.2202 78.6026 40.0102 79.1006C39.8002 79.5986 39.4912 80.0276 39.0832 80.3876C38.6812 80.7476 38.1802 81.0296 37.5802 81.2336C36.9802 81.4316 36.2932 81.5306 35.5192 81.5306H33.4492ZM33.4492 80.1446H35.5192C36.0172 80.1446 36.4552 80.0786 36.8332 79.9466C37.2172 79.8146 37.5382 79.6316 37.7962 79.3976C38.0542 79.1576 38.2492 78.8726 38.3812 78.5426C38.5132 78.2126 38.5792 77.8496 38.5792 77.4536C38.5792 76.6316 38.3242 75.9896 37.8142 75.5276C37.3102 75.0656 36.5452 74.8346 35.5192 74.8346H33.4492V80.1446ZM47.8821 84.8876H53.4621V86.3546H46.1361V73.4576H47.8821V84.8876ZM70.2405 79.9106C70.2405 80.8766 70.0875 81.7646 69.7815 82.5746C69.4755 83.3786 69.0435 84.0716 68.4855 84.6536C67.9275 85.2356 67.2555 85.6886 66.4695 86.0126C65.6895 86.3306 64.8255 86.4896 63.8775 86.4896C62.9295 86.4896 62.0655 86.3306 61.2855 86.0126C60.5055 85.6886 59.8365 85.2356 59.2785 84.6536C58.7205 84.0716 58.2885 83.3786 57.9825 82.5746C57.6765 81.7646 57.5235 80.8766 57.5235 79.9106C57.5235 78.9446 57.6765 78.0596 57.9825 77.2556C58.2885 76.4456 58.7205 75.7496 59.2785 75.1676C59.8365 74.5796 60.5055 74.1236 61.2855 73.7996C62.0655 73.4756 62.9295 73.3136 63.8775 73.3136C64.8255 73.3136 65.6895 73.4756 66.4695 73.7996C67.2555 74.1236 67.9275 74.5796 68.4855 75.1676C69.0435 75.7496 69.4755 76.4456 69.7815 77.2556C70.0875 78.0596 70.2405 78.9446 70.2405 79.9106ZM68.4495 79.9106C68.4495 79.1186 68.3415 78.4076 68.1255 77.7776C67.9095 77.1476 67.6035 76.6166 67.2075 76.1846C66.8115 75.7466 66.3315 75.4106 65.7675 75.1766C65.2035 74.9426 64.5735 74.8256 63.8775 74.8256C63.1875 74.8256 62.5605 74.9426 61.9965 75.1766C61.4325 75.4106 60.9495 75.7466 60.5475 76.1846C60.1515 76.6166 59.8455 77.1476 59.6295 77.7776C59.4135 78.4076 59.3055 79.1186 59.3055 79.9106C59.3055 80.7026 59.4135 81.4136 59.6295 82.0436C59.8455 82.6676 60.1515 83.1986 60.5475 83.6366C60.9495 84.0686 61.4325 84.4016 61.9965 84.6356C62.5605 84.8636 63.1875 84.9776 63.8775 84.9776C64.5735 84.9776 65.2035 84.8636 65.7675 84.6356C66.3315 84.4016 66.8115 84.0686 67.2075 83.6366C67.6035 83.1986 67.9095 82.6676 68.1255 82.0436C68.3415 81.4136 68.4495 80.7026 68.4495 79.9106ZM78.1398 80.9726V86.3546H76.4028V73.4576H80.0478C80.8638 73.4576 81.5688 73.5416 82.1628 73.7096C82.7568 73.8716 83.2458 74.1086 83.6298 74.4206C84.0198 74.7326 84.3078 75.1106 84.4938 75.5546C84.6798 75.9926 84.7728 76.4846 84.7728 77.0306C84.7728 77.4866 84.7008 77.9126 84.5568 78.3086C84.4128 78.7046 84.2028 79.0616 83.9268 79.3796C83.6568 79.6916 83.3238 79.9586 82.9278 80.1806C82.5378 80.4026 82.0938 80.5706 81.5958 80.6846C81.8118 80.8106 82.0038 80.9936 82.1718 81.2336L85.9338 86.3546H84.3858C84.0678 86.3546 83.8338 86.2316 83.6838 85.9856L80.3358 81.3776C80.2338 81.2336 80.1228 81.1316 80.0028 81.0716C79.8828 81.0056 79.7028 80.9726 79.4628 80.9726H78.1398ZM78.1398 79.7036H79.9668C80.4768 79.7036 80.9238 79.6436 81.3078 79.5236C81.6978 79.3976 82.0218 79.2236 82.2798 79.0016C82.5438 78.7736 82.7418 78.5036 82.8738 78.1916C83.0058 77.8796 83.0718 77.5346 83.0718 77.1566C83.0718 76.3886 82.8168 75.8096 82.3068 75.4196C81.8028 75.0296 81.0498 74.8346 80.0478 74.8346H78.1398V79.7036ZM99.3538 73.4576V74.8796H93.1618V79.1636H98.1748V80.5316H93.1618V84.9326H99.3538V86.3546H91.4068V73.4576H99.3538ZM107.383 80.9726V86.3546H105.646V73.4576H109.291C110.107 73.4576 110.812 73.5416 111.406 73.7096C112 73.8716 112.489 74.1086 112.873 74.4206C113.263 74.7326 113.551 75.1106 113.737 75.5546C113.923 75.9926 114.016 76.4846 114.016 77.0306C114.016 77.4866 113.944 77.9126 113.8 78.3086C113.656 78.7046 113.446 79.0616 113.17 79.3796C112.9 79.6916 112.567 79.9586 112.171 80.1806C111.781 80.4026 111.337 80.5706 110.839 80.6846C111.055 80.8106 111.247 80.9936 111.415 81.2336L115.177 86.3546H113.629C113.311 86.3546 113.077 86.2316 112.927 85.9856L109.579 81.3776C109.477 81.2336 109.366 81.1316 109.246 81.0716C109.126 81.0056 108.946 80.9726 108.706 80.9726H107.383ZM107.383 79.7036H109.21C109.72 79.7036 110.167 79.6436 110.551 79.5236C110.941 79.3976 111.265 79.2236 111.523 79.0016C111.787 78.7736 111.985 78.5036 112.117 78.1916C112.249 77.8796 112.315 77.5346 112.315 77.1566C112.315 76.3886 112.06 75.8096 111.55 75.4196C111.046 75.0296 110.293 74.8346 109.291 74.8346H107.383V79.7036Z" fill="white"/>
</svg>
