<svg width="87" height="66" viewBox="0 0 87 66" fill="none" xmlns="http://www.w3.org/2000/svg">
<path d="M43.4821 0.265625C32.6679 0.265625 23.8955 9.03229 23.8955 19.8522C23.8955 30.6721 32.6622 39.4388 43.4821 39.4388C54.302 39.4388 63.0687 30.6721 63.0687 19.8522C63.0687 9.03229 54.2962 0.265625 43.4821 0.265625ZM55.9515 24.4951C54.7115 25.7351 53.062 26.4214 51.3087 26.4214C49.5553 26.4214 47.9058 25.7409 46.6658 24.4951L44.353 22.2861L45.8122 20.8269L48.1192 23.0244C48.9786 23.8837 50.109 24.3509 51.3144 24.3509C52.5198 24.3509 53.6445 23.8837 54.4981 23.0359C56.2514 21.2826 56.2514 18.4219 54.4981 16.6685C53.6503 15.8207 52.5198 15.3535 51.3144 15.3535C50.109 15.3535 48.9786 15.8207 48.1307 16.6685L40.3042 24.4951C39.0642 25.7351 37.4146 26.4214 35.6613 26.4214C33.908 26.4214 32.2585 25.7409 31.0184 24.4951C29.7784 23.2551 29.0921 21.6055 29.0921 19.8522C29.0921 18.0989 29.7726 16.4494 31.0184 15.2093C32.2585 13.9693 33.908 13.283 35.6613 13.283C37.4146 13.283 39.0642 13.9635 40.3042 15.2093L42.6631 17.5625L41.2039 19.0217L38.845 16.6685C37.9914 15.8149 36.861 15.3478 35.6613 15.3478C34.4617 15.3478 33.3312 15.8149 32.4776 16.6628C31.624 17.5164 31.1568 18.6468 31.1568 19.8464C31.1568 21.0461 31.624 22.1823 32.4776 23.0244C33.3312 23.878 34.4617 24.3509 35.6613 24.3509C36.861 24.3509 37.9972 23.8837 38.845 23.0359L46.6715 15.2093C47.9116 13.9693 49.5611 13.283 51.3144 13.283C53.0678 13.283 54.7173 13.9635 55.9573 15.2093C57.1973 16.4494 57.8779 18.0931 57.8779 19.8522C57.8779 21.6113 57.1973 23.2551 55.9573 24.4951H55.9515Z" fill="#FFCC00"/>
<path d="M0.53125 58.0735C0.53125 53.9843 3.2939 50.916 7.4004 50.916C11.5069 50.916 14.2695 53.9901 14.2695 58.0735C14.2695 62.157 11.4896 65.2311 7.4004 65.2311C3.31121 65.2311 0.53125 62.1627 0.53125 58.0735ZM12.4816 58.0735C12.4816 54.8379 10.4918 52.4502 7.4004 52.4502C4.30899 52.4502 2.31342 54.8379 2.31342 58.0735C2.31342 61.3091 4.28592 63.6969 7.4004 63.6969C10.5149 63.6969 12.4816 61.2918 12.4816 58.0735Z" fill="#FFCC00"/>
<path d="M29.1263 64.9827L25.5965 59.4863H22.8339V64.9827H21.1094V51.1406H26.6693C29.2012 51.1406 31.0065 52.7613 31.0065 55.3106C31.0065 57.8598 29.3051 59.169 27.4191 59.3363L31.1564 64.9827H29.1205H29.1263ZM29.2301 55.3106C29.2301 53.7533 28.1112 52.6748 26.4674 52.6748H22.8339V57.9694H26.4674C28.1054 57.9694 29.2301 56.8678 29.2301 55.3106Z" fill="#FFCC00"/>
<path d="M37.8818 64.9827V51.1406H39.6063V64.9827H37.8818Z" fill="#FFCC00"/>
<path d="M46.4297 58.0735C46.4297 53.7767 49.6018 50.916 53.5468 50.916C55.998 50.916 57.6995 51.9945 58.9222 53.5114L57.5553 54.365C56.6844 53.2461 55.2079 52.4559 53.5526 52.4559C50.5246 52.4559 48.2176 54.7803 48.2176 58.0793C48.2176 61.3783 50.5189 63.7257 53.5526 63.7257C55.2137 63.7257 56.5806 62.9183 57.2669 62.2319V59.4116H52.5144V57.8774H58.9914V62.8779C57.7052 64.3083 55.8193 65.2657 53.5526 65.2657C49.6076 65.2657 46.4355 62.3819 46.4355 58.0851L46.4297 58.0735Z" fill="#FFCC00"/>
<path d="M65.9355 64.9827V51.1406H67.66V64.9827H65.9355Z" fill="#FFCC00"/>
<path d="M84.841 64.9827L76.7665 53.9437V64.9827H75.042V51.1406H76.8069L84.7776 61.9548V51.1406H86.5021V64.9827H84.841Z" fill="#FFCC00"/>
</svg>
