<svg width="28" height="29" viewBox="0 0 28 29" fill="none" xmlns="http://www.w3.org/2000/svg">
<path d="M0 14.8737C0 7.14245 6.26745 0.875 13.9987 0.875V0.875C21.73 0.875 27.9975 7.14245 27.9975 14.8737V14.8737C27.9975 22.605 21.73 28.8725 13.9987 28.8725V28.8725C6.26745 28.8725 0 22.605 0 14.8737V14.8737Z" fill="white"/>
<path d="M13.9987 3.875C7.92288 3.875 3 8.79788 3 14.8737C3 20.9496 7.92288 25.8725 13.9987 25.8725C20.0746 25.8725 24.9975 20.9496 24.9975 14.8737C24.9975 8.79788 20.0714 3.875 13.9987 3.875ZM9.77544 8.18576L12.564 11.1071C13.0012 11.567 13.4158 12.0463 13.8044 12.5451L14.1121 12.937C13.2215 12.8657 12.4021 13.4196 12.1365 14.2713L11.913 13.8827C11.5827 13.3127 11.2847 12.7297 11.0126 12.1338L9.3544 8.47077C9.22485 8.20195 8.76495 7.14289 9.77868 8.18576H9.77544ZM14.1607 17.2024C13.8336 17.7724 13.4773 18.323 13.0951 18.8574L10.7535 22.1253C10.5851 22.3714 9.89851 23.2977 10.2936 21.9018L11.4304 18.025C11.6086 17.4162 11.8158 16.817 12.0555 16.2308L12.2434 15.7676C12.6255 16.5741 13.5162 17.0081 14.3842 16.8105L14.1607 17.1992V17.2024ZM14.6756 15.9101C14.1056 16.302 13.2959 16.1531 12.9364 15.5539C12.5413 15.0098 12.7033 14.2066 13.2927 13.8276C13.8886 13.4455 14.6368 13.5977 15.0222 14.1904C15.4076 14.7766 15.2489 15.515 14.6756 15.9101ZM21.9142 14.592L17.9889 15.5474C17.3735 15.6964 16.7517 15.8162 16.1234 15.9037L15.6278 15.9717C16.1363 15.2365 16.0651 14.2487 15.4627 13.5944H15.9096C16.5671 13.5944 17.2213 13.6236 17.8755 13.6884L21.8786 14.0835C22.1766 14.1062 23.3231 14.239 21.9142 14.592Z" fill="#23AE84"/>
</svg>
