<svg width="47" height="42" viewBox="0 0 47 42" fill="none" xmlns="http://www.w3.org/2000/svg">
<path d="M4.75 26.6V41H42.25V26.6M42.25 26.6H46L43.8571 22.3333H40.6429M42.25 26.6H31.1888M22.1607 41V36.7333H25.375V41M5.01786 34.3333H13.5893M18.9464 33.2667H28.0536M32.875 34.3333H41.9821M6.35714 22.3333H12.7857M6.35714 22.3333V18.0667C6.35714 16.2994 7.79623 14.8667 9.57143 14.8667M6.35714 22.3333H3.14286L1 26.6H13.7099M12.7857 22.3333V18.0667C12.7857 16.2994 11.3466 14.8667 9.57143 14.8667M12.7857 22.3333H16M9.57143 14.8667V8.46667M16 22.3333V18.0667C16 13.9429 19.3579 10.6 23.5 10.6M16 22.3333H20.2366M31 22.3333V18.0667C31 13.9429 27.6421 10.6 23.5 10.6M31 22.3333H26.4572M31 22.3333H34.2143M23.5 10.6C22.3165 10.6 21.3571 13.4654 21.3571 17M23.5 10.6C24.6835 10.6 25.6429 13.4654 25.6429 17M26.7143 11.3185V8.46667C26.7143 7.87756 26.2346 7.4 25.6429 7.4H21.3571C20.7654 7.4 20.2857 7.87756 20.2857 8.46667V11.3185M34.2143 22.3333H40.6429M34.2143 22.3333V18.0667C34.2143 16.2994 35.6534 14.8667 37.4286 14.8667M40.6429 22.3333V18.0667C40.6429 16.2994 39.2038 14.8667 37.4286 14.8667M37.4286 14.8667V8.46667M16.8036 17.2667H30.1964M34.2143 18.3333H40.6429M23.5 1V7.4M6.35714 18.3333H12.7857M28.5893 29L23.5 23.4L17.875 29M28.5893 29H17.875M28.5893 29V41M17.875 29V41M13.5893 29V41M32.875 29.5333V41M22.1607 29V33.2667M25.375 29V33.2667M31.1888 26.6L23.5 19.6667L12.0783 29H33.8503L31.1888 26.6ZM38.5 11.1333C38.5 11.7224 38.0203 12.2 37.4286 12.2C36.8368 12.2 36.3571 11.7224 36.3571 11.1333C36.3571 10.5442 36.8368 10.0667 37.4286 10.0667C38.0203 10.0667 38.5 10.5442 38.5 11.1333ZM10.6429 11.1333C10.6429 11.7224 10.1632 12.2 9.57143 12.2C8.97969 12.2 8.5 11.7224 8.5 11.1333C8.5 10.5442 8.97969 10.0667 9.57143 10.0667C10.1632 10.0667 10.6429 10.5442 10.6429 11.1333ZM24.5714 3.66667C24.5714 4.25577 24.0917 4.73333 23.5 4.73333C22.9083 4.73333 22.4286 4.25577 22.4286 3.66667C22.4286 3.07756 22.9083 2.6 23.5 2.6C24.0917 2.6 24.5714 3.07756 24.5714 3.66667Z" stroke="#1D1D1D" stroke-width="1.5" stroke-linecap="round" stroke-linejoin="round"/>
</svg>
