<svg width="41" height="41" viewBox="0 0 41 41" fill="none" xmlns="http://www.w3.org/2000/svg">
<path d="M32.7365 25.752L32.564 26.1443L32.8143 26.4921L35.8513 30.7114L35.8581 30.7209L35.8652 30.7302C35.8972 30.7718 35.9051 30.8099 35.9021 30.845C35.899 30.8808 35.8818 30.9367 35.8229 30.998L30.2048 36.3827L30.198 36.3892L30.1914 36.3958C30.144 36.4436 30.095 36.4613 30.0492 36.4641C30.0019 36.467 29.9469 36.4541 29.8951 36.4187L25.7783 33.2043L25.4398 32.94L25.0405 33.0982C23.927 33.5394 22.7575 33.8408 21.5418 33.9679L21.1127 34.0128L20.9358 34.4062L18.7986 39.1589L18.7985 39.1589L18.7936 39.1702C18.771 39.2228 18.7361 39.2546 18.6973 39.2724C18.6573 39.2908 18.6036 39.2985 18.541 39.2804L11.0354 37.1095C10.9767 37.0925 10.9386 37.0611 10.9123 37.0207C10.8862 36.9806 10.864 36.9182 10.867 36.8338L11.5927 31.7038L11.6531 31.2767L11.3142 31.0097C10.3573 30.2557 9.54663 29.3821 8.81565 28.4007L8.56198 28.0602L8.13943 28.1025L2.96091 28.6211C2.88646 28.6191 2.82471 28.5962 2.78349 28.5671C2.7443 28.5396 2.71687 28.5032 2.70404 28.4454L2.70201 28.4363L2.69975 28.4272L0.823456 20.8745C0.815506 20.8336 0.820779 20.7766 0.850139 20.7192C0.880356 20.6601 0.920653 20.63 0.948917 20.6187L0.949155 20.6187L5.80868 18.6833L6.22429 18.5178L6.27613 18.0734C6.34164 17.5118 6.47835 16.8985 6.64535 16.3211C6.80402 15.7726 7.04904 15.1931 7.30763 14.6536L7.501 14.2502L7.23791 13.8884L4.16184 9.65773L4.15067 9.64237L4.13874 9.6276C4.11068 9.59284 4.10367 9.56128 4.10704 9.52753C4.11089 9.48887 4.13134 9.43334 4.1861 9.38004C4.18631 9.37984 4.18651 9.37964 4.18672 9.37944L9.79215 3.98255L9.79829 3.97664L9.80429 3.97059C9.85175 3.92277 9.90071 3.90509 9.94651 3.90229C9.99384 3.89941 10.0488 3.91226 10.1006 3.94769L14.2174 7.16207L14.5509 7.42247L14.9462 7.27168C16.0668 6.84427 17.2442 6.52501 18.4539 6.39851L18.883 6.35364L19.0599 5.96017L21.1924 1.21803C21.2271 1.14865 21.2727 1.1116 21.3108 1.09373C21.3483 1.07614 21.3952 1.0688 21.4547 1.08604L28.9603 3.25695C29.0721 3.28927 29.1434 3.38735 29.1313 3.51458L28.403 8.66256L28.3426 9.08973L28.6815 9.35673C29.6384 10.1107 30.4491 10.9843 31.18 11.9657L31.4337 12.3062L31.8563 12.2639L37.0348 11.7453C37.1092 11.7473 37.171 11.7702 37.2122 11.7993C37.2514 11.8269 37.2788 11.8633 37.2917 11.921L37.2937 11.9302L37.296 11.9393L39.1723 19.4919C39.1802 19.5328 39.1749 19.5898 39.1456 19.6472C39.1153 19.7063 39.075 19.7364 39.0468 19.7477L39.0465 19.7478L34.187 21.6831L33.7714 21.8486L33.7196 22.293C33.654 22.8551 33.5228 23.449 33.3504 24.0453C33.1727 24.6596 32.9697 25.2218 32.7365 25.752Z" stroke="#1D1D1D" stroke-width="1.5"/>
<path d="M20 29.25C14.9142 29.25 10.75 25.0858 10.75 20C10.75 14.9142 14.9142 10.75 20 10.75C25.0858 10.75 29.25 14.9142 29.25 20C29.25 25.0858 25.0858 29.25 20 29.25Z" stroke="#1D1D1D" stroke-width="1.5"/>
<path d="M16 25.3887L16 19.4568" stroke="#1D1D1D" stroke-width="1.5" stroke-linecap="round"/>
<path d="M18.9766 23.6602V21.1885" stroke="#1D1D1D" stroke-width="1.5" stroke-linecap="round"/>
<path d="M21.9531 26.1289L21.9531 18.714" stroke="#1D1D1D" stroke-width="1.5" stroke-linecap="round"/>
<path d="M24.9297 23.6602V21.1885" stroke="#1D1D1D" stroke-width="1.5" stroke-linecap="round"/>
<path d="M21.5 16.5L37.5 3.5" stroke="white" stroke-width="3" stroke-linecap="round" stroke-linejoin="round"/>
<path d="M11 19.5L17 14.5L21.5 16.5L37.5 3.5" stroke="#1D1D1D" stroke-width="1.5" stroke-linecap="round" stroke-linejoin="round"/>
<path d="M32.5 3L37.5 3.5L37 8" stroke="#1D1D1D" stroke-width="1.5" stroke-linecap="round" stroke-linejoin="round"/>
</svg>
