<svg width="38" height="38" viewBox="0 0 38 38" fill="none" xmlns="http://www.w3.org/2000/svg">
<path fill-rule="evenodd" clip-rule="evenodd" d="M34.9993 17.3483C34.9993 20.4791 34.0271 23.3828 32.3679 25.774L33.2868 31.2872C33.4535 32.2871 32.4962 33.1051 31.5345 32.7845L26.0355 30.9515C24.2455 31.7202 22.2734 32.1458 20.2018 32.1458C12.0294 32.1458 5.4043 25.5208 5.4043 17.3483C5.4043 9.17586 12.0294 2.55078 20.2018 2.55078C28.3743 2.55078 34.9993 9.17586 34.9993 17.3483Z" fill="#F7F7F7" stroke="#1D1D1D" stroke-width="1.5" stroke-linecap="round"/>
<path d="M3.67161 32.5208C3.06836 31.6513 2.71484 30.5955 2.71484 29.4571C2.71484 26.4853 5.12396 24.0762 8.09576 24.0762C11.0676 24.0762 13.4767 26.4853 13.4767 29.4571C13.4767 32.4289 11.0676 34.838 8.09576 34.838C7.34222 34.838 6.62486 34.6831 5.97378 34.4034L4.05182 35.0441C3.66713 35.1723 3.28422 34.8451 3.35088 34.4451L3.67161 32.5208Z" fill="#F7F7F7" stroke="#1D1D1D" stroke-width="1.3" stroke-linecap="round"/>
<path d="M10.4336 13.8216C10.4336 13.3128 10.8461 12.9004 11.3548 12.9004H29.1656C29.6744 12.9004 30.0869 13.3128 30.0869 13.8216C30.0869 14.3304 29.6744 14.7429 29.1656 14.7429H11.3548C10.8461 14.7429 10.4336 14.3304 10.4336 13.8216Z" fill="#1D1D1D"/>
<path d="M16.5762 19.9642C16.5762 19.4554 16.9886 19.043 17.4974 19.043H29.1666C29.6754 19.043 30.0878 19.4554 30.0878 19.9642C30.0878 20.473 29.6754 20.8855 29.1666 20.8855H17.4974C16.9886 20.8855 16.5762 20.473 16.5762 19.9642Z" fill="#1D1D1D"/>
</svg>
